<svg width="1600" height="5849" viewBox="0 0 1600 5849" fill="none" xmlns="http://www.w3.org/2000/svg">
<path fill-rule="evenodd" clip-rule="evenodd" d="M1600 0H0V5849H1600V0ZM141.439 2803.95C159.702 2808.8 174.313 2820.01 184.905 2837.57C193.306 2851.77 198.054 2869.7 199.15 2890.62C199.516 2893.61 199.516 2897.72 199.516 2903.32C199.516 2908.93 199.516 2913.41 199.15 2916.77C197.324 2937.7 193.671 2957.87 187.462 2976.18C180.887 2995.98 172.486 3010.92 162.624 3021.01C158.607 3025.12 154.589 3028.11 150.206 3030.35C149.64 3030.6 149.092 3030.84 148.562 3031.08L148.56 3031.09C146.696 3031.93 145.053 3032.67 143.631 3032.96C141.805 3033.34 139.613 3033.71 137.056 3033.71C134.865 3033.71 133.039 3033.71 131.943 3033.34C125.003 3032.22 118.428 3028.48 112.949 3022.88C99.8 3009.05 91.3991 2985.89 88.8423 2954.51C88.477 2952.64 88.477 2950.02 88.477 2946.66V2936.58C88.477 2932.84 88.477 2930.6 88.8423 2928.73C89.938 2914.91 92.1296 2902.95 96.1474 2893.24C98.339 2887.63 100.896 2883.52 103.818 2880.54C105.644 2878.29 107.47 2877.17 109.662 2876.8C111.854 2876.05 115.871 2876.8 117.698 2883.15C118.063 2883.9 118.063 2884.27 118.063 2885.02C118.063 2885.21 117.972 2885.49 117.88 2885.77C117.789 2886.05 117.698 2886.33 117.698 2886.51C117.651 2886.61 117.61 2886.7 117.574 2886.78C117.557 2886.82 117.542 2886.86 117.527 2886.89C117.477 2887.01 117.437 2887.12 117.399 2887.22L117.398 2887.23C117.279 2887.55 117.193 2887.78 116.967 2888.01C116.602 2888.38 116.237 2888.75 115.506 2889.13C114.045 2889.88 112.219 2889.88 110.758 2888.38C110.522 2889.1 110.134 2889.83 109.691 2890.65C109.449 2891.1 109.19 2891.59 108.931 2892.12C104.183 2902.58 100.896 2916.03 99.0695 2932.09L99.0049 2933.15C98.6624 2938.73 98.339 2944 98.339 2949.28C98.339 2964.22 100.165 2978.42 104.183 2991.87C110.392 3011.3 119.889 3022.88 132.308 3025.87C133.039 3026.24 134.134 3026.24 135.23 3026.24H137.787H140.344C148.379 3024.37 156.05 3018.77 163.355 3009.43C176.504 2991.49 186.001 2964.97 191.115 2930.97C192.576 2920.88 193.306 2911.17 193.306 2902.2C193.306 2891.37 192.21 2881.28 190.384 2871.57C184.54 2843.92 171.025 2824.87 150.571 2815.16C142.9 2811.42 134.865 2809.55 126.099 2809.55H124.272C102.722 2809.55 83.3634 2818.89 66.5615 2837.2C58.8911 2845.79 51.9512 2855.88 46.107 2867.83C41.3587 2877.17 37.7061 2887.26 35.1493 2898.09C34.0535 2902.95 32.9577 2908.56 32.2272 2914.91C31.862 2916.03 31.862 2917.15 31.862 2918.27C31.4967 2919.39 31.4967 2920.51 31.4967 2921.63V2926.49C31.4967 2928.68 31.622 2930.48 31.7259 2931.97C31.7993 2933.03 31.862 2933.93 31.862 2934.71C32.2272 2936.58 32.5925 2938.82 32.9577 2941.43C33.323 2944.05 33.6883 2946.66 34.4188 2948.9C34.784 2950.77 35.5146 2952.64 36.2451 2953.76C38.8019 2953.76 39.8977 2955.63 39.8977 2957.5C39.8977 2957.87 39.8977 2958.62 39.5324 2959.36C38.8019 2961.61 37.3408 2962.73 35.8798 2962.73H34.784C32.9577 2962.73 31.1315 2961.61 29.6704 2960.49C29.4747 2960.19 29.3053 2959.91 29.148 2959.66C28.718 2958.96 28.379 2958.42 27.8441 2957.87C27.3094 2957.32 26.9703 2956.58 26.5404 2955.63C26.3831 2955.28 26.2136 2954.91 26.0178 2954.51C23.8263 2949.65 22.3653 2942.93 22 2933.59V2924.99C22 2923.21 22.1031 2921.53 22.1998 2919.95C22.285 2918.56 22.3653 2917.25 22.3653 2916.03C22.5077 2915.3 22.5946 2914.46 22.6909 2913.52C22.8416 2912.06 23.0154 2910.38 23.461 2908.56C23.9704 2906.47 24.3022 2904.57 24.5802 2902.97C24.7009 2902.28 24.8115 2901.65 24.9221 2901.08C32.5925 2868.95 47.9333 2842.43 69.8488 2822.63C83.3634 2811.05 98.7042 2804.32 115.141 2802.08H123.542H131.943C132.904 2802.24 133.725 2802.33 134.467 2802.42C135.416 2802.52 136.236 2802.62 137.056 2802.83L141.439 2803.95ZM540.667 2915.65C539.936 2915.65 539.206 2916.03 538.475 2916.77C538.11 2917.15 537.745 2917.52 537.379 2918.27L537.014 2918.64C534.823 2921.63 531.535 2925.37 527.152 2929.85C519.847 2937.32 512.907 2942.93 505.967 2946.29C505.359 2946.57 504.764 2946.84 504.178 2947.11L504.175 2947.11C501.597 2948.31 499.216 2949.42 496.836 2950.03C490.626 2951.89 484.417 2951.89 479.303 2950.03C470.172 2947.04 463.962 2939.56 461.04 2927.61C460.31 2924.99 459.945 2922 459.579 2919.02C459.579 2917.98 459.501 2916.86 459.416 2915.65C459.319 2914.27 459.214 2912.77 459.214 2911.17V2908.18V2904.07V2900.71C459.214 2899.59 458.849 2898.47 458.484 2897.35C457.388 2895.48 455.927 2894.36 454.101 2894.36C453.37 2894.36 452.639 2894.36 452.274 2894.73C450.813 2895.11 449.717 2896.23 449.352 2897.72C447.891 2896.6 446.065 2895.85 443.873 2895.85H442.778C442.047 2895.85 441.316 2895.85 440.221 2896.23C439.855 2896.35 439.53 2896.48 439.206 2896.6C438.556 2896.85 437.907 2897.1 436.933 2897.35C431.455 2900.34 427.071 2905.94 424.515 2913.79C424.408 2914.22 424.271 2914.69 424.13 2915.17L424.129 2915.17C423.786 2916.34 423.419 2917.58 423.419 2918.64C421.593 2920.51 419.401 2922.38 417.209 2924.25C413.922 2926.86 411 2929.1 408.809 2930.6C402.599 2934.71 396.024 2936.58 390.18 2936.58H387.989C378.857 2935.83 372.283 2931.34 367.534 2922.75C367.309 2922.52 367.083 2922.15 366.771 2921.63C366.578 2921.31 366.352 2920.94 366.073 2920.51C365.602 2919.79 365.282 2919.06 364.918 2918.24L364.912 2918.22L364.767 2917.9C364.704 2917.75 364.638 2917.61 364.569 2917.46C364.523 2917.36 364.475 2917.25 364.426 2917.15C364.387 2917.06 364.347 2916.98 364.306 2916.9L364.247 2916.77L363.91 2916C362.614 2913.01 361.604 2910.68 360.594 2909.3C359.499 2907.81 358.403 2906.31 357.307 2905.19C351.828 2899.96 345.619 2900.71 338.679 2907.81L336.122 2911.92C335.587 2912.47 335.052 2913.21 334.373 2914.16C334.126 2914.51 333.859 2914.88 333.565 2915.28C329.913 2920.14 326.26 2927.61 322.242 2937.32V2936.2C321.877 2931.34 321.512 2926.49 321.512 2921.63V2913.79C321.512 2910.8 321.512 2908.18 321.877 2905.94V2903.32L322.242 2902.95V2902.58C322.394 2902.42 322.545 2902.2 322.722 2901.95C322.973 2901.58 323.275 2901.15 323.703 2900.71C333.565 2887.26 341.966 2868.58 348.541 2845.79C348.966 2844.48 349.268 2842.93 349.59 2841.26C349.821 2840.07 350.062 2838.82 350.367 2837.57C350.643 2836.3 350.867 2835.14 351.078 2834.04C351.426 2832.23 351.739 2830.61 352.193 2828.98C352.559 2827.11 352.559 2824.87 352.559 2822.63V2819.26V2816.65C351.463 2810.3 348.176 2808.06 345.619 2807.68C342.697 2806.94 339.775 2807.31 336.487 2809.55C333.2 2811.79 330.278 2815.16 327.721 2820.01C322.973 2828.23 319.32 2838.69 316.398 2851.02C314.207 2861.86 312.38 2874.18 312.015 2887.63V2896.97V2910.42C312.015 2914.91 312.015 2917.9 312.38 2919.39C312.55 2920.95 312.641 2922.35 312.726 2923.67L312.726 2923.67C312.824 2925.18 312.915 2926.58 313.111 2927.98C312.015 2931.72 310.919 2934.71 309.824 2937.7C308.363 2941.81 306.536 2946.29 304.345 2950.77C295.213 2970.57 285.716 2982.15 276.22 2985.52C275.124 2985.89 274.028 2985.89 272.567 2985.89H271.471H268.915C267.088 2985.52 265.627 2984.77 264.166 2983.65C252.113 2974.68 244.808 2955.26 241.885 2925.37C241.885 2924.62 241.885 2923.5 241.52 2921.63C241.52 2920.14 241.52 2918.27 241.155 2916.77V2909.68L242.251 2908.56C244.877 2905.87 247.209 2902.58 249.776 2898.96C250.065 2898.55 250.356 2898.14 250.652 2897.72C258.322 2884.65 265.262 2870.07 270.741 2853.64C275.124 2839.81 277.316 2829.73 277.316 2821.88C277.316 2811.05 272.567 2808.06 268.915 2806.94C263.801 2805.82 258.687 2808.8 253.208 2815.53C248.095 2822.25 243.347 2831.59 239.329 2843.18C233.85 2859.99 231.293 2879.79 231.293 2902.2C231.293 2907.81 231.293 2912.67 231.658 2916.77L231.749 2917.8L231.749 2917.81C232.087 2921.63 232.449 2925.74 233.119 2929.85C235.311 2947.78 239.329 2962.73 244.808 2973.94C250.652 2985.52 257.957 2992.24 266.358 2994.48H266.723H269.645H271.837C272.932 2994.48 274.393 2994.48 275.855 2994.11C285.351 2991.12 294.483 2982.53 302.518 2967.96C303.614 2966.09 305.075 2963.47 306.536 2960.49C307.161 2959.21 307.719 2957.93 308.238 2956.74C308.934 2955.15 309.561 2953.71 310.189 2952.64C311.65 2949.28 313.111 2945.92 314.207 2942.55V2942.93C314.572 2945.17 314.937 2947.04 315.302 2948.16C315.668 2949.65 316.398 2950.77 317.129 2951.15L317.494 2951.52L319.685 2952.64H320.051L320.416 2953.39L320.781 2952.64C321.209 2952.64 321.512 2952.51 321.762 2952.41C321.94 2952.33 322.091 2952.27 322.242 2952.27C323.187 2951.94 323.589 2951.07 323.916 2950.35C323.968 2950.24 324.018 2950.13 324.069 2950.03C324.434 2949.28 325.164 2947.78 325.895 2945.54C329.547 2935.83 333.2 2927.98 336.853 2922.75C342.697 2913.79 345.984 2912.67 347.445 2912.67C347.445 2912.67 348.176 2912.67 348.906 2914.16C349.704 2915.25 350.501 2916.93 351.58 2919.2C351.984 2920.05 352.427 2920.99 352.924 2922C354.75 2926.11 356.577 2929.48 358.038 2931.72C359.499 2933.96 361.325 2936.2 363.151 2937.7C367.534 2942.18 373.013 2944.79 379.588 2946.29C392.007 2948.9 405.156 2945.17 417.575 2934.71C418.305 2934.15 419.036 2933.49 419.766 2932.84C420.497 2932.19 421.227 2931.53 421.958 2930.97V2931.72V2936.2C421.958 2939.19 423.054 2942.18 424.515 2945.92C427.071 2951.15 430.359 2951.89 432.55 2951.89C437.299 2951.89 441.682 2947.04 445.7 2937.32C446.43 2935.83 447.161 2933.59 447.891 2931.34C448.04 2930.89 448.19 2930.44 448.336 2930.01C448.905 2928.32 449.427 2926.78 449.717 2924.99C454.831 2945.92 465.058 2957.87 480.399 2960.49H483.686H486.608C488.07 2960.49 489.531 2960.49 490.992 2960.11C501.219 2958.62 511.811 2953.39 522.039 2944.79C525.326 2942.18 528.978 2938.82 532.266 2934.71C535.918 2930.97 538.84 2927.24 541.032 2923.87C542.128 2922.38 542.858 2921.26 542.858 2920.14C543.589 2916.77 542.493 2915.65 540.667 2915.65ZM433.646 2941.81C432.55 2940.69 431.82 2938.44 431.82 2935.45V2933.59C431.82 2932.6 431.922 2931.61 432.018 2930.68C432.104 2929.85 432.185 2929.06 432.185 2928.36C432.55 2926.86 432.916 2925.37 433.281 2923.5C435.472 2916.77 438.029 2911.54 441.682 2908.18C443.143 2906.31 444.239 2906.31 444.604 2906.31C444.969 2906.31 445.7 2906.31 446.065 2908.18C446.065 2908.31 446.105 2908.43 446.16 2908.6C446.268 2908.93 446.43 2909.43 446.43 2910.42V2913.04C446.381 2913.24 446.332 2913.45 446.281 2913.68L446.222 2913.95L446.145 2914.31C445.837 2915.72 445.426 2917.62 444.604 2920.14C444.057 2921.81 443.511 2923.4 442.964 2924.98L442.96 2924.99C442.412 2926.58 441.864 2928.17 441.316 2929.85C438.029 2938.44 435.472 2941.43 434.011 2942.55C434.011 2941.81 434.011 2941.81 433.646 2941.81ZM346.349 2821.88V2823.75C345.619 2834.58 341.966 2848.41 335.392 2865.59C331.374 2875.3 327.356 2883.9 322.608 2891.37L322.973 2889.5C322.973 2888.94 323.064 2888.47 323.155 2888.01C323.247 2887.54 323.338 2887.07 323.338 2886.51L323.703 2881.28C324.178 2877.16 324.807 2873.5 325.389 2870.12C325.703 2868.29 326.004 2866.55 326.26 2864.84C326.991 2859.99 328.086 2855.13 329.547 2849.9C333.565 2834.58 337.948 2823.75 343.062 2817.77L343.064 2817.77C344.158 2816.65 344.523 2816.28 344.888 2816.28C345.619 2816.28 346.349 2817.77 346.349 2821.88ZM271.471 2818.89V2821.13V2823.37C271.471 2824.5 271.471 2825.62 271.106 2826.74C271.106 2827.62 270.877 2828.98 270.601 2830.62C270.528 2831.05 270.452 2831.5 270.376 2831.97C268.184 2842.8 264.166 2855.5 258.322 2868.95C255.765 2874.93 252.478 2881.28 249.191 2887.26C246.269 2892.49 243.712 2896.6 241.52 2899.96C241.52 2899.26 241.602 2898.55 241.688 2897.81C241.784 2896.97 241.885 2896.09 241.885 2895.11C242.251 2890.62 242.616 2886.51 242.981 2882.78C244.442 2868.95 247.364 2855.5 251.017 2843.55C256.131 2827.86 261.609 2818.52 267.088 2815.16C267.454 2814.78 267.819 2814.78 268.184 2814.78C268.549 2814.78 268.915 2814.78 268.915 2815.16C269.645 2815.53 270.01 2816.65 270.376 2818.14C271.106 2818.14 271.471 2818.52 271.471 2818.89ZM879.991 2903.32C883.644 2901.83 886.201 2902.2 888.758 2904.07L890.584 2903.32C891.314 2904.45 891.68 2905.57 891.68 2906.31C891.68 2907.06 891.314 2907.81 890.949 2908.56L890.219 2909.3C889.123 2910.05 886.931 2910.42 885.105 2910.05H884.375C882.914 2910.05 881.452 2910.8 879.991 2912.66C875.608 2917.52 871.591 2926.11 867.938 2939.19C867.938 2940.31 867.573 2941.06 867.207 2942.18C866.842 2943.3 866.477 2944.05 866.112 2944.42C864.651 2946.66 862.824 2947.41 861.729 2947.41C860.998 2947.41 860.267 2947.41 859.902 2947.04L859.537 2946.66C859.426 2946.55 859.282 2946.44 859.125 2946.31C858.763 2946.03 858.331 2945.69 858.076 2945.17C857.345 2944.42 856.98 2943.67 856.615 2942.93C856.25 2942.18 855.884 2941.06 855.519 2939.56C852.232 2950.4 848.579 2960.49 844.561 2968.7C838.717 2980.66 832.508 2988.51 825.568 2991.87C824.107 2992.62 823.011 2992.99 821.915 2993.36C821.408 2993.36 820.822 2993.44 820.195 2993.53L820.19 2993.53C819.463 2993.63 818.68 2993.74 817.898 2993.74H817.532H814.975C814.245 2993.74 813.514 2993.74 812.784 2993.36C811.323 2992.99 809.862 2992.24 808.401 2991.49C806.575 2990.75 805.479 2990 804.018 2988.88C792.329 2979.54 784.659 2960.11 779.911 2929.1C778.084 2916.03 776.989 2901.83 776.989 2886.51V2876.8V2868.21V2864.1H776.623C775.225 2864.1 773.613 2864.32 771.623 2864.59L771.018 2864.67L770.657 2864.72C770.342 2864.76 770.017 2864.8 769.683 2864.84L767.492 2865.22C753.977 2867.09 740.463 2869.33 728.044 2871.57C727.374 2871.74 726.781 2871.83 726.23 2871.92L726.226 2871.92L726.222 2871.92C725.574 2872.02 724.983 2872.11 724.391 2872.32C724.026 2874.56 723.296 2877.54 722.566 2880.53L722.565 2880.54L722.352 2881.55L722.018 2883.14C721.222 2886.92 720.674 2889.52 720.374 2891.37C720.008 2894.36 720.008 2895.11 720.008 2895.48L720.374 2895.85C720.471 2896.15 720.569 2896.43 720.66 2896.68C720.908 2897.37 721.104 2897.92 721.104 2898.47C721.104 2899.22 721.104 2899.96 720.739 2900.71C720.374 2901.46 719.278 2902.95 716.721 2902.95C715.625 2902.95 713.799 2902.58 712.338 2900.34L711.973 2899.59C711.607 2899.22 711.607 2898.47 711.607 2897.72V2895.85V2894.36C711.607 2893.61 711.607 2892.86 711.973 2891.74L713.799 2885.02L716.721 2873.81H716.356C714.895 2873.81 713.799 2873.81 713.068 2873.06C711.607 2871.94 710.877 2870.82 710.877 2869.7V2868.95C710.877 2867.46 711.607 2866.34 712.703 2865.22C713.434 2864.84 714.164 2864.47 714.895 2864.47L718.547 2864.1H718.913C723.296 2845.42 725.487 2830.47 725.487 2820.01V2816.65C724.757 2806.56 721.835 2799.46 716.721 2796.1C711.242 2792.37 703.206 2792.37 693.344 2795.73C677.273 2800.96 660.836 2812.54 644.035 2829.35C627.598 2846.54 617.005 2863.35 612.988 2879.04C612.925 2879.36 612.862 2879.67 612.801 2879.97C612.508 2881.42 612.257 2882.66 612.257 2883.9C611.892 2885.39 611.892 2886.89 611.892 2888.38C611.892 2894.36 613.718 2899.22 617.005 2903.32C619.928 2906.69 624.676 2910.05 630.885 2912.29C634.538 2913.79 638.921 2915.28 644.035 2916.4C649.148 2917.52 656.088 2919.02 664.854 2920.51C680.56 2923.13 693.344 2925.74 702.111 2927.98C710.877 2930.6 718.913 2933.59 725.852 2936.95C726.515 2937.29 727.144 2937.63 727.739 2937.95C728.228 2938.22 728.695 2938.49 729.138 2938.74C729.417 2938.89 729.687 2939.05 729.948 2939.19C730.441 2939.47 730.902 2939.72 731.331 2939.94C732.401 2940.48 733.47 2941.23 734.826 2942.18L734.831 2942.18L734.859 2942.2C735.346 2942.54 735.87 2942.91 736.445 2943.3C737.919 2944.2 739.393 2945.35 740.674 2946.35L741.098 2946.68C741.255 2946.8 741.409 2946.92 741.559 2947.04C743.02 2948.16 744.481 2949.65 745.942 2951.15C752.882 2958.99 756.534 2968.33 756.534 2978.04C756.534 2985.89 753.977 2994.86 749.594 3003.82C745.211 3012.79 738.636 3021.38 730.601 3029.6C715.625 3044.17 700.65 3051.64 686.77 3052.02H684.578C683.482 3051.64 682.752 3051.64 682.387 3051.64C674.351 3050.15 669.237 3045.29 667.411 3037.82C667.046 3035.95 667.046 3033.71 667.046 3031.84C667.046 3019.89 672.89 3005.32 684.578 2988.88C696.997 2972.07 710.877 2958.62 725.487 2948.9C717.817 2944.42 707.59 2940.31 694.805 2937.32C691.153 2936.58 687.135 2935.83 682.752 2935.08C682.329 2935.01 681.89 2934.93 681.433 2934.85L680.566 2934.7C676.386 2933.98 670.905 2933.04 664.124 2932.09C662.219 2931.78 660.394 2931.48 658.649 2931.2L658.636 2931.2C652.017 2930.13 646.542 2929.24 642.208 2928.36C636.729 2927.24 632.346 2926.11 628.694 2924.99C611.527 2919.39 601.665 2909.68 599.473 2895.48C599.108 2893.98 599.108 2892.12 599.108 2890.62V2887.63C599.108 2886.14 599.108 2884.27 599.473 2883.15C601.299 2872.32 606.413 2860.36 614.083 2848.03C624.311 2832.34 637.46 2818.14 653.531 2805.81C672.89 2791.24 689.692 2784.15 703.937 2784.15C712.338 2784.15 718.913 2786.39 723.661 2791.24C728.409 2795.73 731.331 2802.08 732.427 2810.67C732.427 2811.47 732.494 2812.33 732.57 2813.32L732.57 2813.33C732.672 2814.66 732.792 2816.22 732.792 2818.14V2826.36C732.062 2833.46 730.966 2842.05 729.14 2851.77C728.934 2853.24 728.613 2854.71 728.307 2856.11L728.306 2856.12L728.305 2856.12L728.303 2856.13C728.066 2857.22 727.838 2858.26 727.679 2859.24C727.313 2860.36 726.948 2861.85 726.583 2863.72H726.948C728.346 2863.72 730.384 2863.5 732.901 2863.23C733.674 2863.15 734.491 2863.06 735.349 2862.98C738.636 2862.6 741.833 2862.23 745.029 2861.85C748.225 2861.48 751.421 2861.11 754.708 2860.73C756.14 2860.56 757.533 2860.39 758.887 2860.22L759.098 2860.2C763.532 2859.65 767.548 2859.15 771.145 2858.87C772.037 2858.76 772.821 2858.66 773.513 2858.57C773.912 2858.52 774.28 2858.46 774.621 2858.42L774.642 2858.41C775.872 2858.24 776.731 2858.12 777.354 2858.12V2857.75L777.719 2855.13C778.084 2854.01 778.084 2852.89 778.084 2851.39C778.45 2845.79 778.815 2840.56 779.18 2835.7C779.608 2832.64 779.91 2830.09 780.161 2827.98L780.161 2827.97C780.339 2826.48 780.49 2825.2 780.641 2824.12C781.006 2821.88 781.372 2820.39 782.102 2818.52C782.232 2818.19 782.35 2817.88 782.46 2817.59C782.974 2816.25 783.328 2815.33 783.929 2814.41C786.851 2810.3 790.138 2809.55 793.425 2811.79C794.886 2813.29 795.252 2814.41 795.252 2815.16V2816.65C795.252 2817.4 795.252 2818.89 794.886 2820.76C794.886 2823 794.521 2825.62 794.156 2827.86C794.07 2828.38 793.964 2828.95 793.842 2829.57C793.718 2830.19 793.578 2830.87 793.427 2831.6C793.097 2833.19 792.713 2835.04 792.329 2837.2C791.964 2838.88 791.69 2840.56 791.416 2842.24C791.142 2843.92 790.868 2845.6 790.503 2847.28C789.967 2849.75 789.627 2852.02 789.34 2853.94L789.232 2854.66C789.168 2855.09 789.105 2855.49 789.042 2855.88V2857H789.773C797.808 2856.25 807.305 2855.88 817.898 2855.5C828.49 2855.13 843.831 2854.76 863.92 2854.38C867.438 2854.38 870.426 2854.25 872.805 2854.14C874.379 2854.07 875.686 2854.01 876.704 2854.01C878.652 2854.01 879.951 2853.84 880.817 2853.73L881.093 2853.7C881.271 2853.68 881.427 2853.66 881.564 2853.65C881.657 2853.64 881.741 2853.64 881.818 2853.64C883.279 2853.26 884.009 2853.26 884.74 2853.26H885.836C886.931 2853.64 888.027 2854.38 888.758 2855.5C888.855 2855.8 888.953 2856.08 889.044 2856.33C889.292 2857.02 889.488 2857.57 889.488 2858.12C889.488 2859.24 889.123 2861.11 886.566 2862.23C885.836 2862.6 885.105 2862.6 884.74 2862.6H882.914C881.452 2862.23 879.626 2861.85 877.8 2861.85C875.974 2861.48 873.052 2861.48 869.034 2861.48H851.867C845.765 2861.48 840.229 2861.6 835.323 2861.7C831.419 2861.78 827.913 2861.85 824.837 2861.85C817.898 2862.23 810.592 2862.6 803.287 2862.98C801.096 2862.98 798.539 2862.98 795.982 2863.35C794.35 2863.35 792.946 2863.47 791.706 2863.57C790.726 2863.65 789.848 2863.72 789.042 2863.72H787.581C787.581 2864.84 787.581 2865.59 787.216 2867.09C785.755 2879.79 785.024 2891.74 785.024 2902.95C785.024 2908.93 785.39 2914.91 785.755 2920.51C788.677 2953.01 795.617 2974.68 806.94 2984.77C811.323 2988.13 815.706 2989.63 820.089 2988.13C822.281 2987.38 824.837 2985.89 827.029 2983.28C833.238 2976.92 839.448 2966.09 844.927 2950.77C846.753 2946.29 848.214 2942.18 849.31 2938.07C849.752 2936.26 850.327 2934.18 850.955 2931.91L850.957 2931.9C851.367 2930.42 851.8 2928.86 852.232 2927.24C852.042 2926.07 851.95 2924.9 851.855 2923.68C851.768 2922.56 851.676 2921.39 851.501 2920.14C851.136 2918.64 851.136 2917.15 851.136 2915.28V2911.17V2908.18C851.501 2906.31 851.501 2905.19 851.501 2904.45C851.867 2902.2 852.597 2900.71 853.693 2899.59C855.519 2897.35 858.441 2896.6 860.998 2898.09C863.555 2899.22 863.92 2902.58 863.92 2903.7C864.285 2904.45 864.285 2905.57 864.285 2906.31C864.285 2907.06 864.285 2908.18 863.92 2909.68C863.92 2910.91 863.67 2912.66 863.377 2914.71L863.376 2914.71L863.376 2914.71L863.281 2915.38L863.19 2916.03L863.189 2916.03C862.824 2921.26 862.459 2926.49 862.459 2930.6V2931.72C865.381 2922.75 869.034 2915.65 872.686 2910.8C873.417 2909.68 874.878 2908.18 876.339 2906.69L876.34 2906.69L876.344 2906.68L876.349 2906.68C877.805 2905.19 878.898 2904.07 879.991 2903.32ZM674.351 3035.95C674.351 3036.7 674.716 3037.45 675.447 3038.57C676.908 3041.56 679.099 3043.05 682.387 3043.8C684.249 3044.34 685.143 3044.29 686.338 3044.22C686.783 3044.2 687.271 3044.17 687.866 3044.17C694.44 3043.43 701.38 3040.44 709.051 3035.21C714.895 3030.72 720.739 3025.49 725.852 3019.51C733.523 3010.17 739.367 3000.46 742.289 2990.37C743.385 2986.26 744.115 2982.15 744.115 2978.04V2976.55C744.115 2974.31 743.75 2972.44 743.385 2970.57C743.02 2969.08 742.289 2966.84 741.193 2964.97C739.002 2960.11 735.349 2956 730.601 2952.27C729.985 2952.48 729.485 2952.8 728.906 2953.18C728.454 2953.48 727.954 2953.81 727.314 2954.13C726.765 2954.56 726.216 2954.92 725.687 2955.28L725.683 2955.28C724.805 2955.87 723.979 2956.42 723.296 2957.12C708.685 2968.7 696.267 2982.53 685.674 2998.22C680.56 3006.81 676.908 3014.66 675.082 3022.13C674.351 3024 673.986 3025.49 673.986 3026.61V3029.98V3031.84C673.986 3032.99 674.123 3033.99 674.229 3034.77C674.296 3035.26 674.351 3035.66 674.351 3035.95ZM915.056 2875.68C915.311 2876.2 915.743 2876.54 916.106 2876.82C916.263 2876.95 916.407 2877.06 916.517 2877.17C916.883 2877.36 917.156 2877.55 917.43 2877.73C917.704 2877.92 917.978 2878.11 918.344 2878.29H918.709C918.892 2878.29 919.165 2878.39 919.439 2878.48C919.713 2878.57 919.987 2878.67 920.17 2878.67C921.631 2878.67 923.092 2878.29 924.188 2877.17C925.284 2876.43 926.379 2874.93 926.379 2872.32C926.379 2871.57 926.379 2870.45 926.014 2869.7C925.649 2868.95 925.284 2868.21 924.553 2867.46C923.457 2866.34 921.996 2865.96 920.535 2865.96H918.709C917.613 2865.96 916.152 2867.09 915.422 2868.58C915.239 2868.77 915.056 2869.05 914.874 2869.33C914.691 2869.61 914.508 2869.89 914.326 2870.07C914.326 2870.23 914.263 2870.45 914.19 2870.7C914.129 2870.92 914.06 2871.16 914.014 2871.41C913.982 2871.58 913.961 2871.76 913.961 2871.94C913.961 2872.69 913.961 2873.44 914.326 2873.81C914.326 2874.36 914.521 2874.7 914.77 2875.14C914.86 2875.3 914.958 2875.48 915.056 2875.68ZM1576.54 2916.03H1578V2918.27C1578 2918.64 1577.63 2919.39 1577.63 2919.76C1577.41 2919.99 1577.32 2920.37 1577.2 2920.88C1577.13 2921.2 1577.04 2921.58 1576.9 2922C1576.9 2922.63 1576.67 2923.38 1576.41 2924.25C1576.2 2924.92 1575.97 2925.67 1575.81 2926.49C1575.44 2926.86 1575.44 2927.24 1575.44 2927.61C1570.33 2944.42 1565.58 2957.87 1560.83 2967.96C1552.8 2983.65 1543.3 2992.24 1532.71 2992.99H1532.34H1530.52H1529.42H1529.06C1523.21 2991.87 1518.1 2988.88 1513.71 2983.65C1509.33 2978.04 1505.31 2970.57 1502.39 2961.23C1499.83 2953.39 1498.01 2944.42 1496.91 2933.96C1494.36 2942.18 1491.8 2947.41 1488.88 2950.02C1487.05 2951.89 1485.22 2952.64 1482.67 2952.64C1479.75 2952.64 1477.19 2951.15 1475 2948.53C1472.44 2944.79 1470.98 2941.06 1470.61 2937.32C1470.25 2933.96 1469.88 2931.34 1469.88 2929.48V2927.98C1468.79 2928.73 1468.06 2929.1 1466.96 2929.85C1451.99 2939.19 1437.74 2944.05 1425.32 2944.05H1422.03C1409.98 2942.93 1400.12 2936.95 1393.18 2926.86C1392.97 2926.44 1392.65 2926.02 1392.28 2925.54C1391.99 2925.16 1391.67 2924.74 1391.35 2924.25L1389.16 2920.88C1386.97 2917.15 1385.87 2915.65 1385.51 2915.28C1384.78 2914.53 1384.05 2914.53 1384.05 2914.53C1382.95 2914.53 1381.49 2914.91 1379.3 2917.15C1374.92 2921.26 1370.17 2929.1 1365.42 2939.94C1364.32 2942.93 1363.23 2945.17 1362.5 2946.66C1361.4 2948.53 1360.67 2949.65 1359.94 2950.4C1358.85 2951.15 1357.75 2951.52 1356.65 2951.52C1355.92 2951.52 1355.19 2951.52 1354.83 2951.15C1354.64 2950.96 1354.37 2950.77 1354.1 2950.59C1353.82 2950.4 1353.55 2950.21 1353.37 2950.02C1351.91 2948.16 1349.71 2944.42 1348.62 2930.97C1348.25 2931.72 1347.89 2932.09 1347.16 2932.84L1347.16 2932.84C1343.87 2936.95 1340.22 2940.31 1336.93 2942.93C1326.7 2951.52 1316.11 2956.75 1305.88 2958.24C1304.42 2958.62 1302.96 2958.62 1301.5 2958.62H1298.58H1295.29C1279.95 2956 1269.72 2944.05 1264.61 2923.13C1264.32 2924.91 1263.8 2926.46 1263.23 2928.14C1263.08 2928.58 1262.93 2929.02 1262.78 2929.48L1262.78 2929.48C1262.05 2931.72 1261.32 2933.96 1260.59 2935.45C1256.57 2945.17 1252.19 2950.02 1247.44 2950.02C1245.25 2950.02 1241.96 2949.28 1239.41 2944.05C1239.41 2943.86 1239.31 2943.67 1239.22 2943.49C1239.13 2943.3 1239.04 2943.11 1239.04 2942.93L1239.04 2942.93C1237.94 2945.92 1236.85 2948.91 1235.39 2951.89C1234.88 2952.93 1234.37 2954.05 1233.83 2955.26C1233.2 2956.64 1232.52 2958.14 1231.74 2959.74C1230.97 2961.15 1230.33 2962.36 1229.77 2963.43C1228.99 2964.91 1228.35 2966.12 1227.72 2967.21C1219.68 2981.78 1210.55 2990.37 1201.05 2993.36C1199.59 2993.74 1198.13 2993.74 1197.04 2993.74H1194.84H1191.92H1191.56C1183.16 2991.49 1175.85 2984.77 1170.01 2973.19C1164.53 2961.98 1160.51 2947.04 1158.32 2929.1V2928.36C1155.03 2931.34 1151.38 2933.96 1147.73 2936.58C1138.96 2941.81 1129.46 2944.42 1119.24 2944.42H1118.14C1111.57 2944.42 1105.72 2942.55 1100.61 2938.82C1098.78 2938.07 1097.32 2936.95 1096.22 2935.45C1095.13 2934.33 1093.67 2932.84 1092.57 2930.97C1090.75 2935.83 1089.28 2941.06 1088.19 2946.29C1087.09 2951.15 1086.36 2955.63 1086.36 2959.36C1086.36 2959.98 1086.25 2960.49 1086.15 2960.94C1086.07 2961.31 1086 2961.64 1086 2961.98C1086 2962.73 1085.63 2963.47 1084.9 2964.22C1084.54 2964.6 1083.81 2965.34 1082.71 2965.34H1082.34C1081.25 2965.34 1080.15 2964.97 1079.42 2964.22L1078.33 2963.1C1077.96 2963.1 1077.96 2962.73 1077.6 2962.35L1077.23 2961.98C1076.66 2960.51 1076.08 2958.11 1075.33 2954.97C1075.12 2954.12 1074.91 2953.22 1074.67 2952.27C1073.58 2947.78 1072.85 2942.93 1072.48 2938.44C1072.12 2935.83 1071.75 2932.84 1071.75 2930.22C1069.56 2932.47 1067 2935.08 1064.45 2937.32C1059.33 2942.18 1053.85 2946.29 1048.74 2949.28C1037.78 2956 1027.56 2959.36 1018.42 2959.36H1015.5C1001.99 2957.87 992.857 2950.4 988.473 2937.7C987.743 2934.71 987.012 2931.72 986.647 2928.73C981.168 2933.96 975.689 2938.44 970.941 2941.81C962.54 2947.41 953.774 2950.77 945.008 2952.27C944.277 2952.64 943.181 2952.64 942.086 2952.64H937.702C936.241 2952.64 935.146 2952.64 934.415 2952.27C923.823 2950.77 916.518 2944.42 911.769 2933.59C909.943 2928.73 908.847 2923.87 908.117 2918.64V2914.53V2912.29C908.256 2911.15 908.342 2910.17 908.416 2909.34C908.535 2907.98 908.621 2907.01 908.847 2906.31C909.578 2902.95 911.039 2900.34 913.23 2899.22C915.056 2898.47 916.518 2898.47 917.979 2899.22C919.44 2899.59 920.535 2900.71 920.901 2902.2C921.266 2902.58 921.266 2903.32 921.266 2903.7C921.266 2903.89 921.175 2904.17 921.083 2904.45C920.992 2904.73 920.901 2905.01 920.901 2905.19C920.901 2905.53 920.827 2905.86 920.746 2906.23C920.646 2906.69 920.535 2907.19 920.535 2907.81C919.805 2910.42 919.44 2912.29 919.44 2913.79C919.44 2914.49 919.358 2915.2 919.272 2915.94C919.176 2916.77 919.074 2917.66 919.074 2918.64V2920.51C919.074 2929.1 921.631 2935.83 926.014 2940.31C929.302 2943.67 933.319 2945.54 938.798 2945.92H940.99C949.756 2945.92 958.887 2942.55 969.115 2935.83C974.959 2931.72 981.168 2926.49 987.378 2920.51C987.743 2915.65 988.839 2910.8 991.03 2905.94C993.952 2899.96 997.605 2895.85 1001.99 2893.61C1002.35 2893.42 1002.81 2893.24 1003.27 2893.05C1003.72 2892.86 1004.18 2892.68 1004.54 2892.49C1005.64 2892.12 1006.37 2892.12 1007.47 2892.12C1011.48 2892.12 1016.23 2894.36 1017.33 2903.7V2905.57C1017.33 2907.43 1017.33 2909.68 1016.6 2912.29C1016.23 2914.16 1015.87 2915.28 1015.14 2916.03C1014.77 2916.4 1014.04 2917.15 1012.95 2917.15C1012.22 2917.15 1011.49 2916.77 1010.76 2916.4L1010.75 2916.4C1010.02 2916.03 1009.66 2915.28 1009.66 2914.16V2911.54C1009.66 2910.8 1009.66 2910.05 1010.02 2908.93C1010.08 2908.66 1010.13 2908.39 1010.18 2908.13C1010.49 2906.62 1010.75 2905.29 1010.75 2903.7V2902.95C1010.75 2900.71 1010.75 2899.59 1010.39 2899.22C1010.39 2898.84 1010.02 2898.84 1010.02 2898.84C1010.02 2898.84 1008.56 2898.84 1006.37 2902.58C1003.81 2907.06 1001.99 2911.54 1001.26 2915.65C1000.53 2920.14 1000.16 2923.5 1000.16 2926.11C1000.16 2928.73 1000.53 2931.34 1000.89 2933.59C1002.35 2940.69 1005.64 2945.17 1011.48 2948.16C1014.41 2949.65 1017.69 2950.4 1021.35 2950.4H1022.81C1027.92 2950.4 1033.77 2948.9 1039.97 2946.29C1051.3 2940.69 1062.62 2932.09 1072.85 2920.51V2909.68V2900.71C1074.31 2869.7 1079.06 2845.42 1087.46 2827.86C1090.38 2821.88 1093.67 2817.02 1096.95 2813.66C1100.24 2810.3 1103.53 2808.43 1106.82 2808.43C1109.01 2808.43 1113.39 2809.18 1114.85 2815.53C1115.22 2816.65 1115.22 2818.14 1115.22 2820.38V2820.39V2825.99C1113.03 2840.93 1106.45 2859.99 1095.86 2882.4C1091.11 2892.86 1087.09 2899.96 1083.44 2904.07V2904.82C1083.08 2905.19 1083.08 2906.31 1083.08 2908.93L1082.71 2920.14C1082.71 2928.36 1083.08 2935.83 1083.44 2942.18C1084.54 2938.07 1085.63 2933.96 1087.09 2929.85C1090.02 2920.88 1093.67 2912.29 1097.69 2905.19C1102.07 2897.72 1106.09 2892.49 1109.74 2889.13C1112.3 2887.26 1114.12 2886.51 1115.95 2886.51C1117.04 2886.51 1119.6 2887.26 1121.06 2890.25C1121.06 2890.44 1121.15 2890.62 1121.24 2890.81C1121.34 2891 1121.43 2891.18 1121.43 2891.37C1121.79 2891.74 1121.79 2892.49 1121.79 2892.86V2894.73C1121.43 2899.22 1119.6 2904.45 1115.95 2910.05C1113.76 2913.41 1111.2 2916.77 1107.91 2919.76C1104.99 2922.38 1102.07 2924.62 1099.15 2926.49L1099.51 2926.86L1100.97 2928.73L1102.07 2929.85C1105.36 2933.21 1109.74 2935.45 1114.85 2936.58C1117.77 2937.32 1121.79 2937.32 1125.81 2936.95C1129.83 2936.58 1133.85 2935.45 1137.5 2934.33C1141.88 2932.47 1146.63 2929.85 1151.38 2926.11C1152.29 2925.37 1153.11 2924.62 1153.94 2923.87C1154.76 2923.13 1155.58 2922.38 1156.49 2921.63L1157.95 2920.14C1157.95 2919.39 1157.86 2918.55 1157.77 2917.71C1157.68 2916.87 1157.59 2916.03 1157.59 2915.28C1157.22 2910.8 1157.22 2905.94 1157.22 2900.71C1157.22 2878.29 1159.78 2858.49 1165.26 2841.68C1169.28 2830.1 1174.02 2820.76 1179.14 2814.03C1184.62 2807.31 1189.73 2804.32 1194.84 2805.44C1198.5 2806.56 1203.25 2809.55 1203.25 2820.39C1203.25 2827.86 1201.05 2838.69 1196.67 2852.14C1191.19 2868.58 1184.25 2883.15 1176.58 2896.23C1176.29 2896.64 1176 2897.05 1175.71 2897.46C1173.14 2901.08 1170.81 2904.37 1168.18 2907.06L1167.08 2908.18V2915.28C1167.45 2917.15 1167.45 2919.02 1167.45 2920.51C1167.82 2922.38 1167.82 2923.5 1167.82 2924.25C1170.74 2954.13 1178.04 2973.94 1189.37 2982.53C1190.83 2983.65 1192.29 2984.4 1194.11 2984.77H1196.67H1197.77C1199.23 2984.77 1200.32 2984.77 1201.42 2984.4C1210.92 2981.03 1220.41 2969.45 1229.54 2949.65C1231.74 2945.17 1233.56 2940.69 1235.02 2936.58C1235.75 2934.71 1236.48 2932.47 1237.21 2929.85V2928.73C1237.21 2923.87 1237.94 2919.02 1239.41 2914.16C1241.96 2906.31 1246.35 2900.71 1251.82 2897.72C1252.8 2897.47 1253.45 2897.22 1254.1 2896.97C1254.42 2896.85 1254.75 2896.72 1255.11 2896.6C1256.21 2896.23 1256.94 2896.23 1257.67 2896.23H1258.76C1260.96 2896.23 1262.78 2896.97 1264.24 2898.09C1264.61 2896.6 1265.7 2895.48 1267.17 2895.11C1267.53 2894.73 1268.26 2894.73 1268.99 2894.73C1270.82 2894.73 1272.28 2895.85 1273.37 2897.72C1273.74 2898.84 1274.11 2899.96 1274.11 2901.08V2904.45V2908.56V2911.54C1274.11 2913.15 1274.21 2914.64 1274.31 2916.03C1274.39 2917.23 1274.47 2918.35 1274.47 2919.39L1274.47 2919.39C1274.84 2922.38 1275.2 2925.37 1275.93 2927.98C1278.85 2939.94 1285.06 2947.41 1294.19 2950.4C1299.31 2952.27 1305.52 2952.27 1311.73 2950.4C1314.11 2949.79 1316.49 2948.68 1319.07 2947.49C1319.66 2947.22 1320.25 2946.94 1320.86 2946.66C1327.8 2943.3 1334.74 2937.7 1342.04 2930.22C1344.97 2927.61 1347.16 2924.99 1348.98 2922.75V2915.28C1348.98 2913.04 1348.98 2911.17 1349.35 2909.68C1350.81 2902.58 1354.1 2901.08 1357.02 2901.08H1357.75C1359.58 2901.46 1361.04 2902.58 1362.13 2904.07C1362.27 2904.36 1362.41 2904.59 1362.53 2904.79C1362.72 2905.1 1362.86 2905.34 1362.86 2905.57V2906.69V2907.81C1362.86 2908.56 1362.86 2909.3 1362.5 2910.42C1362.13 2911.54 1361.77 2913.04 1361.4 2914.91C1361.04 2915.28 1361.04 2915.65 1361.04 2916.03C1359.94 2923.13 1359.21 2929.1 1359.21 2934.71C1359.21 2935.64 1359.3 2936.58 1359.39 2937.51C1359.48 2938.44 1359.58 2939.38 1359.58 2940.31C1360.04 2939.6 1360.51 2938.58 1361.07 2937.35C1361.39 2936.66 1361.74 2935.89 1362.13 2935.08C1367.25 2923.87 1371.63 2916.4 1376.01 2912.29C1381.49 2906.31 1387.34 2905.19 1392.45 2909.3C1393.18 2909.68 1393.91 2910.42 1394.64 2911.17L1394.64 2911.17C1395.18 2911.72 1395.71 2912.47 1396.39 2913.41C1396.64 2913.76 1396.9 2914.13 1397.2 2914.53C1397.71 2915.23 1398.22 2916.09 1398.8 2917.07C1399.47 2918.2 1400.24 2919.49 1401.22 2920.88C1406.69 2929.85 1413.63 2935.08 1422.77 2936.58C1424.23 2936.95 1426.05 2936.95 1428.61 2936.95C1431.17 2936.95 1433.36 2936.95 1434.82 2936.58C1442.12 2935.45 1449.79 2932.84 1457.83 2928.73C1462.94 2926.11 1467.69 2923.13 1471.34 2920.14C1471.34 2919.39 1471.71 2918.64 1471.71 2917.9C1473.54 2910.8 1476.82 2905.19 1481.57 2901.46C1484.49 2899.22 1487.42 2898.09 1490.34 2898.09C1491.07 2898.09 1492.16 2898.09 1492.9 2898.47C1493.99 2898.84 1495.09 2899.22 1496.18 2899.96V2898.84V2898.47C1498.01 2871.57 1503.49 2848.41 1512.25 2830.1C1515.54 2823.75 1518.83 2818.52 1522.12 2815.16C1526.13 2811.05 1530.15 2808.8 1534.17 2808.8H1535.26C1537.46 2808.8 1539.28 2809.92 1541.11 2811.42C1543.67 2814.41 1545.13 2818.89 1545.13 2825.24C1545.13 2829.35 1544.76 2833.84 1543.67 2839.07C1539.28 2859.61 1530.88 2879.04 1519.56 2896.23C1514.45 2903.32 1510.43 2907.81 1506.77 2909.68V2911.54V2915.65V2916.03V2916.77V2920.14C1506.77 2940.69 1510.06 2957.5 1516.27 2970.57C1518.1 2974.31 1520.29 2977.3 1522.12 2979.54C1523.21 2981.03 1524.67 2982.15 1525.77 2982.9C1526.21 2983.05 1526.66 2983.27 1527.12 2983.49C1527.81 2983.82 1528.55 2984.17 1529.42 2984.4C1530.15 2984.77 1530.52 2984.77 1530.88 2984.77H1532.71H1533.44H1535.63C1535.63 2984.77 1536 2984.77 1536.73 2984.4C1540.01 2983.28 1542.94 2981.41 1545.49 2978.42C1550.24 2973.56 1554.99 2966.09 1559.01 2956C1560.83 2951.52 1563.02 2945.92 1565.22 2939.94C1566.99 2935.1 1568.52 2930.02 1570.01 2925.09C1570.36 2923.93 1570.71 2922.77 1571.06 2921.63C1571.43 2920.51 1571.79 2919.39 1572.16 2918.64C1572.52 2918.27 1572.52 2918.27 1572.52 2917.9V2917.52L1573.25 2916.77C1573.98 2915.65 1575.44 2915.65 1576.54 2916.03ZM1539.02 2822.1C1538.96 2821.7 1538.92 2821.39 1538.92 2821.13C1537.82 2818.14 1537.09 2817.4 1536.73 2817.4H1536C1535.81 2817.4 1535.63 2817.49 1535.45 2817.58C1535.26 2817.68 1535.08 2817.77 1534.9 2817.77C1533.44 2818.52 1530.88 2821.13 1526.86 2828.6C1523.58 2834.96 1520.65 2842.43 1517.73 2850.65C1512.62 2865.96 1509.33 2882.78 1507.51 2900.71C1509.33 2898.84 1511.16 2896.6 1513.35 2893.61C1516.64 2889.13 1519.56 2884.64 1522.48 2879.41C1531.25 2862.98 1536.73 2846.54 1538.92 2831.22C1539.28 2830.1 1539.28 2828.6 1539.28 2827.11V2825.62C1539.28 2823.91 1539.13 2822.84 1539.02 2822.1ZM1483.76 2943.3H1484.13C1485.95 2942.55 1489.97 2938.07 1494.36 2919.76L1495.45 2915.65V2912.29C1495.45 2909.3 1495.09 2907.81 1494.72 2907.06C1494.36 2906.31 1493.99 2905.94 1493.63 2905.94H1492.9C1491.8 2905.94 1490.34 2907.06 1488.51 2909.68C1485.59 2914.53 1483.4 2920.51 1481.94 2927.24C1481.94 2927.98 1481.85 2928.73 1481.75 2929.48C1481.66 2930.22 1481.57 2930.97 1481.57 2931.72V2934.71V2937.7C1481.94 2939.56 1482.3 2941.06 1483.03 2942.18C1483.4 2943.3 1483.76 2943.3 1483.76 2943.3ZM1247.44 2935.45C1247.44 2938.44 1248.17 2940.69 1249.27 2941.81C1249.41 2941.81 1249.49 2941.81 1249.55 2941.85C1249.63 2941.92 1249.63 2942.09 1249.63 2942.55C1251.09 2941.43 1253.65 2938.44 1256.94 2929.85C1257.49 2928.17 1258.03 2926.58 1258.58 2924.99C1259.13 2923.4 1259.68 2921.82 1260.23 2920.14C1261.05 2917.61 1261.46 2915.72 1261.77 2914.3C1261.87 2913.83 1261.96 2913.41 1262.05 2913.04V2910.42C1262.05 2909.13 1261.78 2908.68 1261.71 2908.34C1261.69 2908.28 1261.69 2908.23 1261.69 2908.18C1261.32 2906.31 1260.59 2906.31 1260.23 2906.31C1259.86 2906.31 1258.76 2906.31 1257.3 2908.18C1253.65 2911.54 1251.09 2916.77 1248.9 2923.5C1248.54 2925.37 1248.17 2926.86 1247.81 2928.36C1247.81 2929.06 1247.73 2929.85 1247.64 2930.68C1247.54 2931.61 1247.44 2932.6 1247.44 2933.59V2935.45ZM1197.4 2821.13V2818.89C1197.3 2818.79 1197.23 2818.69 1197.16 2818.6C1196.98 2818.34 1196.84 2818.14 1196.31 2818.14C1195.94 2816.65 1195.57 2815.53 1194.84 2815.16C1194.84 2814.78 1194.48 2814.78 1194.11 2814.78C1193.75 2814.78 1193.38 2814.78 1193.02 2815.16C1187.54 2818.52 1182.06 2827.86 1176.95 2843.55C1173.29 2855.5 1170.37 2868.95 1168.91 2882.78C1168.55 2886.51 1168.18 2890.62 1167.82 2895.11C1167.82 2896.09 1167.71 2896.97 1167.62 2897.81C1167.53 2898.55 1167.45 2899.26 1167.45 2899.96C1169.64 2896.6 1172.2 2892.49 1175.12 2887.26C1178.41 2881.28 1181.69 2874.93 1184.25 2868.95C1190.1 2855.5 1194.11 2842.8 1196.31 2831.97C1196.38 2831.5 1196.46 2831.05 1196.53 2830.61C1196.81 2828.98 1197.04 2827.62 1197.04 2826.74C1197.4 2825.62 1197.4 2824.5 1197.4 2823.37V2821.13ZM1106.09 2909.3C1107.91 2907.06 1109.37 2904.45 1110.83 2901.46C1111.57 2899.22 1112.3 2897.72 1113.03 2896.6C1110.83 2898.47 1107.55 2902.2 1103.53 2909.3C1102.66 2910.19 1102.02 2911.54 1101.25 2913.18C1101.05 2913.61 1100.84 2914.07 1100.61 2914.53C1100.61 2914.72 1100.52 2914.81 1100.43 2914.91C1100.33 2915 1100.24 2915.09 1100.24 2915.28L1102.07 2913.41L1106.09 2909.3ZM1109.37 2820.76C1109.37 2820.01 1109.01 2819.26 1108.64 2818.89C1108.64 2818.52 1108.28 2818.14 1108.28 2818.52C1108.28 2818.52 1107.55 2818.52 1106.09 2820.01C1104.63 2821.51 1102.8 2823.37 1101.34 2826.36L1101.34 2826.37C1099.88 2829.36 1098.42 2832.34 1096.95 2835.7C1091.11 2851.02 1087.09 2869.7 1084.54 2891.74C1091.48 2879.41 1096.96 2867.09 1101.7 2854.38C1106.45 2841.68 1109.01 2831.59 1109.37 2824.5V2823V2820.76Z" fill="#604536"/>
</svg>
