<svg width="1176" height="1028" viewBox="0 0 1176 1028" fill="none" xmlns="http://www.w3.org/2000/svg">
<path fill-rule="evenodd" clip-rule="evenodd" d="M1176 0H0V1028H1176V0ZM350.918 353.256C357.493 355.341 362.752 360.153 366.566 367.691C369.59 373.786 371.3 381.485 371.694 390.467C371.826 391.75 371.826 393.514 371.826 395.92C371.826 398.326 371.826 400.25 371.694 401.694C371.037 410.676 369.722 419.337 367.486 427.196C365.119 435.697 362.095 442.112 358.545 446.443C357.098 448.207 355.652 449.49 354.074 450.453C353.943 450.521 353.816 450.589 353.69 450.656L353.483 450.768L353.482 450.769C352.811 451.131 352.219 451.451 351.707 451.575C351.05 451.736 350.261 451.896 349.34 451.896C348.551 451.896 347.894 451.896 347.499 451.736C345.001 451.255 342.634 449.651 340.662 447.245C335.928 441.31 332.904 431.366 331.983 417.893C331.852 417.091 331.852 415.969 331.852 414.525V410.195C331.852 408.591 331.852 407.628 331.983 406.826C332.378 400.892 333.167 395.759 334.613 391.589C335.402 389.183 336.322 387.419 337.374 386.136C338.032 385.174 338.689 384.692 339.478 384.532C340.267 384.211 341.714 384.532 342.371 387.259C342.503 387.579 342.503 387.74 342.503 388.061C342.503 388.141 342.47 388.261 342.437 388.381C342.404 388.502 342.371 388.622 342.371 388.702C342.321 388.825 342.29 388.924 342.263 389.009C342.22 389.146 342.189 389.245 342.108 389.344C341.977 389.504 341.845 389.665 341.582 389.825C341.056 390.146 340.399 390.146 339.873 389.504C339.788 389.815 339.648 390.126 339.489 390.48L339.487 390.484L339.481 390.497C339.437 390.595 339.391 390.697 339.345 390.803C339.302 390.901 339.259 391.002 339.215 391.108C337.506 395.599 336.322 401.373 335.665 408.27L335.642 408.723V408.723V408.724V408.724V408.725C335.518 411.121 335.402 413.385 335.402 415.648C335.402 422.064 336.059 428.158 337.506 433.932C339.741 442.273 343.16 447.245 347.631 448.528C347.894 448.688 348.288 448.688 348.683 448.688H349.603H350.524C353.417 447.886 356.178 445.481 358.808 441.471C363.541 433.772 366.96 422.384 368.801 407.789C369.327 403.458 369.59 399.288 369.59 395.439C369.59 390.787 369.196 386.457 368.538 382.287C366.434 370.418 361.569 362.238 354.205 358.068C351.444 356.464 348.551 355.662 345.395 355.662H344.738C336.98 355.662 330.011 359.671 323.962 367.531C321.201 371.22 318.702 375.55 316.598 380.683C314.889 384.692 313.574 389.023 312.654 393.674C312.259 395.759 311.865 398.165 311.602 400.892C311.47 401.373 311.47 401.854 311.47 402.335C311.339 402.817 311.339 403.298 311.339 403.779V405.864C311.339 406.803 311.384 407.577 311.421 408.218V408.218V408.219V408.219V408.22C311.448 408.673 311.47 409.06 311.47 409.393C311.602 410.195 311.733 411.157 311.865 412.28L311.865 412.28C311.996 413.403 312.128 414.525 312.391 415.488C312.522 416.289 312.785 417.091 313.048 417.573C313.969 417.573 314.363 418.375 314.363 419.176C314.363 419.337 314.363 419.658 314.232 419.978C313.969 420.941 313.443 421.422 312.917 421.422H312.522C311.865 421.422 311.207 420.941 310.681 420.46C310.611 420.332 310.551 420.215 310.495 420.107L310.493 420.104C310.338 419.806 310.216 419.572 310.024 419.337C309.831 419.102 309.709 418.782 309.555 418.375L309.554 418.375C309.498 418.226 309.437 418.065 309.366 417.893C308.577 415.808 308.051 412.921 307.92 408.911V405.223C307.92 404.456 307.957 403.734 307.992 403.058L307.992 403.057C308.023 402.461 308.051 401.899 308.051 401.373C308.103 401.06 308.134 400.699 308.169 400.298V400.298C308.223 399.671 308.286 398.948 308.446 398.165C308.629 397.272 308.748 396.457 308.848 395.773L308.849 395.771L308.849 395.77C308.892 395.473 308.932 395.2 308.972 394.957C311.733 381.164 317.256 369.776 325.146 361.275C330.011 356.303 335.533 353.416 341.451 352.454H344.475H347.499C347.845 352.524 348.14 352.564 348.407 352.599L348.408 352.599C348.75 352.645 349.045 352.685 349.34 352.775L350.918 353.256ZM494.64 401.213C494.377 401.213 494.114 401.373 493.851 401.694C493.719 401.854 493.588 402.015 493.457 402.336L493.325 402.496C492.536 403.779 491.353 405.383 489.775 407.308C487.145 410.516 484.646 412.921 482.148 414.365C481.929 414.484 481.715 414.602 481.504 414.719C480.576 415.233 479.718 415.707 478.861 415.969C476.625 416.771 474.39 416.771 472.549 415.969C469.262 414.686 467.026 411.478 465.974 406.345C465.711 405.223 465.58 403.939 465.449 402.656C465.449 402.21 465.42 401.729 465.39 401.213C465.355 400.617 465.317 399.976 465.317 399.288V398.005V396.241V394.797C465.317 394.316 465.186 393.835 465.054 393.354C464.66 392.552 464.134 392.071 463.476 392.071C463.213 392.071 462.95 392.071 462.819 392.231C462.293 392.391 461.898 392.872 461.767 393.514C461.241 393.033 460.583 392.712 459.794 392.712H459.4C459.137 392.712 458.874 392.712 458.479 392.872C458.348 392.926 458.231 392.979 458.114 393.033C457.88 393.14 457.647 393.247 457.296 393.354C455.324 394.637 453.746 397.043 452.825 400.411C452.787 400.598 452.737 400.798 452.686 401.005C452.563 401.506 452.431 402.041 452.431 402.496C451.773 403.298 450.984 404.1 450.195 404.902C449.012 406.025 447.96 406.987 447.171 407.628C444.936 409.393 442.569 410.195 440.465 410.195H439.676C436.389 409.874 434.022 407.949 432.312 404.26C432.231 404.161 432.15 404.001 432.037 403.779L432.037 403.778L432.036 403.777C431.967 403.641 431.886 403.481 431.786 403.298C431.616 402.987 431.501 402.676 431.371 402.323C431.299 402.128 431.222 401.921 431.129 401.694L431.008 401.361C430.541 400.078 430.178 399.078 429.814 398.486C429.419 397.845 429.025 397.203 428.63 396.722C426.658 394.476 424.423 394.797 421.924 397.845L421.004 399.609C420.811 399.844 420.619 400.165 420.375 400.571C420.285 400.72 420.189 400.881 420.083 401.052C418.768 403.138 417.454 406.345 416.007 410.516V410.034C415.876 407.949 415.744 405.864 415.744 403.779V400.411C415.744 399.128 415.744 398.005 415.876 397.043V395.92L416.007 395.76V395.599C416.031 395.57 416.055 395.535 416.08 395.496C416.112 395.446 416.144 395.39 416.18 395.329C416.27 395.173 416.379 394.985 416.533 394.797C420.083 389.023 423.108 381.004 425.475 371.22C425.628 370.659 425.736 369.99 425.852 369.275L425.853 369.272C425.936 368.761 426.022 368.226 426.132 367.691C426.231 367.146 426.312 366.647 426.388 366.176C426.513 365.4 426.626 364.701 426.79 364.002C426.921 363.2 426.921 362.238 426.921 361.275V359.832V358.709C426.527 355.983 425.343 355.02 424.423 354.86C423.371 354.539 422.319 354.699 421.135 355.662C419.952 356.624 418.9 358.068 417.98 360.153C416.27 363.681 414.955 368.172 413.903 373.465C413.114 378.117 412.457 383.409 412.325 389.184V393.193V398.967C412.325 400.892 412.325 402.175 412.457 402.817C412.518 403.487 412.551 404.088 412.581 404.652V404.653C412.617 405.303 412.649 405.904 412.72 406.506C412.325 408.11 411.931 409.393 411.536 410.676C411.01 412.44 410.353 414.365 409.564 416.29C406.277 424.79 402.858 429.762 399.439 431.206C399.045 431.366 398.65 431.366 398.124 431.366H397.73H396.809C396.152 431.206 395.626 430.885 395.1 430.404C390.76 426.555 388.131 418.214 387.079 405.383C387.079 405.062 387.079 404.581 386.947 403.779C386.947 403.138 386.947 402.336 386.816 401.694V398.647L387.21 398.165C388.156 397.012 388.995 395.599 389.92 394.043C390.023 393.869 390.128 393.692 390.235 393.514C392.996 387.9 395.494 381.645 397.467 374.588C399.045 368.653 399.834 364.323 399.834 360.955C399.834 356.303 398.124 355.02 396.809 354.539C394.968 354.058 393.127 355.341 391.155 358.228C389.314 361.115 387.605 365.125 386.158 370.097C384.186 377.315 383.265 385.815 383.265 395.439C383.265 397.845 383.265 399.93 383.397 401.694L383.43 402.135C383.551 403.777 383.682 405.542 383.923 407.308C384.712 415.006 386.158 421.422 388.131 426.234C390.235 431.206 392.864 434.093 395.889 435.055H396.02H397.072H397.861C398.256 435.055 398.782 435.055 399.308 434.895C402.726 433.612 406.014 429.923 408.907 423.668C409.301 422.866 409.827 421.743 410.353 420.46C410.578 419.911 410.779 419.363 410.966 418.852C411.216 418.168 411.442 417.551 411.668 417.092C412.194 415.648 412.72 414.204 413.114 412.761V412.921C413.246 413.884 413.377 414.686 413.509 415.167C413.64 415.808 413.903 416.29 414.166 416.45L414.298 416.61L415.087 417.092H415.218L415.35 417.412L415.481 417.092C415.635 417.092 415.744 417.036 415.834 416.991C415.898 416.959 415.953 416.931 416.007 416.931C416.347 416.793 416.492 416.416 416.61 416.109L416.611 416.106C416.629 416.058 416.647 416.012 416.665 415.969C416.796 415.648 417.059 415.006 417.322 414.044C418.637 409.874 419.952 406.506 421.267 404.26C423.371 400.411 424.554 399.93 425.08 399.93C425.08 399.93 425.343 399.93 425.606 400.571C425.893 401.038 426.18 401.76 426.569 402.736L426.701 403.068C426.728 403.137 426.756 403.207 426.785 403.278L426.838 403.41C426.906 403.581 426.978 403.757 427.053 403.939C427.71 405.704 428.367 407.147 428.893 408.11C429.419 409.072 430.077 410.034 430.734 410.676C432.312 412.601 434.285 413.723 436.652 414.365C441.122 415.488 445.856 413.884 450.327 409.393C450.59 409.152 450.853 408.871 451.116 408.591C451.379 408.31 451.642 408.029 451.905 407.789V408.11V410.034C451.905 411.317 452.299 412.601 452.825 414.204C453.746 416.45 454.929 416.771 455.718 416.771C457.427 416.771 459.005 414.686 460.452 410.516C460.715 409.874 460.978 408.912 461.24 407.95L461.241 407.949C461.257 407.889 461.274 407.829 461.29 407.77L461.325 407.646C461.35 407.556 461.375 407.468 461.4 407.381L461.401 407.377C461.606 406.652 461.794 405.988 461.898 405.223C463.739 414.204 467.421 419.337 472.944 420.46H474.127H475.179C475.705 420.46 476.231 420.46 476.757 420.299C480.439 419.658 484.252 417.412 487.934 413.723C489.117 412.601 490.432 411.157 491.616 409.393C492.931 407.789 493.982 406.185 494.771 404.741C495.166 404.1 495.429 403.619 495.429 403.138C495.692 401.694 495.297 401.213 494.64 401.213ZM456.112 412.44C455.718 411.959 455.455 410.997 455.455 409.714V408.912C455.455 408.488 455.492 408.065 455.526 407.665C455.557 407.308 455.587 406.969 455.587 406.666L455.587 406.666C455.718 406.024 455.85 405.383 455.981 404.581C456.77 401.694 457.69 399.449 459.005 398.005C459.531 397.203 459.926 397.203 460.057 397.203C460.189 397.203 460.452 397.203 460.583 398.005C460.583 398.02 460.584 398.035 460.587 398.051C460.587 398.056 460.588 398.062 460.589 398.067C460.595 398.102 460.605 398.139 460.617 398.183C460.656 398.326 460.715 398.54 460.715 398.967V400.09C460.682 400.25 460.649 400.431 460.612 400.634C460.501 401.243 460.353 402.055 460.057 403.138C459.86 403.859 459.663 404.541 459.465 405.223C459.268 405.905 459.071 406.586 458.874 407.308C457.69 410.997 456.77 412.28 456.244 412.761C456.244 412.554 456.244 412.481 456.209 412.455C456.194 412.443 456.172 412.441 456.142 412.44C456.133 412.44 456.123 412.44 456.112 412.44ZM424.686 360.955V361.757C424.423 366.408 423.108 372.342 420.741 379.72C419.294 383.891 417.848 387.58 416.139 390.787L416.27 389.985C416.27 389.745 416.303 389.544 416.336 389.344C416.369 389.143 416.402 388.943 416.402 388.702L416.533 386.457C416.704 384.687 416.93 383.119 417.14 381.667L417.14 381.665L417.14 381.664L417.14 381.664C417.253 380.88 417.361 380.13 417.454 379.4C417.717 377.315 418.111 375.229 418.637 372.984C420.083 366.408 421.661 361.757 423.502 359.19C423.897 358.709 424.028 358.549 424.16 358.549C424.423 358.549 424.686 359.19 424.686 360.955ZM397.73 359.672V360.634V361.596C397.73 362.077 397.73 362.559 397.598 363.04C397.598 363.421 397.516 364.002 397.416 364.705L397.416 364.706C397.39 364.891 397.363 365.085 397.335 365.285C396.546 369.937 395.1 375.39 392.996 381.164C392.075 383.73 390.892 386.457 389.709 389.023C388.657 391.269 387.736 393.033 386.947 394.476C386.947 394.173 386.977 393.871 387.007 393.551C387.042 393.193 387.079 392.815 387.079 392.391C387.21 390.467 387.342 388.702 387.473 387.098C387.999 381.164 389.051 375.39 390.366 370.257C392.207 363.521 394.179 359.511 396.152 358.068C396.283 357.907 396.415 357.907 396.546 357.907C396.678 357.907 396.809 357.907 396.809 358.068C397.072 358.228 397.204 358.709 397.335 359.351C397.598 359.351 397.73 359.511 397.73 359.672ZM616.797 395.92C618.112 395.278 619.032 395.439 619.953 396.241L620.61 395.92C620.873 396.401 621.005 396.882 621.005 397.203C621.005 397.524 620.873 397.845 620.742 398.165L620.479 398.486C620.084 398.807 619.295 398.967 618.638 398.807H618.375C617.849 398.807 617.323 399.128 616.797 399.93C615.219 402.015 613.773 405.704 612.458 411.317C612.458 411.698 612.375 411.978 612.276 412.317C612.25 412.406 612.222 412.5 612.195 412.6C612.063 413.082 611.932 413.402 611.8 413.563C611.274 414.525 610.617 414.846 610.222 414.846C609.959 414.846 609.696 414.846 609.565 414.686L609.433 414.525C609.393 414.477 609.342 414.428 609.285 414.375C609.155 414.253 608.999 414.107 608.907 413.884C608.644 413.563 608.513 413.242 608.381 412.921C608.25 412.6 608.118 412.119 607.987 411.478C606.803 416.129 605.488 420.46 604.042 423.988C601.938 429.121 599.703 432.489 597.204 433.932C596.678 434.253 596.284 434.414 595.889 434.574C595.706 434.574 595.495 434.609 595.268 434.646C595.007 434.688 594.725 434.734 594.443 434.734H594.312H593.391C593.128 434.734 592.865 434.734 592.602 434.574C592.076 434.414 591.55 434.093 591.024 433.772C590.367 433.451 589.972 433.13 589.446 432.649C585.239 428.64 582.477 420.299 580.768 406.987C580.11 401.373 579.716 395.278 579.716 388.702V384.532V380.843V379.079H579.584C579.081 379.079 578.501 379.173 577.784 379.289L577.784 379.289C577.564 379.324 577.332 379.362 577.086 379.4L576.297 379.56C571.432 380.362 566.567 381.324 562.096 382.287C561.855 382.36 561.641 382.4 561.442 382.437C561.208 382.481 560.994 382.521 560.781 382.607C560.649 383.57 560.386 384.853 560.123 386.136C560.071 386.433 560.021 386.716 559.974 386.986L559.933 387.219L559.926 387.257C559.64 388.878 559.443 389.996 559.334 390.787C559.203 392.07 559.203 392.391 559.203 392.552L559.334 392.712C559.346 392.754 559.357 392.794 559.369 392.833C559.375 392.855 559.381 392.877 559.387 392.898C559.403 392.952 559.419 393.004 559.434 393.054L559.438 393.068C559.527 393.365 559.597 393.6 559.597 393.835C559.597 394.156 559.597 394.476 559.466 394.797C559.334 395.118 558.94 395.759 558.019 395.759C557.625 395.759 556.968 395.599 556.442 394.637L556.31 394.316C556.179 394.156 556.179 393.835 556.179 393.514V392.712V392.07C556.179 391.75 556.179 391.429 556.31 390.948L556.968 388.061L558.019 383.249H557.888C557.362 383.249 556.968 383.249 556.705 382.928C556.179 382.447 555.916 381.966 555.916 381.485V381.164C555.916 380.522 556.179 380.041 556.573 379.56C556.836 379.4 557.099 379.239 557.362 379.239L558.677 379.079H558.808C560.386 371.059 561.175 364.644 561.175 360.153V358.709C560.912 354.379 559.86 351.331 558.019 349.888C556.047 348.284 553.154 348.284 549.604 349.727C543.818 351.973 537.901 356.945 531.852 364.162C525.935 371.54 522.122 378.758 520.675 385.494C520.653 385.632 520.63 385.765 520.608 385.894C520.503 386.517 520.412 387.048 520.412 387.579C520.281 388.221 520.281 388.863 520.281 389.504C520.281 392.07 520.938 394.156 522.122 395.92C523.174 397.363 524.883 398.807 527.119 399.769C528.434 400.411 530.011 401.052 531.852 401.533C533.693 402.015 536.192 402.656 539.347 403.298C545.002 404.421 549.604 405.543 552.76 406.506C555.916 407.628 558.808 408.911 561.307 410.355C561.741 410.62 562.135 410.884 562.489 411.122L562.49 411.123C562.78 411.317 563.043 411.494 563.279 411.638C563.664 411.873 564.049 412.194 564.537 412.6L564.539 412.602C564.717 412.75 564.909 412.91 565.12 413.082C565.651 413.47 566.181 413.962 566.642 414.391L566.643 414.392C566.753 414.494 566.86 414.593 566.961 414.686C567.487 415.167 568.013 415.808 568.539 416.45C571.037 419.818 572.352 423.828 572.352 427.998C572.352 431.366 571.432 435.216 569.854 439.065C568.276 442.914 565.909 446.603 563.016 450.132C557.625 456.387 552.234 459.595 547.237 459.755H546.448C546.054 459.595 545.791 459.595 545.659 459.595C542.766 458.953 540.925 456.868 540.268 453.661C540.136 452.859 540.136 451.896 540.136 451.094C540.136 445.962 542.24 439.707 546.448 432.649C550.919 425.432 555.916 419.658 561.175 415.487C558.414 413.563 554.732 411.799 550.13 410.515C548.815 410.195 547.369 409.874 545.791 409.553L545.482 409.49L545.002 409.391C543.497 409.082 541.525 408.676 539.084 408.27C538.399 408.136 537.743 408.009 537.115 407.888L537.113 407.888L537.11 407.887L537.109 407.887C534.726 407.427 532.755 407.047 531.195 406.666C529.223 406.185 527.645 405.704 526.33 405.222C520.15 402.817 516.599 398.646 515.81 392.552C515.679 391.91 515.679 391.108 515.679 390.467V389.183C515.679 388.542 515.679 387.74 515.81 387.259C516.468 382.607 518.309 377.475 521.07 372.182C524.752 365.446 529.485 359.351 535.271 354.058C542.24 347.803 548.289 344.755 553.417 344.755C556.442 344.755 558.808 345.717 560.518 347.803C562.227 349.727 563.279 352.454 563.674 356.143C563.674 356.485 563.698 356.856 563.725 357.282V357.283L563.725 357.285C563.762 357.856 563.805 358.524 563.805 359.351V362.879C563.542 365.927 563.148 369.616 562.49 373.786C562.416 374.418 562.3 375.05 562.19 375.653C562.104 376.122 562.022 376.573 561.964 376.994C561.833 377.475 561.701 378.116 561.57 378.918H561.701C562.205 378.918 562.939 378.824 563.845 378.708C564.123 378.673 564.417 378.635 564.726 378.598C565.908 378.437 567.057 378.277 568.206 378.117C569.358 377.956 570.51 377.796 571.695 377.635C572.236 377.558 572.762 377.48 573.272 377.405L573.274 377.404L573.28 377.403C574.874 377.168 576.318 376.955 577.612 376.833C578.122 376.764 578.535 376.695 578.871 376.639C579.313 376.564 579.623 376.513 579.847 376.513V376.352L579.979 375.229C580.11 374.748 580.11 374.267 580.11 373.625C580.242 371.22 580.373 368.974 580.505 366.889C580.658 365.578 580.767 364.486 580.857 363.58L580.858 363.572C580.922 362.93 580.976 362.382 581.031 361.917C581.162 360.955 581.294 360.313 581.557 359.511C581.603 359.369 581.646 359.237 581.686 359.113L581.686 359.112L581.686 359.111C581.871 358.538 581.998 358.142 582.214 357.747C583.266 355.982 584.45 355.662 585.633 356.624C586.159 357.266 586.29 357.747 586.29 358.068V358.709C586.29 359.03 586.29 359.671 586.159 360.473C586.159 361.436 586.027 362.559 585.896 363.521C585.834 363.978 585.742 364.507 585.634 365.125C585.515 365.81 585.377 366.604 585.239 367.531C585.107 368.252 585.008 368.974 584.91 369.696C584.811 370.418 584.713 371.139 584.581 371.861C584.388 372.919 584.266 373.891 584.163 374.714L584.162 374.718C584.125 375.016 584.09 375.294 584.055 375.55V376.031H584.318C587.211 375.711 590.63 375.55 594.443 375.39C598.256 375.229 603.779 375.069 611.011 374.909C612.277 374.909 613.353 374.85 614.21 374.804C614.776 374.774 615.247 374.748 615.613 374.748C616.315 374.748 616.782 374.677 617.094 374.629C617.25 374.606 617.367 374.588 617.454 374.588C617.98 374.427 618.243 374.427 618.506 374.427H618.901C619.295 374.588 619.69 374.909 619.953 375.39C619.96 375.415 619.967 375.441 619.974 375.465C619.983 375.499 619.993 375.532 620.002 375.565C620.02 375.624 620.037 375.682 620.053 375.737L620.056 375.745C620.145 376.043 620.216 376.278 620.216 376.513C620.216 376.994 620.084 377.796 619.164 378.277C618.901 378.437 618.638 378.437 618.506 378.437H617.849C617.323 378.277 616.665 378.116 616.008 378.116C615.35 377.956 614.298 377.956 612.852 377.956H606.672C604.476 377.956 602.484 378.006 600.718 378.05L600.716 378.05C599.311 378.085 598.049 378.116 596.941 378.116C594.443 378.277 591.813 378.437 589.183 378.598C588.394 378.598 587.474 378.598 586.553 378.758C585.966 378.758 585.461 378.808 585.014 378.852L585.013 378.852C584.661 378.887 584.345 378.918 584.055 378.918H583.529C583.529 379.4 583.529 379.72 583.398 380.362C582.872 385.815 582.609 390.948 582.609 395.759C582.609 398.326 582.74 400.892 582.872 403.298C583.924 417.252 586.422 426.554 590.498 430.885C592.076 432.329 593.654 432.97 595.232 432.329C596.021 432.008 596.941 431.366 597.73 430.243C599.966 427.517 602.201 422.865 604.174 416.289C604.831 414.365 605.357 412.6 605.751 410.836C605.911 410.059 606.118 409.165 606.344 408.188C606.492 407.552 606.648 406.881 606.803 406.185C606.735 405.684 606.702 405.182 606.668 404.659C606.636 404.177 606.603 403.675 606.54 403.137C606.409 402.496 606.409 401.854 606.409 401.052V399.288V398.005C606.54 397.203 606.54 396.722 606.54 396.401C606.672 395.439 606.935 394.797 607.329 394.316C607.987 393.354 609.039 393.033 609.959 393.674C610.88 394.156 611.011 395.599 611.011 396.08C611.143 396.401 611.143 396.882 611.143 397.203C611.143 397.524 611.143 398.005 611.011 398.646C611.011 399.178 610.921 399.929 610.815 400.809L610.815 400.81L610.815 400.814L610.813 400.826C610.792 401.003 610.77 401.186 610.748 401.373C610.617 403.619 610.485 405.864 610.485 407.628V408.11C611.537 404.26 612.852 401.213 614.167 399.128C614.43 398.647 614.955 398.005 615.481 397.364L615.482 397.363L615.482 397.363C616.008 396.721 616.402 396.241 616.797 395.92ZM542.766 452.859C542.766 453.179 542.898 453.5 543.161 453.981C543.687 455.264 544.476 455.906 545.659 456.227C546.33 456.46 546.651 456.439 547.082 456.41C547.242 456.399 547.417 456.387 547.632 456.387C549.998 456.066 552.497 454.783 555.258 452.538C557.362 450.613 559.466 448.368 561.307 445.801C564.068 441.792 566.172 437.621 567.224 433.291C567.618 431.527 567.881 429.762 567.881 427.998V427.356C567.881 426.394 567.75 425.593 567.619 424.791L567.618 424.79C567.487 424.149 567.224 423.186 566.829 422.384C566.041 420.299 564.726 418.535 563.016 416.931C562.795 417.021 562.615 417.162 562.406 417.325C562.243 417.452 562.063 417.592 561.833 417.733C561.701 417.853 561.569 417.964 561.44 418.069C561.374 418.122 561.31 418.174 561.246 418.225C560.929 418.478 560.632 418.716 560.386 419.016C555.127 423.988 550.656 429.923 546.843 436.659C545.002 440.348 543.687 443.716 543.029 446.924C542.766 447.726 542.635 448.368 542.635 448.849V450.292V451.094C542.635 451.586 542.684 452.017 542.722 452.351C542.747 452.562 542.766 452.734 542.766 452.859ZM629.42 384.051C629.512 384.275 629.667 384.42 629.798 384.542L629.798 384.543C629.855 384.596 629.906 384.644 629.946 384.692C630.078 384.773 630.176 384.853 630.275 384.933C630.373 385.013 630.472 385.093 630.604 385.174H630.735C630.801 385.174 630.899 385.214 630.998 385.254C631.097 385.294 631.195 385.334 631.261 385.334C631.787 385.334 632.313 385.174 632.708 384.692C633.102 384.372 633.496 383.73 633.496 382.607C633.496 382.287 633.496 381.805 633.365 381.485C633.233 381.164 633.102 380.843 632.839 380.522C632.445 380.041 631.919 379.881 631.393 379.881H630.735C630.341 379.881 629.815 380.362 629.552 381.003C629.486 381.084 629.42 381.204 629.354 381.324C629.289 381.445 629.223 381.565 629.157 381.645C629.157 381.665 629.155 381.687 629.152 381.712C629.143 381.769 629.127 381.838 629.108 381.915C629.071 382.071 629.026 382.259 629.026 382.447C629.026 382.768 629.026 383.089 629.157 383.249C629.157 383.484 629.228 383.633 629.317 383.821C629.35 383.89 629.385 383.965 629.42 384.051ZM867.554 401.373H868.08V402.336C868.08 402.416 868.047 402.536 868.014 402.656C867.981 402.777 867.948 402.897 867.948 402.977C867.867 403.076 867.836 403.237 867.793 403.458C867.767 403.595 867.736 403.756 867.685 403.939C867.685 404.21 867.602 404.53 867.506 404.902C867.432 405.192 867.349 405.512 867.291 405.864C867.159 406.025 867.159 406.185 867.159 406.345C865.319 413.563 863.609 419.337 861.9 423.668C859.007 430.404 855.588 434.093 851.775 434.414H851.643H850.986H850.591H850.46C848.356 433.933 846.515 432.649 844.937 430.404C843.359 427.998 841.913 424.79 840.861 420.78C839.94 417.412 839.283 413.563 838.888 409.072C837.968 412.601 837.048 414.846 835.996 415.969C835.338 416.771 834.681 417.091 833.76 417.091C832.708 417.091 831.788 416.45 830.999 415.327C830.078 413.723 829.552 412.119 829.421 410.515C829.39 410.177 829.359 409.857 829.33 409.554C829.235 408.564 829.158 407.761 829.158 407.147V406.506C828.961 406.666 828.797 406.786 828.632 406.907C828.468 407.027 828.303 407.147 828.106 407.308C822.715 411.317 817.587 413.402 813.116 413.402H811.932C807.593 412.921 804.043 410.355 801.544 406.025C801.471 405.844 801.355 405.664 801.222 405.456C801.118 405.293 801.002 405.113 800.887 404.902L800.098 403.458C799.309 401.854 798.915 401.213 798.783 401.052C798.52 400.732 798.257 400.732 798.257 400.732C797.863 400.732 797.337 400.892 796.548 401.854C794.97 403.619 793.26 406.987 791.551 411.638C791.157 412.921 790.762 413.884 790.499 414.525C790.105 415.327 789.842 415.808 789.579 416.129C789.184 416.45 788.79 416.61 788.395 416.61C788.132 416.61 787.869 416.61 787.738 416.45C787.672 416.37 787.573 416.29 787.475 416.209C787.376 416.129 787.278 416.049 787.212 415.969C786.686 415.167 785.897 413.563 785.502 407.789C785.371 408.109 785.239 408.27 784.977 408.59L784.976 408.591C783.793 410.355 782.478 411.799 781.295 412.921C777.613 416.61 773.799 418.856 770.118 419.497C769.592 419.658 769.066 419.658 768.54 419.658H767.488H766.304C760.782 418.535 757.1 413.402 755.259 404.421C755.154 405.186 754.966 405.851 754.761 406.575C754.709 406.761 754.655 406.951 754.602 407.147C754.339 408.11 754.076 409.072 753.813 409.714C752.366 413.884 750.788 415.969 749.079 415.969C748.29 415.969 747.106 415.648 746.186 413.402C746.186 413.322 746.153 413.242 746.12 413.162C746.087 413.082 746.055 413.002 746.055 412.921C745.66 414.204 745.266 415.488 744.74 416.771C744.557 417.217 744.373 417.698 744.177 418.214C743.951 418.809 743.707 419.451 743.425 420.139C743.149 420.744 742.92 421.264 742.717 421.723C742.437 422.361 742.207 422.881 741.978 423.347C739.085 429.602 735.798 433.291 732.379 434.574C731.853 434.734 731.327 434.734 730.933 434.734H730.144H729.092H728.96C725.936 433.772 723.306 430.885 721.202 425.913C719.23 421.101 717.784 414.686 716.995 406.987V406.666C715.811 407.949 714.496 409.072 713.182 410.194L713.181 410.195C710.025 412.44 706.607 413.563 702.925 413.563H702.53C700.163 413.563 698.06 412.761 696.219 411.157C695.561 410.836 695.035 410.355 694.641 409.714C694.246 409.232 693.72 408.591 693.326 407.789C692.668 409.874 692.142 412.119 691.748 414.365C691.353 416.45 691.09 418.375 691.09 419.979C691.09 420.243 691.051 420.46 691.015 420.654C690.985 420.813 690.959 420.957 690.959 421.101C690.959 421.422 690.827 421.743 690.564 422.064C690.433 422.224 690.17 422.545 689.776 422.545H689.644C689.25 422.545 688.855 422.384 688.592 422.064L688.198 421.582C688.116 421.582 688.085 421.521 688.042 421.437C688.016 421.384 687.985 421.323 687.935 421.262L687.803 421.101C687.596 420.469 687.389 419.439 687.117 418.089C687.044 417.726 686.966 417.339 686.883 416.931C686.488 415.006 686.225 412.921 686.094 410.997C685.962 409.874 685.831 408.591 685.831 407.468C685.042 408.43 684.121 409.553 683.201 410.515C681.36 412.601 679.388 414.365 677.547 415.648C673.602 418.535 669.92 419.979 666.633 419.979H665.581C660.716 419.337 657.428 416.129 655.85 410.676C655.587 409.393 655.324 408.11 655.193 406.826C653.22 409.072 651.248 410.997 649.539 412.44C646.514 414.846 643.358 416.29 640.203 416.931C639.94 417.091 639.545 417.091 639.151 417.091H637.573C637.047 417.091 636.652 417.091 636.389 416.931C632.576 416.29 629.946 413.563 628.237 408.912C627.579 406.826 627.185 404.741 626.922 402.496V400.732V399.769C626.972 399.279 627.003 398.859 627.03 398.501C627.073 397.92 627.104 397.5 627.185 397.203C627.448 395.759 627.974 394.637 628.763 394.156C629.42 393.835 629.946 393.835 630.472 394.156C630.998 394.316 631.393 394.797 631.524 395.439C631.656 395.599 631.656 395.92 631.656 396.08C631.656 396.16 631.623 396.281 631.59 396.401C631.557 396.521 631.524 396.642 631.524 396.722C631.524 396.866 631.498 397.01 631.468 397.169C631.432 397.363 631.393 397.58 631.393 397.845C631.13 398.967 630.998 399.769 630.998 400.411C630.998 400.714 630.969 401.017 630.938 401.336C630.903 401.694 630.867 402.073 630.867 402.496V403.298C630.867 406.987 631.787 409.874 633.365 411.799C634.548 413.242 635.995 414.044 637.967 414.204H638.756C641.912 414.204 645.199 412.761 648.881 409.874C650.985 408.11 653.22 405.864 655.456 403.298C655.587 401.213 655.982 399.128 656.771 397.043C657.823 394.476 659.138 392.712 660.716 391.75C660.847 391.67 661.011 391.589 661.176 391.509C661.34 391.429 661.505 391.349 661.636 391.269C662.03 391.108 662.293 391.108 662.688 391.108C664.134 391.108 665.844 392.07 666.238 396.08V396.882C666.238 397.684 666.238 398.647 665.975 399.769C665.844 400.571 665.712 401.052 665.449 401.373C665.318 401.534 665.055 401.854 664.66 401.854C664.397 401.854 664.134 401.694 663.871 401.534C663.608 401.373 663.477 401.052 663.477 400.571V399.448C663.477 399.128 663.477 398.807 663.608 398.326C663.628 398.209 663.647 398.095 663.666 397.983C663.776 397.333 663.871 396.765 663.871 396.08V395.759C663.871 394.797 663.871 394.316 663.74 394.156C663.74 393.995 663.608 393.995 663.608 393.995C663.608 393.995 663.082 393.995 662.293 395.599C661.373 397.524 660.716 399.448 660.453 401.213C660.19 403.137 660.058 404.581 660.058 405.704C660.058 406.826 660.19 407.949 660.321 408.912C660.847 411.959 662.03 413.884 664.134 415.167C665.186 415.808 666.37 416.129 667.685 416.129H668.211C670.052 416.129 672.155 415.488 674.391 414.365C678.467 411.959 682.543 408.27 686.225 403.298V398.647V394.797C686.751 381.485 688.461 371.059 691.485 363.521C692.537 360.955 693.72 358.87 694.904 357.426C696.087 355.983 697.271 355.181 698.454 355.181C699.243 355.181 700.821 355.501 701.347 358.228C701.478 358.709 701.478 359.35 701.478 360.312V360.313V362.719C700.689 369.135 698.323 377.315 694.509 386.938C692.8 391.429 691.353 394.476 690.039 396.241V396.561C689.907 396.722 689.907 397.203 689.907 398.326L689.776 403.137C689.776 406.666 689.907 409.874 690.039 412.601C690.433 410.836 690.827 409.072 691.353 407.308C692.405 403.458 693.72 399.769 695.167 396.722C696.745 393.514 698.191 391.269 699.506 389.825C700.426 389.023 701.084 388.702 701.741 388.702C702.136 388.702 703.056 389.023 703.582 390.306C703.582 390.467 703.714 390.627 703.714 390.787C703.845 390.948 703.845 391.269 703.845 391.429V392.231C703.714 394.156 703.056 396.401 701.741 398.807C700.952 400.25 700.032 401.694 698.849 402.977C697.797 404.1 696.745 405.062 695.693 405.864L695.824 406.025L696.35 406.826L696.745 407.308C697.928 408.751 699.506 409.714 701.347 410.195C702.399 410.515 703.845 410.515 705.292 410.355C706.738 410.195 708.185 409.714 709.499 409.232C711.077 408.43 712.787 407.308 714.496 405.704C714.825 405.383 715.121 405.062 715.417 404.742C715.712 404.421 716.008 404.1 716.337 403.779L716.863 403.137C716.863 402.817 716.83 402.456 716.797 402.095C716.764 401.734 716.732 401.373 716.732 401.052C716.6 399.128 716.6 397.043 716.6 394.797C716.6 385.174 717.521 376.673 719.493 369.455C720.939 364.483 722.649 360.473 724.49 357.586C726.462 354.699 728.303 353.416 730.144 353.897C731.459 354.379 733.168 355.662 733.168 360.313C733.168 363.521 732.379 368.172 730.801 373.946C728.829 381.004 726.331 387.259 723.569 392.872C723.463 393.051 723.358 393.228 723.254 393.403C722.33 394.958 721.49 396.37 720.545 397.524L720.15 398.005V401.052C720.282 401.854 720.282 402.656 720.282 403.298C720.413 404.1 720.413 404.581 720.413 404.902C721.465 417.733 724.095 426.234 728.171 429.923C728.697 430.404 729.223 430.725 729.881 430.885H730.801H731.196C731.722 430.885 732.116 430.885 732.511 430.725C735.93 429.281 739.348 424.309 742.636 415.808C743.425 413.884 744.082 411.959 744.608 410.195C744.871 409.393 745.134 408.43 745.397 407.308V406.826C745.397 404.741 745.66 402.656 746.186 400.571C747.106 397.203 748.684 394.797 750.657 393.514C751.007 393.407 751.241 393.3 751.475 393.193C751.592 393.14 751.709 393.086 751.84 393.033C752.235 392.872 752.498 392.872 752.761 392.872H753.155C753.944 392.872 754.602 393.193 755.128 393.674C755.259 393.033 755.653 392.552 756.179 392.391C756.311 392.231 756.574 392.231 756.837 392.231C757.494 392.231 758.02 392.712 758.415 393.514C758.546 393.995 758.678 394.476 758.678 394.958V396.401V398.165V399.448C758.678 400.136 758.716 400.778 758.751 401.373C758.781 401.889 758.809 402.37 758.809 402.817L758.809 402.818C758.941 404.101 759.072 405.383 759.335 406.506C760.387 411.638 762.623 414.846 765.91 416.129C767.751 416.931 769.986 416.931 772.222 416.129C773.079 415.868 773.936 415.393 774.865 414.879C775.076 414.763 775.29 414.644 775.509 414.525C778.007 413.082 780.506 410.676 783.135 407.468C784.187 406.345 784.976 405.223 785.634 404.26V401.052C785.634 400.09 785.634 399.288 785.765 398.647C786.291 395.599 787.475 394.958 788.527 394.958H788.79C789.447 395.118 789.973 395.599 790.368 396.241C790.418 396.363 790.468 396.462 790.511 396.547C790.58 396.684 790.631 396.783 790.631 396.882V397.363V397.845C790.631 398.165 790.631 398.486 790.499 398.967C790.368 399.448 790.236 400.09 790.105 400.892C789.973 401.052 789.973 401.213 789.973 401.373C789.579 404.421 789.316 406.987 789.316 409.393C789.316 409.794 789.349 410.195 789.381 410.596C789.414 410.997 789.447 411.398 789.447 411.799C789.615 411.492 789.782 411.055 789.984 410.529C790.099 410.23 790.225 409.902 790.368 409.553C792.208 404.741 793.786 401.534 795.364 399.769C797.337 397.203 799.441 396.722 801.281 398.486C801.544 398.646 801.807 398.967 802.07 399.288L802.07 399.288C802.263 399.523 802.456 399.844 802.7 400.251C802.789 400.399 802.885 400.56 802.991 400.732C803.175 401.031 803.359 401.4 803.569 401.822C803.81 402.306 804.086 402.859 804.437 403.458C806.41 407.308 808.908 409.553 812.195 410.195C812.721 410.355 813.379 410.355 814.299 410.355C815.22 410.355 816.009 410.355 816.535 410.195C819.165 409.714 821.926 408.591 824.819 406.826C826.66 405.704 828.369 404.421 829.684 403.137C829.684 402.977 829.717 402.817 829.75 402.656C829.783 402.496 829.815 402.336 829.815 402.175C830.473 399.128 831.656 396.722 833.366 395.118C834.418 394.156 835.47 393.674 836.522 393.674C836.785 393.674 837.179 393.674 837.442 393.835C837.837 393.995 838.231 394.156 838.625 394.476V393.995V393.835C839.283 382.287 841.255 372.342 844.411 364.483C845.595 361.757 846.778 359.511 847.961 358.068C849.408 356.303 850.854 355.341 852.301 355.341H852.695C853.484 355.341 854.142 355.822 854.799 356.464C855.72 357.747 856.246 359.672 856.246 362.398C856.246 364.162 856.114 366.087 855.72 368.333C854.142 377.154 851.117 385.494 847.041 392.872C845.2 395.92 843.754 397.845 842.439 398.647V399.448V401.213V401.373V401.694V403.137C842.439 411.959 843.622 419.177 845.858 424.79C846.515 426.394 847.304 427.677 847.961 428.64C848.356 429.281 848.882 429.762 849.276 430.083C849.436 430.148 849.596 430.239 849.765 430.336C850.012 430.477 850.278 430.629 850.591 430.725C850.854 430.885 850.986 430.885 851.117 430.885H851.775H852.038H852.827C852.827 430.885 852.958 430.885 853.221 430.725C854.405 430.244 855.457 429.442 856.377 428.158C858.086 426.073 859.796 422.866 861.242 418.535C861.9 416.61 862.689 414.204 863.478 411.638C864.116 409.562 864.668 407.381 865.204 405.264C865.33 404.765 865.456 404.269 865.582 403.779C865.713 403.298 865.845 402.817 865.976 402.496C866.107 402.336 866.108 402.336 866.108 402.175V402.015L866.371 401.694C866.633 401.213 867.159 401.213 867.554 401.373ZM854.047 361.048C854.026 360.877 854.01 360.746 854.01 360.634C853.616 359.351 853.353 359.03 853.221 359.03H852.958C852.892 359.03 852.827 359.07 852.761 359.11C852.695 359.15 852.63 359.19 852.564 359.19C852.038 359.511 851.117 360.634 849.671 363.842C848.487 366.568 847.436 369.776 846.384 373.305C844.543 379.881 843.359 387.098 842.702 394.797C843.359 393.995 844.017 393.033 844.806 391.75C845.989 389.825 847.041 387.9 848.093 385.655C851.249 378.598 853.221 371.54 854.01 364.964C854.142 364.483 854.142 363.842 854.142 363.2V362.559C854.142 361.827 854.086 361.368 854.047 361.048ZM834.155 413.082H834.286C834.944 412.761 836.39 410.836 837.968 402.977L838.362 401.213V399.769C838.362 398.486 838.231 397.845 838.1 397.524C837.968 397.203 837.837 397.043 837.705 397.043H837.442C837.048 397.043 836.522 397.524 835.864 398.647C834.812 400.732 834.023 403.298 833.497 406.185C833.497 406.506 833.464 406.827 833.432 407.147C833.399 407.468 833.366 407.789 833.366 408.11V409.393V410.676C833.497 411.478 833.629 412.119 833.892 412.601C834.023 413.082 834.155 413.082 834.155 413.082ZM749.079 409.714C749.079 410.997 749.342 411.959 749.736 412.44C749.868 412.44 749.868 412.44 749.868 412.761C750.394 412.28 751.314 410.997 752.498 407.308C752.695 406.586 752.892 405.904 753.089 405.223C753.287 404.541 753.484 403.859 753.681 403.137C753.977 402.055 754.125 401.243 754.236 400.634C754.273 400.431 754.306 400.25 754.339 400.09V398.967C754.339 398.54 754.28 398.326 754.241 398.183C754.222 398.112 754.207 398.058 754.207 398.005C754.076 397.203 753.813 397.203 753.681 397.203C753.55 397.203 753.155 397.203 752.629 398.005C751.314 399.448 750.394 401.694 749.605 404.581C749.473 405.383 749.342 406.025 749.21 406.666C749.21 406.969 749.181 407.308 749.15 407.665C749.115 408.065 749.079 408.488 749.079 408.912V409.714ZM731.064 360.634V359.672C731.029 359.629 731.003 359.586 730.979 359.546C730.914 359.437 730.862 359.351 730.67 359.351C730.538 358.709 730.407 358.228 730.144 358.068C730.144 357.907 730.012 357.907 729.881 357.907C729.749 357.907 729.618 357.907 729.486 358.068C727.514 359.511 725.542 363.521 723.701 370.257C722.386 375.39 721.334 381.164 720.808 387.098C720.676 388.702 720.545 390.467 720.413 392.391C720.413 392.815 720.377 393.193 720.342 393.551C720.311 393.871 720.282 394.173 720.282 394.476C721.071 393.033 721.991 391.269 723.043 389.023C724.227 386.457 725.41 383.73 726.331 381.164C728.434 375.39 729.881 369.937 730.67 365.285C730.697 365.084 730.725 364.89 730.751 364.704C730.851 364.002 730.933 363.42 730.933 363.04C731.064 362.559 731.064 362.077 731.064 361.596V360.634ZM698.191 398.486C698.849 397.524 699.375 396.401 699.9 395.118C700.163 394.156 700.426 393.514 700.689 393.033C699.9 393.835 698.717 395.439 697.271 398.486C696.958 398.867 696.729 399.449 696.451 400.152C696.378 400.337 696.301 400.531 696.219 400.732C696.219 400.812 696.186 400.852 696.153 400.892C696.12 400.932 696.087 400.972 696.087 401.052L696.745 400.25L698.191 398.486ZM699.375 360.473C699.375 360.153 699.243 359.832 699.112 359.672C699.112 359.511 698.98 359.351 698.98 359.511C698.98 359.511 698.717 359.511 698.191 360.153C697.665 360.794 697.008 361.596 696.482 362.879L696.481 362.882C695.955 364.164 695.429 365.447 694.904 366.889C692.8 373.465 691.353 381.485 690.433 390.948C692.931 385.655 694.904 380.362 696.613 374.909C698.323 369.455 699.243 365.125 699.375 362.077V361.436V360.473Z" fill="#604536"/>
</svg>
