<svg width="18" height="18" viewBox="0 0 18 18" fill="none" xmlns="http://www.w3.org/2000/svg">
<g opacity="0.5">
<path d="M9.075 15.6C8.7 15.6 8.25 15.45 7.95 15.15C3.075 10.875 3 10.8 3 10.725L2.925 10.65C2.025 9.75 1.5 8.475 1.5 7.2V7.05C1.575 4.35 3.75 2.25 6.45 2.25C7.275 2.25 8.4 2.7 9.075 3.6C9.75 2.7 10.95 2.25 11.775 2.25C14.475 2.25 16.575 4.35 16.725 7.05V7.2C16.725 8.55 16.2 9.75 15.3 10.725L15.225 10.8C15.15 10.875 14.55 11.4 10.275 15.225C9.9 15.45 9.525 15.6 9.075 15.6ZM4.125 10.5C4.425 10.8 5.925 11.85 8.7 14.25C8.925 14.475 9.225 14.475 9.45 14.25C12.3 11.7 13.95 10.275 14.325 9.975L14.4 9.9C15.15 9.15 15.525 8.175 15.525 7.2V7.05C15.45 4.95 13.8 3.375 11.7 3.375C11.175 3.375 10.125 3.75 9.75 4.575C9.6 4.875 9.3 5.025 9 5.025C8.7 5.025 8.4 4.875 8.25 4.575C7.875 3.825 6.9 3.375 6.3 3.375C4.275 3.375 2.55 5.025 2.475 7.05V7.275C2.475 8.25 2.925 9.225 3.6 9.9L4.125 10.5Z" fill="#141511" stroke="#141511" stroke-width="0.6"/>
</g>
</svg>
