<svg width="981" height="134" viewBox="0 0 981 134" fill="none" xmlns="http://www.w3.org/2000/svg">
<path d="M118.804 105.001C117.447 105.001 116.544 104.326 115.866 102.967C115.3 101.612 114.963 99.9116 114.738 97.7678C114.625 95.7298 114.513 93.4699 114.513 90.8686C114.513 88.3834 114.4 85.8948 114.288 83.5223C113.95 78.767 112.935 74.9265 111.237 72.2126C109.659 69.386 107.853 67.2354 105.822 65.8801C103.79 64.4088 101.759 63.5076 99.7243 63.0536C97.693 62.5995 96.224 62.3776 94.98 62.3776L94.8675 61.8075C96.6739 60.4557 97.8054 58.6464 98.4837 56.4924C99.046 54.3451 99.4993 50.9519 99.6118 46.3194C99.7243 44.6194 99.8368 42.6975 99.8368 40.4376C99.9492 38.1777 100.062 35.911 100.287 33.8764C100.624 31.8418 101.074 30.0325 101.643 28.6773C102.321 27.2025 103.109 26.5266 104.353 26.5266C105.028 26.5266 105.365 26.7519 105.481 27.3186C105.597 27.7726 105.597 28.3359 105.597 28.9026C105.597 29.5819 105.597 30.1452 105.368 30.7085C105.143 31.1625 105.031 31.7292 104.806 32.2924C104.806 32.743 104.694 33.0878 104.694 33.4224C104.694 33.7672 104.694 34.2144 104.694 34.5557C104.694 36.4777 105.259 38.2904 106.5 40.0962C107.744 41.9089 109.663 42.8101 112.26 42.8101C114.969 42.8101 117.001 41.7894 118.357 39.6422C119.823 37.3789 120.501 34.8937 120.501 32.0637C120.501 30.9338 120.276 29.6877 119.935 28.3325C119.485 26.9772 118.92 25.7312 118.016 24.5979C117.226 23.4679 116.098 22.5667 114.629 21.7747C113.276 20.9827 111.466 20.6414 109.434 20.6414C107.178 20.6414 105.256 20.9827 103.678 21.6621C102.209 22.4506 100.852 23.6932 99.9526 25.7312C98.937 27.6532 98.2587 30.2544 97.693 33.6443C97.1272 36.9249 96.7898 41.1067 96.5648 46.3126C96.5648 49.8185 96.224 52.6417 95.7741 54.6797C95.2083 56.7143 94.646 58.2948 93.7428 59.3155C92.9555 60.3328 91.9364 61.0087 90.8083 61.3501C89.7926 61.572 88.4361 61.6949 87.0831 61.6949H82.1138V24.6013H90.0176V21.6655H62.922H60.0999H43.0519V24.6013H44.2925C44.6333 24.6013 45.0832 24.6013 45.7614 24.7174C46.4362 24.7174 47.1145 24.9427 47.7927 25.3967C48.5835 25.7346 49.2617 26.414 49.8241 27.2025C50.2773 28.1072 50.6148 29.2371 50.6148 30.9338C50.6148 31.2751 50.5023 32.1798 50.3898 33.6477C50.2774 35.0063 49.7116 37.3789 48.6959 40.7755L39.3232 74.7012L21.9377 24.5979H28.9383V21.6621H0.141953V24.5979H6.01096L31.1877 96.6344C30.397 99.123 29.4938 100.932 28.4782 102.291C27.575 103.53 26.5593 104.664 25.6561 105.343C24.7529 106.022 23.8498 106.473 22.9466 106.698C22.0434 106.811 21.2527 106.923 20.5778 106.923C18.3182 106.923 16.5118 106.469 15.4961 105.568C14.368 104.664 13.8022 103.872 13.8022 103.08C13.8022 102.626 14.0272 102.291 14.368 101.95C14.8179 101.608 15.2712 101.383 15.837 101.042C16.2868 100.816 16.8492 100.478 17.415 100.253C17.9807 100.028 18.5431 99.6863 18.993 99.3484C19.6747 98.7817 20.462 97.877 21.2527 96.631C22.0434 95.3918 22.3808 93.8045 22.3808 91.6606C22.3808 88.6053 21.5935 86.2294 20.0121 84.5294C18.3148 82.8396 16.5118 81.9315 14.4771 81.9315C12.2174 81.9315 10.1861 82.8395 8.3797 84.7581C6.57673 86.68 5.67355 89.2813 5.67355 92.6677C5.67355 94.931 6.12344 97.1977 6.80168 99.2323C7.59239 101.38 8.60805 103.189 9.96454 104.66C11.3176 106.241 12.9024 107.487 14.7054 108.395C16.5118 109.409 18.4306 109.863 20.5778 109.863C23.0625 109.863 25.2062 109.183 27.0126 107.941C28.819 106.695 30.4004 104.998 31.7569 102.963C33.11 100.813 34.354 98.2116 35.3697 95.3884C36.3853 92.4458 37.401 89.2813 38.5325 85.888L53.6583 35.1156C54.2241 32.9615 55.1273 31.043 56.2554 29.1211C57.2711 27.3118 59.5273 25.7278 62.9151 24.5945H67.7719V105.79H60.0931V108.729H90.0108V105.79H82.107V64.6341H87.867C90.3482 64.6341 92.2704 65.1974 93.6235 66.2147C94.9766 67.348 95.9922 68.7033 96.783 70.516C97.4612 72.3253 97.9145 74.4759 98.2519 76.7324C98.4769 78.9923 98.7018 81.4843 98.8177 83.9729C99.271 88.9467 99.6084 93.1285 100.058 96.4091C100.508 99.6897 101.186 102.294 101.977 104.216C102.768 106.138 103.896 107.494 105.362 108.282C106.83 109.187 108.637 109.637 111.121 109.866C111.912 109.979 112.815 109.979 113.719 109.866C114.734 109.641 115.975 109.303 117.672 108.736C119.366 108.173 120.944 107.152 122.297 105.797L121.169 103.875C120.382 104.667 119.591 105.001 118.804 105.001Z" fill="#E8E1D6"/>
<path d="M249.204 11.8236C250.219 10.5776 250.782 8.99701 250.782 6.96243C250.782 5.26239 250.557 4.01979 249.878 3.11856C249.313 2.21392 248.522 1.53459 247.735 1.19663C246.947 0.74602 246.266 0.517299 245.475 0.404645C244.797 0.404645 244.343 0.291992 244.006 0.291992C243.894 0.291992 243.44 0.404645 242.653 0.404645C241.862 0.520712 241.071 0.74602 240.277 1.19663C239.49 1.53459 238.812 2.21392 238.134 3.11856C237.455 4.0232 237.118 5.2658 237.118 6.96243C237.118 8.88436 237.684 10.4649 238.924 11.8236C240.052 13.0662 241.746 13.7455 244.006 13.7455C246.378 13.7455 248.072 13.0696 249.204 11.8236Z" fill="#E8E1D6"/>
<path d="M239.943 24.6011H247.735V105.797H239.943V108.736H269.977V105.797H262.073V24.6011H269.977V21.6653H239.943V24.6011Z" fill="#E8E1D6"/>
<path d="M269.636 1.19663C268.845 0.74602 268.058 0.517299 267.376 0.404645C266.589 0.404645 266.136 0.291992 265.911 0.291992C265.798 0.291992 265.345 0.404645 264.558 0.404645C263.77 0.520712 262.98 0.74602 262.189 1.19663C261.398 1.53459 260.72 2.21392 260.045 3.11856C259.367 4.0232 259.03 5.2658 259.03 6.96243C259.03 8.88436 259.595 10.4649 260.723 11.8236C261.967 13.0662 263.658 13.7455 265.918 13.7455C268.29 13.7455 269.984 13.0662 271.112 11.8236C272.243 10.5776 272.806 8.99701 272.806 6.96243C272.806 5.26239 272.468 4.01979 271.899 3.11856C271.217 2.21392 270.427 1.53459 269.636 1.19663Z" fill="#E8E1D6"/>
<path d="M180.895 36.4741C179.992 33.5382 178.411 31.0462 176.267 28.7863C174.12 26.6391 171.185 24.9459 167.572 23.5906C163.96 22.3446 159.444 21.6687 154.025 21.6687H124.782V24.6045H132.57V105.8H124.782V108.739H155.715V105.8H146.912V71.5297H153.571C163.057 71.5297 170.282 69.6077 175.023 65.5386C179.767 61.5787 182.248 54.9116 182.248 45.6365C182.252 42.472 181.799 39.4133 180.895 36.4741ZM165.994 49.3677C165.994 54.0036 165.657 57.5129 164.979 60.1073C164.301 62.7086 163.285 64.6305 162.041 65.8731C160.8 67.2284 159.219 67.9111 157.412 68.2491C155.606 68.471 153.687 68.587 151.54 68.587H146.912V24.6011H152.443C155.606 24.6011 157.975 25.0551 159.897 25.7345C161.703 26.5264 163.057 27.5471 163.96 28.9024C164.863 30.2577 165.429 31.8416 165.654 33.6475C165.879 35.5694 165.991 37.604 165.991 39.8673L165.994 49.3677Z" fill="#E8E1D6"/>
<path d="M974.933 105.797L953.372 20.6448H947.268L929.32 90.9882C928.867 92.9033 928.301 94.7125 927.848 96.5286C927.402 98.2184 926.829 99.8058 926.158 101.158C925.479 102.516 924.573 103.646 923.448 104.438C922.323 105.343 920.851 105.794 919.154 105.794H909.563V24.6013H917.238V21.6655H863.272V24.6013C866.094 24.376 868.238 24.7174 869.594 25.7346C870.944 26.6393 871.844 28.1072 872.297 30.0325C872.75 31.9579 872.87 34.2178 872.87 37.0478C872.75 39.7583 872.645 42.6975 872.529 45.8654L871.397 80.4704C871.172 86.4615 870.491 91.4422 869.478 95.3987C868.347 99.2426 866.881 102.748 865.296 105.8H857.055L855.931 133.844H859.652C860.443 127.962 861.571 123.33 862.815 120.049C864.165 116.656 865.637 114.167 867.222 112.471C868.8 110.778 870.491 109.757 872.294 109.415C874.103 108.965 875.688 108.74 877.379 108.74H896.577C897.927 108.74 899.505 108.965 901.431 109.415C903.462 109.757 905.377 110.774 907.416 112.471C909.334 114.167 911.25 116.656 912.94 120.049C914.525 123.33 915.762 127.962 916.557 133.844H920.285L919.474 108.74H940.271V105.8C937.902 105.575 936.089 105.234 934.852 104.67C933.496 104.22 932.483 102.974 931.911 101.048C931.577 100.144 931.464 99.2426 931.577 98.4472C931.577 97.5425 931.682 96.6379 931.911 95.7332C932.371 93.0227 932.596 91.3227 932.708 90.5307C932.821 89.8548 932.933 89.4008 933.042 89.0628L934.515 83.4062H953.931L959.916 105.8H952.353V108.74H980.465V105.8L974.933 105.797ZM895.228 105.797H868.807C869.485 104.667 870.044 103.308 870.726 101.844C871.292 100.369 871.85 98.5598 872.423 96.6379C872.982 94.6033 873.323 92.3434 873.66 89.7421C874.001 87.1375 874.226 83.9763 874.451 80.467L876.029 40.2089C876.148 36.2489 876.482 33.1937 876.82 31.0464C877.154 28.9026 877.61 27.3152 878.292 26.4106C878.964 25.5025 879.877 24.9427 881.002 24.8266C882.126 24.7174 883.486 24.6013 885.183 24.6013H895.228V105.797ZM935.08 80.467L944.341 44.278L953.481 80.467H935.08Z" fill="#E8E1D6"/>
<path d="M211.041 20.6414H204.941L186.989 90.9847C186.424 92.8998 185.974 94.7091 185.52 96.5252C185.07 98.215 184.505 99.8024 183.826 101.154C183.036 102.513 182.133 103.643 181.117 104.435C179.989 105.339 178.52 105.79 176.713 105.79V108.729H197.824V105.79C195.568 105.565 193.762 105.223 192.405 104.66C191.052 104.21 190.149 102.964 189.471 101.038C189.246 100.134 189.13 99.2323 189.13 98.4369C189.242 97.5323 189.355 96.6276 189.471 95.723C189.924 93.0125 190.261 91.3124 190.377 90.5205C190.49 89.8445 190.602 89.3905 190.715 89.0526L192.183 83.396H211.491L217.476 105.79H209.91V108.729H238.025V105.79H232.493L211.041 20.6414ZM192.64 80.467L202.013 44.278L211.161 80.467H192.64Z" fill="#E8E1D6"/>
<path d="M614.439 24.6011H622.227V105.797H614.439V108.736H643.116V105.797H636.565V24.6011H658.361V105.797H651.81V108.736H680.487V105.797H672.693V24.6011H680.487V21.6653H614.439V24.6011Z" fill="#E8E1D6"/>
<path d="M852.212 71.9771C850.74 69.8367 848.596 67.7987 845.781 65.8767C842.952 63.8421 839.111 62.2548 834.37 60.9029L834.257 60.2236C840.355 58.7489 845.096 56.489 848.596 53.4371C852.096 50.3852 853.903 45.862 853.903 40.0962C853.903 37.6076 853.449 35.2351 852.553 32.9683C851.762 30.7085 850.29 28.7865 848.258 27.0899C846.227 25.5059 843.518 24.1473 840.242 23.1334C836.967 22.2287 832.792 21.6655 827.707 21.6655H798.13V24.6013H805.805V105.797H799.03H798.13H793.498L771.937 20.6448H765.84L748.001 90.9881C747.442 92.9033 746.877 94.7125 746.536 96.5286C746.076 98.2184 745.517 99.8058 744.726 101.158C744.048 102.516 743.148 103.646 742.023 104.438C740.892 105.343 739.535 105.794 737.729 105.794V108.733H758.836V105.794C756.58 105.568 754.654 105.227 753.424 104.664C752.067 104.213 751.048 102.967 750.483 101.042C750.149 100.137 750.149 99.2357 750.149 98.4403C750.149 97.5357 750.254 96.631 750.483 95.7264C750.936 93.0159 751.161 91.3159 751.273 90.5239C751.498 89.848 751.614 89.3939 751.614 89.056L753.08 83.3994H772.503L778.488 105.794H770.918V108.733H798.13H799.03H828.272C832.339 108.733 836.067 108.169 839.448 107.149C842.836 106.019 845.777 104.435 848.143 102.288C850.511 100.137 852.437 97.5357 853.674 94.4838C855.031 91.4319 855.712 87.926 855.712 84.0753C855.712 82.3855 855.487 80.4602 855.034 78.313C854.581 76.1657 853.674 74.1311 852.212 71.9771ZM753.652 80.467L762.906 44.278L772.053 80.467H753.652ZM820.144 24.6013H827.485C830.075 24.6013 832.11 25.1714 833.576 26.1853C834.925 27.3186 835.944 28.5578 836.626 29.9199C837.304 31.2717 837.758 32.6338 837.758 33.9856C837.87 35.2317 837.87 36.2455 837.87 36.8156V45.7459C837.87 48.9139 837.417 51.3991 836.398 53.0991C835.386 54.905 834.254 56.1476 832.897 57.0522C831.548 57.8408 830.3 58.2914 829.063 58.4109C827.932 58.6362 827.144 58.6362 826.807 58.6362H820.144V24.6013ZM839.571 88.9467C839.571 91.094 839.452 93.1285 839.23 95.1665C839.005 97.2046 838.432 99.0104 837.533 100.591C836.626 102.178 835.276 103.421 833.579 104.438C831.776 105.343 829.292 105.794 826.129 105.794H820.144V61.5788H827.26C830.195 61.5788 832.339 62.2582 834.029 63.5042C835.614 64.6341 836.851 66.2147 837.645 68.1366C838.429 69.9425 839.002 71.9771 839.23 74.1311C839.448 76.1657 839.571 78.0877 839.571 79.7877V88.9467Z" fill="#E8E1D6"/>
<path d="M715.827 71.5297C725.418 71.5297 732.535 69.6077 737.276 65.5386C742.129 61.5787 744.498 54.9116 744.498 45.6365C744.498 42.472 744.044 39.4167 743.148 36.4741C742.241 33.5382 740.772 31.0462 738.635 28.7863C736.372 26.6391 733.55 24.9459 729.941 23.5906C726.325 22.3446 721.812 21.6687 716.386 21.6687H687.038V24.6045H694.819V105.8H687.038V108.739H717.971V105.8H709.164V71.5297H715.827ZM709.164 24.6011H714.808C717.859 24.6011 720.34 25.0551 722.143 25.7345C723.953 26.5264 725.306 27.5471 726.209 28.9024C727.221 30.2577 727.787 31.8416 728.012 33.6475C728.237 35.5694 728.353 37.604 728.353 39.8673V49.3677C728.353 54.0036 727.906 57.5129 727.221 60.1073C726.55 62.7086 725.531 64.6305 724.287 65.8731C723.05 67.2284 721.584 67.9111 719.774 68.2491C717.971 68.471 715.933 68.587 713.789 68.587H709.164V24.6011Z" fill="#E8E1D6"/>
<path d="M557.422 20.6414H551.212L533.373 90.9847C532.808 92.8998 532.361 94.7091 531.908 96.5252C531.455 98.215 530.896 99.8024 530.217 101.154C529.427 102.513 528.52 103.643 527.501 104.435C527.174 104.698 526.761 104.838 526.369 105.025L525.698 103.868C524.907 104.66 524.12 104.998 523.213 104.998C521.969 104.998 520.957 104.322 520.391 102.964C519.826 101.605 519.485 99.9082 519.26 97.7644C519.154 95.7264 519.042 93.4665 519.042 90.8652C519.042 88.3801 518.929 85.8914 518.817 83.5189C518.363 78.7636 517.46 74.9231 515.763 72.2092C514.185 69.3826 512.27 67.232 510.238 65.8767C508.2 64.4054 506.172 63.5042 504.253 63.0502C502.215 62.5961 500.637 62.3742 499.506 62.3742L499.393 61.8041C501.203 60.4523 502.328 58.643 503.009 56.489C503.575 54.3417 504.028 50.9485 504.141 46.316C504.253 44.616 504.366 42.6941 504.366 40.4342C504.366 38.1743 504.584 35.9076 504.812 33.873C505.041 31.8384 505.491 30.0291 506.169 28.6739C506.735 27.1991 507.634 26.5232 508.766 26.5232C509.557 26.5232 509.897 26.7485 510.01 27.3152C510.116 27.7692 510.116 28.3325 510.116 28.8992C510.116 29.5785 510.01 30.1418 509.897 30.705C509.672 31.1591 509.557 31.7257 509.332 32.289C509.219 32.7396 509.219 33.0844 509.219 33.419C509.219 33.7637 509.219 34.2109 509.219 34.5523C509.219 36.4742 509.785 38.2869 511.022 40.0928C512.154 41.9055 514.073 42.8067 516.785 42.8067C519.383 42.8067 521.41 41.786 522.876 39.6388C524.233 37.3755 525.02 34.8903 525.02 32.0603C525.02 30.9303 524.795 29.6843 524.348 28.3291C524.008 26.9738 523.329 25.7278 522.539 24.5945C521.748 23.4645 520.62 22.5633 519.158 21.7713C517.794 20.9793 515.988 20.6379 513.96 20.6379C511.704 20.6379 509.785 20.9793 508.203 21.6586C506.625 22.4472 505.381 23.6898 504.482 25.7278C503.463 27.6498 502.672 30.251 502.219 33.6408C501.66 36.9214 501.312 41.1033 501.094 46.3092C500.981 49.8151 500.753 52.6383 500.303 54.6763C499.737 56.7109 499.066 58.2914 498.272 59.3121C497.365 60.3294 496.462 61.0053 495.337 61.3467C494.206 61.5686 492.962 61.6915 491.609 61.6915H486.643V24.6013H494.434V21.6655H464.629V24.6013H472.304V105.797H464.629V108.736H494.434V105.797H486.643V64.6341H492.403C494.887 64.6341 496.803 65.1974 498.159 66.2147C499.509 67.348 500.528 68.7033 501.21 70.516C502 72.3253 502.447 74.4759 502.675 76.7324C503.016 78.9923 503.241 81.4843 503.354 83.9729C503.694 88.9467 504.144 93.1286 504.591 96.4092C505.044 99.6898 505.61 102.294 506.513 104.216C507.304 106.138 508.435 107.494 509.901 108.282C511.25 109.187 513.169 109.637 515.545 109.866C516.445 109.979 517.348 109.979 518.248 109.866C519.161 109.641 520.511 109.303 522.201 108.736C522.515 108.637 522.801 108.439 523.108 108.299V108.736H544.222V105.797C541.959 105.572 540.156 105.23 538.803 104.667C537.446 104.216 536.54 102.97 535.868 101.045C535.643 100.14 535.527 99.2391 535.527 98.4437C535.64 97.5391 535.752 96.6345 535.868 95.7298C536.315 93.0193 536.652 91.3193 536.768 90.5273C536.881 89.8514 536.993 89.3973 537.109 89.0594L538.581 83.4028H557.886L563.871 105.797H556.301V108.736H584.412V105.797H578.887L557.422 20.6414ZM539.024 80.467L548.39 44.278L557.538 80.467H539.024Z" fill="#E8E1D6"/>
<path d="M397.217 91.548C395.745 95.2792 394.167 98.2184 392.248 100.482C390.438 102.745 388.523 104.326 386.491 105.343C384.573 106.364 382.654 106.927 380.956 106.927C379.375 106.927 377.797 106.364 376.216 105.343C374.522 104.326 373.053 102.52 371.7 100.028C370.343 97.4299 369.327 93.924 368.424 89.6227C367.634 85.3282 367.184 79.7877 367.184 73.0012L367.296 54.7924C367.296 52.7543 367.409 50.0473 367.521 46.5414C367.521 43.0355 367.971 39.5261 368.762 36.1397C369.552 32.7396 370.905 29.8072 372.824 27.3152C374.743 24.8266 377.453 23.5874 381.178 23.5874C385.356 23.5874 389.198 25.8473 392.469 30.4797C395.738 35.119 398.114 41.5607 399.358 49.7059H401.951V21.6655H398.563C398.226 22.7954 397.776 23.4714 397.098 23.8127C396.311 24.1473 395.741 24.376 395.288 24.376C394.835 24.376 394.504 24.376 394.16 24.2668C393.935 24.1507 393.485 24.0414 393.032 23.8161C391.335 23.1368 389.532 22.4575 387.497 21.6689C385.462 20.9896 383.206 20.6482 380.834 20.6482C376.318 20.6482 372.255 22.0069 368.639 24.6047C364.914 27.322 361.751 30.7119 359.266 34.9005C356.673 39.195 354.638 43.8343 353.285 49.0368C351.816 54.2359 351.141 59.3292 351.141 64.4157C351.141 69.7308 351.819 75.0426 353.172 80.3578C354.525 85.789 356.56 90.6536 359.157 95.0641C361.754 99.362 364.914 102.977 368.751 105.691C372.477 108.518 376.768 109.876 381.621 109.876C383.656 109.876 385.121 109.651 386.365 109.197C387.609 108.746 388.512 108.292 389.3 107.842C390.428 107.278 391.447 106.824 392.35 106.258C393.366 105.695 394.382 105.469 395.281 105.469C396.072 105.469 396.754 105.695 397.428 106.036C398.103 106.486 398.782 107.388 399.347 108.75H402.619L403.407 77.9921H400.131C399.589 83.297 398.57 87.9295 397.217 91.548Z" fill="#E8E1D6"/>
<path d="M316.493 24.6011H323.04V61.3533H301.36V24.6011H307.911V21.6653H279.346V24.6011H287.025V105.797H279.346V108.736H307.911V105.797H301.36V64.296H323.04V105.797H316.493V108.736H345.054V105.797H337.378V24.6011H345.054V21.6653H316.493V24.6011Z" fill="#E8E1D6"/>
<path d="M453.777 65.5386C451.296 63.504 448.471 61.804 445.199 60.6774C441.814 59.6567 438.195 59.0935 434.139 59.0935H430.185V24.6011H437.973V21.6653H408.055V24.6011H415.956V105.797H408.055V108.736H435.717C438.198 108.736 441.024 108.511 444.07 108.06C447.002 107.606 449.827 106.473 452.424 104.667C455.021 102.97 457.049 100.482 458.746 97.3136C460.437 94.1491 461.344 89.8512 461.344 84.3073C461.344 80.2415 460.665 76.623 459.305 73.4516C457.956 70.2905 456.153 67.6892 453.777 65.5386ZM445.09 89.0592C445.09 92.3398 444.861 95.0537 444.411 97.2044C443.958 99.3516 443.28 101.045 442.268 102.291C441.361 103.646 440.117 104.551 438.651 105.001C437.182 105.568 435.489 105.793 433.566 105.793H430.185V62.0293H434.139C436.392 62.0293 438.195 62.3741 439.667 63.1592C441.02 63.842 442.148 64.9685 442.939 66.3306C443.73 67.8019 444.295 69.4951 444.636 71.6457C444.974 73.6803 445.09 76.0563 445.09 78.7668V89.0592Z" fill="#E8E1D6"/>
</svg>
