<svg width="524" height="90" viewBox="0 0 524 90" fill="none" xmlns="http://www.w3.org/2000/svg">
<path d="M18.0015 35.8926V18.345H0.455017V35.8926H18.0015Z" fill="#E8E1D6"/>
<path d="M35.2899 35.8926V18.345H17.7434V35.8926H35.2899Z" fill="#E8E1D6"/>
<path d="M78.8921 0.79762V18.3452H18.0108V0.79762H78.8921ZM35.2917 70.7224V53.1745H70.1189V35.627H17.745V88.0039H78.6262V70.4565H35.2917V70.7224ZM148.547 80.2938L140.305 67.0001C137.38 69.3928 134.19 70.9883 131.266 71.7856C128.341 72.5833 125.417 73.1151 122.227 73.1151C120.366 73.1151 118.239 72.8492 116.378 72.3174C114.517 71.7856 112.656 70.7224 111.061 69.6587C109.465 68.3292 108.136 66.7342 107.339 64.8728C106.275 63.0119 106.009 60.3532 106.009 57.6945V31.9048C106.009 28.9801 106.541 26.5873 107.339 24.4603C108.402 22.3333 109.465 20.7381 111.061 19.4087C112.656 18.0794 114.251 17.2817 116.378 16.75C118.239 16.2183 120.366 15.9524 122.227 15.9524C125.151 15.9524 128.341 16.4841 131.266 17.2817C134.456 18.0794 137.38 19.6746 140.039 22.0675L148.281 8.7738C144.824 5.84919 140.836 3.72222 136.317 2.39286C131.532 1.06349 126.746 0.265873 121.695 0.265873C117.441 0.265873 113.453 0.79762 109.465 2.12699C105.477 3.19048 102.022 5.05159 98.8314 7.44442C95.6412 9.83731 93.2481 12.7619 91.3873 16.2183C89.5261 19.6746 88.4629 23.6627 88.4629 28.4484V61.1509C88.4629 65.9364 89.5261 69.9246 91.3873 73.381C93.2481 76.8374 95.9066 79.762 99.0969 82.1547C102.287 84.5475 105.743 86.143 109.731 87.4721C113.719 88.5357 117.707 89.3334 121.961 89.3334C127.012 89.3334 132.063 88.5357 136.583 86.9403C141.368 85.3452 145.356 83.2184 148.547 80.2938ZM159.712 0.79762V88.0039H176.993V16.2183H209.162V88.0039H226.708V0.79762H159.712ZM284.399 0.79762C288.653 0.79762 292.375 1.59524 295.565 3.19048C298.755 4.78572 301.414 6.91269 303.275 9.57144C305.402 12.2301 306.731 15.1548 307.794 18.3452C308.858 21.5357 309.124 24.7262 309.124 27.9167C309.124 31.1071 308.592 34.2976 307.528 37.4881C306.465 40.6786 304.87 43.6031 302.477 46.2617C300.351 48.9208 297.692 51.0477 294.502 52.6427C291.312 54.2382 287.855 55.0359 283.602 55.0359H262.333V87.738H245.052V0.79762H284.399ZM262.865 16.4841V39.881H280.677C284.665 39.881 287.59 38.8175 289.716 36.6905C291.843 34.5635 292.641 31.6389 292.641 28.4484C292.641 24.9921 291.577 22.3333 289.45 19.9405C287.324 17.8135 284.399 16.75 280.411 16.75H262.865V16.4841ZM380.107 0.79762H320.024V88.0039H380.107V72.3174H337.305V51.8454H373.727V36.1587H337.039V16.4841H380.107V0.79762ZM449.229 80.2938L440.99 67.0001C438.066 69.3928 434.875 70.9883 431.95 71.7856C429.025 72.5833 426.1 73.1151 422.91 73.1151C421.048 73.1151 418.921 72.8492 417.06 72.3174C415.199 71.7856 413.337 70.7224 411.744 69.6587C410.149 68.3292 408.82 66.7342 408.023 64.8728C406.959 63.0119 406.693 60.3532 406.693 57.6945V31.9048C406.693 28.9801 407.225 26.5873 408.023 24.4603C409.086 22.3333 410.149 20.7381 411.744 19.4087C413.337 18.0794 414.933 17.2817 417.06 16.75C419.187 16.2183 421.048 15.9524 422.91 15.9524C425.834 15.9524 429.025 16.4841 431.95 17.2817C435.141 18.0794 438.065 19.6746 440.724 22.0675L448.963 8.7738C445.506 5.84919 441.522 3.72222 437.002 2.39286C432.482 0.79762 427.43 0 422.378 0C418.124 0 414.135 0.531745 410.149 1.86111C406.161 2.9246 402.705 4.78572 399.515 7.17856C396.325 9.57144 393.932 12.496 392.071 15.9524C390.21 19.4087 389.147 23.3968 389.147 28.1825V60.885C389.147 65.6705 390.21 69.6587 392.071 73.1151C393.932 76.5715 396.591 79.4961 399.781 81.8888C402.971 84.2816 406.427 85.8771 410.415 87.2062C414.401 88.2698 418.389 89.0675 422.644 89.0675C427.696 89.0675 432.748 88.2698 437.268 86.6748C442.054 85.3452 446.038 83.2184 449.229 80.2938ZM477.941 1.86111C481.929 0.531745 486.184 0 490.438 0C494.692 0 498.946 0.531745 502.935 1.86111C506.923 3.19048 510.641 5.05159 513.566 7.44442C516.757 9.83731 519.15 12.7619 521.011 16.4841C522.872 19.9405 523.67 24.1944 523.67 28.7143V60.3532C523.67 65.1387 522.872 69.1269 521.011 72.8492C519.15 76.3056 516.757 79.4961 513.832 81.8888C510.907 84.2816 507.189 86.143 503.201 87.4721C499.212 88.8016 494.692 89.3334 490.172 89.3334C485.652 89.3334 481.397 88.8016 477.143 87.4721C473.159 86.143 469.437 84.2816 466.512 81.8888C463.587 79.4961 461.194 76.5715 459.333 72.8492C457.471 69.3928 456.674 65.1387 456.674 60.3532V28.4484C456.674 23.9286 457.471 19.6746 459.333 16.2183C461.194 12.7619 463.587 9.83731 466.778 7.44442C470.234 4.78572 473.957 2.9246 477.941 1.86111ZM490.438 15.9524C488.311 15.9524 486.449 16.2183 484.588 16.75C482.727 17.2817 480.866 18.3452 479.27 19.4087C477.675 20.7381 476.611 22.3333 475.552 24.1944C474.754 26.0555 474.223 28.7143 474.223 31.373V56.8968C474.223 59.8214 474.754 62.2141 475.552 64.3414C476.345 66.4683 477.675 68.0633 479.27 69.3928C480.866 70.7224 482.461 71.5197 484.588 72.0515C486.449 72.5833 488.577 72.8492 490.438 72.8492C492.565 72.8492 494.426 72.5833 496.287 72.0515C498.149 71.5197 500.01 70.7224 501.339 69.3928C502.935 68.0633 503.998 66.4683 505.062 64.3414C505.86 62.2141 506.391 59.8214 506.391 56.8968V31.9048C506.391 28.9801 505.86 26.5873 505.062 24.7262C504.264 22.5992 502.935 21.0039 501.605 19.6746C500.01 18.3452 498.415 17.5476 496.553 17.0159C494.426 16.2183 492.565 15.9524 490.438 15.9524Z" fill="#E8E1D6"/>
</svg>
