<svg width="18" height="18" viewBox="0 0 18 18" fill="none" xmlns="http://www.w3.org/2000/svg">
<g opacity="0.5">
<path d="M1.31325 7.5C1.31325 4.185 4.00125 1.5 7.317 1.5H10.5915C13.959 1.5 16.6882 4.23 16.6882 7.5975C16.6882 9.8175 15.483 11.8575 13.5412 12.93L7.50075 16.275V13.5075H7.4505C4.083 13.5825 1.31325 10.875 1.31325 7.5ZM7.317 3C4.82925 3 2.81325 5.0175 2.81325 7.5C2.81325 10.0275 4.89075 12.06 7.41675 12.0075L7.68 12H9.00075V13.725L12.816 11.6175C14.2792 10.8075 15.1882 9.27 15.1882 7.5975C15.1882 5.055 13.1302 3 10.5915 3H7.317Z" fill="#141511"/>
</g>
</svg>
