<svg width="691" height="90" viewBox="0 0 691 90" fill="none" xmlns="http://www.w3.org/2000/svg">
<g clip-path="url(#clip0_142_1266)">
<path d="M205.382 4.70082C202.085 4.60563 198.824 3.98508 195.722 2.86256L192.968 10.1545L195.682 11.0906C198.429 11.915 200.921 13.4281 202.919 15.4862L168.188 74.3511V2.25207H147.099V39.899H115.142V2.25207H94.0591V35.9173L93.9912 38.7662C93.9912 39.6752 91.4339 61.2052 68.2549 73.5575C66.554 74.4458 64.7735 75.1725 62.9367 75.7281C53.8334 78.0548 45.8832 77.6749 39.249 74.6157L37.0309 73.3065C29.0671 68.5582 26.1163 59.74 25.499 58.1392C23.213 51.729 23.2673 38.3186 25.6008 31.5285C26.9041 27.7335 28.9314 24.2273 31.5702 21.2044C36.9969 15.147 42.7628 12.9153 46.4462 12.1013H46.7244C48.3297 11.9133 49.9447 11.8204 51.5609 11.8232C56.0584 11.8232 62.4755 12.9085 67 15.9678C70.5477 18.369 75.0587 22.2965 78.5318 31.5082L79.4883 34.0315L87.14 31.4403L85.9529 28.6592C84.3452 24.9081 83.7686 17.1277 84.7997 13.2748L85.322 11.328L83.6669 10.1817C73.7807 3.66945 62.2253 0.148283 50.3874 0.0407338C48.1685 -0.0453762 45.9463 0.036254 43.7397 0.284929H43.5904C36.0473 1.09213 23.5793 3.89361 13.2007 13.458C8.98087 17.4857 5.66917 22.3676 3.48684 27.7774C1.17162 33.2231 -0.0123181 39.0827 0.00694521 45C0.00694521 45.0814 0.00694521 45.1696 0.00694521 45.2646C0.00694521 46.5534 0.0747786 47.8422 0.19688 49.2056L0.230798 49.4905C0.278282 49.9518 0.325766 50.4131 0.3936 50.915C0.742358 53.611 1.34422 56.2682 2.19121 58.8514L3.60216 62.494C5.82712 67.6289 9.75472 72.4993 13.9604 76.6167C22.1684 84.6548 33.9648 87.7751 33.9648 87.7751C36.9934 88.6739 40.1006 89.2826 43.2445 89.593C45.0082 89.7694 46.7583 89.8508 48.5016 89.8508C57.6154 89.8222 66.5733 87.4855 74.5398 83.0587C82.5062 78.632 89.2215 72.2595 94.0591 64.5358V88.155H115.142V50.2367H147.099V88.1482H175.209L189.95 63.1656H229.789L244.23 88.1482H266.751L217.015 2.10284C213.392 3.8618 209.409 4.75137 205.382 4.70082ZM196.245 52.5023L210.083 29.0662L223.65 52.5023H196.245Z" fill="#E8E1D6"/>
<path d="M420.457 57.2233L377.145 2.25195H362.052V88.1413H379.349V32.9258L423.034 88.1413H437.632V2.25195H420.457V57.2233Z" fill="#E8E1D6"/>
<path d="M612.482 2.25201L594.811 60.1673L575.302 2.00781H561.559L542.172 60.1673L524.501 2.25201H507.447H504.87H444.375V88.1414H508.797V72.3161H462.046V50.2299H498.615V34.6488H462.046V18.0841H510.154L533.706 88.6366H549.287L568.43 31.3318L587.207 88.6366H602.788L631.747 2.25201H612.482Z" fill="#E8E1D6"/>
<path d="M291.293 75.5314H291.429C293.185 75.5793 294.934 75.3057 296.591 74.7242C297.798 74.2649 298.865 73.5002 299.688 72.5051C300.51 71.5099 301.061 70.3182 301.285 69.0466C298.472 67.8157 295.581 66.7733 292.63 65.9263L291.361 57.6982L290.072 65.9941C288.194 66.6318 284.571 67.9206 281.424 69.3858C283.072 73.1369 286.24 75.5314 291.293 75.5314Z" fill="#E8E1D6"/>
<path d="M350.804 68.5515H330.97V88.1415H350.804V68.5515Z" fill="#E8E1D6"/>
<path d="M312.336 6.28816C309.665 4.28543 306.624 2.83078 303.389 2.00794C299.697 0.958595 295.878 0.422211 292.04 0.41388C290.061 0.410818 288.084 0.521795 286.118 0.746259C283.318 0.984877 280.56 1.57748 277.91 2.5099C275.693 3.29471 273.58 4.34469 271.615 5.63697C270.438 6.40167 269.306 7.23284 268.223 8.12642L268.047 8.26887C265.683 10.3254 263.759 12.8379 262.39 15.6558C261.016 18.8492 260.323 22.2936 260.355 25.7696C260.355 28.5779 261.148 35.8156 268.535 42.3072C274.335 47.4014 285.311 53.045 289.998 55.4531C290.676 55.7922 291.192 56.0636 291.538 56.2467C293.884 57.5012 296.15 58.9013 298.321 60.4388C302.697 63.5523 303.239 66.5437 303.226 68.8432C303.226 68.8839 303.226 69.0874 303.226 69.3994C303.071 70.9412 302.489 72.4092 301.544 73.6377C300.6 74.8662 299.331 75.8064 297.88 76.3522C295.811 77.0656 293.631 77.3988 291.443 77.3358H291.287C283.988 77.3358 279.572 73.3744 278.161 65.5397L278.073 65.1192L277.998 65.0174L277.666 64.0271H260.029L260.151 65.9942C260.592 73.2184 263.957 79.3165 270.15 84.1258C272.821 86.1286 275.862 87.5832 279.097 88.406C282.782 89.4535 286.594 89.9899 290.425 90.0001C292.404 90.0034 294.381 89.8924 296.347 89.6677C299.147 89.4291 301.905 88.8365 304.555 87.9041C308.176 86.5691 311.531 84.6032 314.466 82.0976C316.781 80.0291 318.68 77.5381 320.062 74.7582C321.435 71.5671 322.128 68.1249 322.097 64.6511C322.097 62.5009 321.514 54.9782 313.957 48.1272C310.518 45.0137 298.64 38.2779 290.785 33.8213C287.556 31.9899 284.775 30.4297 284.158 29.9752C279.782 26.8685 279.24 23.8703 279.253 21.5708C279.253 21.5301 279.253 21.3266 279.253 21.0146C279.408 19.4735 279.99 18.0062 280.935 16.7788C281.879 15.5513 283.148 14.6125 284.598 14.0685C286.668 13.3488 288.852 13.0132 291.043 13.0782H291.192C299.332 13.0782 304.223 17.8265 305.023 26.5361L305.179 28.2319L322.335 28.1641V26.3191C322.369 18.1995 318.99 11.457 312.336 6.28816Z" fill="#E8E1D6"/>
<path d="M682.507 48.1068C676.707 43.0126 665.725 37.369 661.038 34.9609L659.511 34.1673C657.162 32.9176 654.896 31.5173 652.728 29.9752C648.353 26.8685 647.81 23.8703 647.823 21.5708C647.813 21.3855 647.813 21.1999 647.823 21.0146C647.975 19.4735 648.556 18.0058 649.499 16.778C650.443 15.5502 651.712 14.6115 653.162 14.0685C655.232 13.3488 657.416 13.0132 659.606 13.0782H659.756C667.041 13.0782 671.45 17.0125 672.868 24.7861L672.915 25.2134L672.976 25.2948L673.207 26.3801H690.986L690.871 24.413C690.423 17.1888 687.059 11.0907 680.865 6.28138C678.194 4.27865 675.154 2.824 671.918 2.00116C668.23 0.955337 664.416 0.421248 660.583 0.41388C658.604 0.410818 656.627 0.521795 654.661 0.746259C651.862 0.984877 649.104 1.57748 646.453 2.5099C644.237 3.29586 642.123 4.34578 640.158 5.63697C638.887 6.43683 637.678 7.33256 636.543 8.31635C634.233 10.3804 632.336 12.864 630.953 15.6355C629.58 18.8289 628.887 22.2733 628.918 25.7493C628.918 27.8928 629.508 35.4222 637.058 42.2665C640.497 45.38 652.368 52.1157 660.224 56.5723C663.452 58.4038 666.24 59.9639 666.858 60.4252C671.233 63.5319 671.783 66.5301 671.762 68.8228C671.762 68.8635 671.762 69.067 671.762 69.3791C671.607 70.9209 671.025 72.3888 670.081 73.6173C669.136 74.8458 667.867 75.786 666.417 76.3319C664.348 77.0452 662.167 77.3785 659.979 77.3155H659.823C651.683 77.3155 646.799 72.5333 645.992 63.8507L645.809 62.1414L628.647 62.2092V64.0542C628.647 72.1941 632.038 78.9163 638.679 84.0851C641.35 86.0879 644.391 87.5425 647.627 88.3654C651.318 89.4216 655.136 89.9648 658.975 89.9798C660.954 89.9832 662.931 89.8722 664.897 89.6474C667.697 89.4088 670.455 88.8162 673.105 87.8837C675.322 87.0989 677.436 86.049 679.4 84.7567C680.578 83.9936 681.711 83.1624 682.792 82.2672L682.968 82.1248C685.325 80.0729 687.244 77.5676 688.612 74.7582C689.985 71.5671 690.678 68.1249 690.647 64.6511C690.647 61.8361 689.874 54.5984 682.507 48.1068Z" fill="#E8E1D6"/>
<path d="M281.763 25.5117C282.611 26.5145 283.587 27.4016 284.666 28.1504C286.701 29.5749 291.192 32.2814 291.361 32.3696V27.2143L281.763 25.5117Z" fill="#E8E1D6"/>
<path d="M291.362 32.3831C291.524 32.295 296.049 29.5884 298.05 28.164C299.133 27.4147 300.109 26.5225 300.953 25.5117L291.362 27.2143V32.3831Z" fill="#E8E1D6"/>
</g>
<defs>
<clipPath id="clip0_142_1266">
<rect width="691" height="90" fill="white"/>
</clipPath>
</defs>
</svg>
