<svg width="347" height="90" viewBox="0 0 347 90" fill="none" xmlns="http://www.w3.org/2000/svg">
<g clip-path="url(#clip0_142_1303)">
<path d="M107.246 38.0701H106.977L101.943 50.4901H102.302L104.01 46.1701H108.775L110.573 50.4901H112.37L107.246 38.0701ZM104.19 45.9901L106.527 40.3201L108.865 45.9901H104.19Z" fill="#E8E1D6"/>
<path d="M100.414 38.25V47.16C100.414 48.87 99.2456 50.58 96.7285 50.58C94.4811 50.58 93.672 48.78 93.672 47.16V38.25H91.964V46.62C91.964 47.43 92.1438 48.6 92.9528 49.5C93.7619 50.4 94.8407 50.85 96.3689 50.85C100.324 50.85 100.684 47.97 100.684 47.16V38.25H100.414Z" fill="#E8E1D6"/>
<path d="M2.51719 7.19989C2.78688 7.19989 3.14647 7.2899 3.14647 7.64989C3.14647 8.00989 2.69699 8.0999 2.3374 8.0999H1.88792V7.19989H2.51719ZM2.51719 7.0199H1.61823V9.35989H1.79802V8.27989H2.4273L3.14647 9.35989H3.32626L2.69699 8.27989C3.05657 8.18989 3.32626 8.00989 3.32626 7.64989C3.32626 7.19989 3.05657 7.0199 2.51719 7.0199ZM0.449578 8.0999C0.449578 7.0199 1.34854 6.11989 2.4273 6.11989C3.50605 6.11989 4.40502 7.0199 4.40502 8.0999C4.40502 9.1799 3.50605 10.0799 2.4273 10.0799C1.34854 10.0799 0.449578 9.1799 0.449578 8.0999ZM0.269785 8.0999C0.269785 9.35989 1.25865 10.3499 2.51719 10.3499C3.77574 10.3499 4.7646 9.35989 4.7646 8.0999C4.7646 6.83989 3.77574 5.8499 2.51719 5.8499C1.25865 5.8499 0.269785 6.92989 0.269785 8.0999ZM73.7151 3.77989C73.805 3.77989 73.805 2.87989 73.7151 2.87989H57.2641C57.1742 2.87989 57.1742 3.77989 57.2641 3.77989H64.1861C64.9053 3.77989 64.9053 4.31989 64.8154 4.85989C64.7255 5.21989 64.5457 5.48989 64.5457 5.75989C64.5457 5.8499 45.4877 64.7999 45.4877 64.7999C45.218 64.7099 44.8584 63.7199 44.8584 63.7199C44.8584 63.7199 23.2833 4.76989 23.1934 4.58989C22.654 3.59989 24.4519 3.68989 24.4519 3.68989H30.7447C30.8346 3.68989 30.9244 2.78989 30.7447 2.78989H0.179889C9.57623e-05 2.78989 9.57623e-05 3.68989 0.179889 3.68989C0.359681 3.68989 7.19181 3.68989 7.55139 3.68989C8.36046 3.68989 8.63015 3.59989 8.98973 5.03989C10.3382 9.89989 27.6882 54.9899 38.8353 87.2999C38.9252 87.6599 39.105 88.0199 39.105 88.0199C39.105 88.0199 49.4431 55.6199 57.2641 31.3199C60.2307 22.0499 62.8377 14.0399 64.276 9.35989C64.9053 7.37989 65.3548 6.02989 65.5346 5.39989V5.3099C65.6245 5.21989 65.6244 5.12989 65.6244 5.12989C65.8042 4.58989 65.8941 4.13989 66.3436 3.95989C66.6133 3.86989 66.9729 3.77989 67.6022 3.77989H73.7151ZM123.518 44.3699C123.518 67.9499 120.102 88.2899 102.212 88.2899C82.9744 88.2899 80.8169 69.2099 80.8169 44.3699C80.8169 20.7899 85.3118 1.52989 102.032 1.52989C120.012 1.43989 123.518 21.5099 123.518 44.3699ZM138.98 44.8199C139.07 19.2599 120.461 0.989895 102.122 0.809895C83.334 0.629895 65.2649 21.3299 65.2649 44.8199C65.2649 69.1199 82.2553 88.9199 101.763 89.0099C119.652 89.0099 138.98 69.2099 138.98 44.8199ZM205.144 30.5099V0.629895C205.144 0.629895 205.054 0.359895 204.604 0.719895C204.424 0.809895 204.335 0.989895 204.155 1.16989C195.705 9.8099 191.479 0.809895 179.164 0.359895C164.061 -0.0901053 145.183 20.8799 145.003 45.0899C144.733 69.4799 160.735 88.2899 178.265 88.9199C187.704 89.2799 187.524 86.6699 199.21 82.9799C206.402 80.7299 209.728 85.5899 209.998 87.5699C210.448 87.8399 210.448 87.2999 210.448 87.2999V53.0999C210.448 52.4699 211.436 52.5599 211.436 52.5599H217.909C218.089 52.5599 218.089 51.6599 217.909 51.6599H188.243C188.063 51.6599 188.063 52.5599 188.243 52.5599H195.255C195.255 52.5599 196.514 52.4699 196.514 53.0099V72.9899C196.514 88.3799 181.231 88.5599 176.916 88.0199C160.915 86.2199 160.555 53.1899 160.555 44.4599C160.375 20.8799 164.061 0.359895 180.152 1.16989C199.3 2.15989 204.245 29.5199 204.604 30.7799C205.144 31.0499 205.144 30.5099 205.144 30.5099ZM347 87.8399V54.9899C347 54.8099 346.281 54.8099 346.281 54.9899C346.281 55.1699 346.641 86.9399 317.155 86.8499C315.536 86.8499 309.603 86.8499 307.266 86.8499C306.727 86.8499 306.367 86.5799 306.367 86.3099V44.9099C306.367 44.5499 306.727 44.3699 307.266 44.3699H310.322C325.515 44.3699 325.964 61.2899 325.964 61.4699C325.964 61.6499 326.414 61.6499 326.414 61.4699C326.414 61.2899 326.414 26.9099 326.414 26.8199C326.414 26.6399 325.785 26.6399 325.785 26.8199C325.785 26.9999 327.133 43.4699 310.772 43.4699H307.356C306.816 43.4699 306.457 43.2899 306.457 42.9299V4.58989C306.457 4.13989 306.816 4.04989 307.356 4.04989H317.694C345.202 4.04989 344.663 33.7499 344.663 33.9299C344.663 34.1099 345.292 34.1099 345.292 33.9299V3.14989C345.292 3.14989 266.093 3.14989 265.914 3.14989C265.734 3.14989 265.644 4.04989 265.914 4.04989H274.544C274.544 4.04989 275.443 4.04989 275.533 4.58989C275.533 10.7999 275.533 65.6999 275.533 66.5099C275.533 83.1599 262.767 88.5599 253.598 88.7399C241.821 88.9199 236.338 80.4599 236.338 70.8299C236.338 68.6699 236.338 7.19989 236.338 5.21989C236.338 3.86989 238.405 3.95989 238.405 3.95989C238.405 3.95989 244.878 3.95989 245.058 3.95989C245.148 3.95989 245.237 3.0599 245.058 3.0599H213.953C213.774 3.0599 213.774 3.95989 213.953 3.95989C214.133 3.95989 220.516 3.95989 220.516 3.95989C220.516 3.95989 222.044 3.86989 222.134 5.12989C222.134 5.93989 222.224 62.7299 222.224 62.7299C222.224 87.7499 242.451 89.6399 253.688 89.5499C263.217 89.3699 276.521 83.6999 276.521 66.4199C276.521 59.3999 276.521 10.2599 276.521 4.49989C276.521 3.95989 277.42 3.95989 277.42 3.95989C277.42 3.95989 290.995 3.95989 291.264 3.95989C291.534 3.95989 292.163 3.95989 292.163 4.49989C292.163 5.12989 292.163 79.1999 292.163 86.3099C292.163 86.6699 291.804 86.8499 291.264 86.8499H285.062C284.882 86.8499 284.882 87.7499 285.062 87.7499L347 87.8399Z" fill="#E8E1D6"/>
</g>
<defs>
<clipPath id="clip0_142_1303">
<rect width="347" height="90" fill="white"/>
</clipPath>
</defs>
</svg>
