<svg width="18" height="18" viewBox="0 0 18 18" fill="none" xmlns="http://www.w3.org/2000/svg">
<g opacity="0.5">
<path d="M10.125 6.375C10.125 6.9975 9.6225 7.5 9 7.5C8.3775 7.5 7.875 6.9975 7.875 6.375C7.875 5.7525 8.3775 5.25 9 5.25C9.6225 5.25 10.125 5.7525 10.125 6.375ZM9.75 12.75V9H8.25V12.75H9.75ZM9 16.6875C13.245 16.6875 16.6875 13.245 16.6875 9C16.6875 4.755 13.245 1.3125 9 1.3125C4.755 1.3125 1.3125 4.755 1.3125 9C1.3125 13.245 4.755 16.6875 9 16.6875ZM15.1875 9C15.1875 12.42 12.42 15.1875 9 15.1875C5.58 15.1875 2.8125 12.42 2.8125 9C2.8125 5.58 5.58 2.8125 9 2.8125C12.42 2.8125 15.1875 5.58 15.1875 9Z" fill="#141511"/>
</g>
</svg>
