<svg width="24" height="24" viewBox="0 0 24 24" fill="none" xmlns="http://www.w3.org/2000/svg">
<path d="M15.9588 5H9.0412C6.80909 5 5 6.80942 5 9.0412V15.9588C5 18.1909 6.80942 20 9.04152 20H15.9585C18.1906 20 20 18.1906 20 15.9585V9.0412C20 6.80909 18.1909 5 15.9588 5Z" stroke="white" stroke-miterlimit="10"/>
<path d="M12.5003 16.1208C14.5 16.1208 16.121 14.4997 16.121 12.5C16.121 10.5003 14.5 8.87924 12.5003 8.87924C10.5006 8.87924 8.87952 10.5003 8.87952 12.5C8.87952 14.4997 10.5006 16.1208 12.5003 16.1208Z" stroke="white" stroke-miterlimit="10"/>
<path d="M16.8965 8.87924C17.325 8.87924 17.6723 8.53191 17.6723 8.10346C17.6723 7.67501 17.325 7.32767 16.8965 7.32767C16.4681 7.32767 16.1207 7.67501 16.1207 8.10346C16.1207 8.53191 16.4681 8.87924 16.8965 8.87924Z" fill="white"/>
</svg>
