<svg width="24" height="24" viewBox="0 0 24 24" fill="none" xmlns="http://www.w3.org/2000/svg">
<path d="M15.9588 5.00391H9.0412C6.80909 5.00391 5 6.81332 5 9.04511V15.9627C5 18.1948 6.80942 20.0039 9.04152 20.0039H15.9585C18.1906 20.0039 20 18.1945 20 15.9624V9.04511C20 6.813 18.1909 5.00391 15.9588 5.00391Z" stroke="#9C7D69" stroke-miterlimit="10"/>
<path d="M12.5003 16.1243C14.5 16.1243 16.121 14.5033 16.121 12.5036C16.121 10.5039 14.5 8.88281 12.5003 8.88281C10.5006 8.88281 8.87952 10.5039 8.87952 12.5036C8.87952 14.5033 10.5006 16.1243 12.5003 16.1243Z" stroke="#9C7D69" stroke-miterlimit="10"/>
<path d="M16.8965 8.8836C17.325 8.8836 17.6723 8.53627 17.6723 8.10782C17.6723 7.67936 17.325 7.33203 16.8965 7.33203C16.4681 7.33203 16.1207 7.67936 16.1207 8.10782C16.1207 8.53627 16.4681 8.8836 16.8965 8.8836Z" fill="#9C7D69"/>
</svg>
