<svg width="55" height="48" viewBox="0 0 55 48" fill="none" xmlns="http://www.w3.org/2000/svg">
<g clip-path="url(#clip0_301_535)">
<path d="M29.9878 13.1151C28.0379 9.98613 25.3484 7.9889 21.9866 7.12344C21.7176 7.05687 21.4487 6.99029 21.1797 6.92372C20.9108 6.85714 20.6418 6.85714 20.2384 6.79057C19.835 6.79057 19.2971 6.724 18.7592 6.724C18.154 6.724 17.6834 6.72399 17.2127 6.79057C14.187 7.19001 11.3631 8.38835 8.8753 10.4522C4.84107 13.9806 2.01711 18.7074 0.605134 24.4327C0.537897 24.7656 0.47066 25.2316 0.336186 25.7642C0.201711 26.2968 0.201711 26.7628 0.134474 27.0957C0.0672372 27.5617 0 28.0943 0 28.6269V30.1581C0.0672372 31.8225 0.336186 33.0208 0.739609 33.8863C0.874083 34.1526 0.94132 34.3523 1.07579 34.4854C1.21027 34.6186 1.27751 34.7517 1.41198 34.9515C1.68093 35.2178 2.01711 35.3509 2.28606 35.3509C2.28606 35.3509 2.3533 35.3509 2.48777 35.3509C2.75672 35.3509 3.02567 35.1512 3.16015 34.7517C3.22738 34.6186 3.22738 34.4854 3.22738 34.4189C3.22738 34.086 3.02567 33.7531 2.55501 33.7531C2.42054 33.5534 2.28606 33.2205 2.21883 32.8877C2.08435 32.4882 2.01711 32.0222 1.94988 31.5562C1.88264 31.0902 1.8154 30.6907 1.74817 30.3578C1.74817 30.025 1.68093 29.5589 1.68093 28.8932C1.68093 28.4938 1.68093 28.2275 1.68093 28.0277C1.68093 27.828 1.68093 27.6283 1.74817 27.4286C1.74817 27.2288 1.74817 27.0291 1.8154 26.8294C1.94988 25.6976 2.15159 24.699 2.3533 23.8336C2.82396 21.9029 3.49633 20.1054 4.37042 18.4411C5.44621 16.3107 6.72372 14.5132 8.1357 12.982C11.2286 9.71983 14.7922 8.05548 18.7592 8.05548H19.0954C20.709 8.05548 22.1883 8.38835 23.6002 9.05409C27.3655 10.785 29.8533 14.1803 30.9291 19.1068C31.2653 20.8377 31.467 22.6352 31.467 24.5659C31.467 26.1637 31.3325 27.8946 31.0636 29.6921C30.1222 35.7503 28.3741 40.4771 25.9535 43.6727C24.6088 45.337 23.1968 46.3356 21.7176 46.6685C21.5831 46.6685 21.3814 46.6685 21.2469 46.6685H20.7763C20.5746 46.6685 20.3729 46.6685 20.2384 46.6019C17.9523 46.0694 16.2042 44.0056 15.0611 40.5437C14.3215 38.147 13.9853 35.6172 13.9853 32.9542C13.9853 31.9556 14.0526 30.957 14.1198 29.8918C14.456 27.0291 15.0611 24.6325 15.9352 22.7684C16.0697 22.5021 16.2042 22.3024 16.2714 22.1026C16.5403 22.3689 16.8765 22.3689 17.1455 22.2358C17.2799 22.1692 17.3472 22.1026 17.4144 22.0361C17.4817 21.9695 17.4817 21.9029 17.5489 21.7698C17.5489 21.7032 17.6161 21.57 17.6161 21.5035C17.6161 21.3703 17.6161 21.3037 17.5489 21.1706C17.1455 20.1054 16.4059 20.0388 16.0024 20.1054C15.599 20.172 15.2628 20.3717 14.9266 20.7712C14.3888 21.3037 13.9181 22.0361 13.5147 23.0347C12.7751 24.7656 12.3716 26.896 12.1699 29.3592C12.1027 29.6921 12.1027 30.0915 12.1027 30.7573V32.5548C12.1027 33.154 12.1027 33.62 12.1699 33.9528C12.6406 39.5451 14.187 43.6727 16.6076 46.1359C17.6161 47.1345 18.8264 47.8003 20.1039 48C20.3056 48.0666 20.6418 48.0666 21.0452 48.0666C21.5159 48.0666 21.9193 48 22.2555 47.9334C22.5917 47.8669 22.9951 47.6671 23.4658 47.4674C24.2726 47.068 25.0122 46.5354 25.7518 45.8031C27.5672 44.0056 29.1137 41.3426 30.324 37.8141C31.467 34.552 32.1394 30.957 32.4755 27.2289C32.5428 26.6297 32.5428 25.8308 32.5428 24.8322C32.5428 23.8336 32.5428 23.1012 32.4755 22.5687C32.4083 18.7739 31.5342 15.6449 29.9878 13.1151Z" fill="white"/>
<path d="M51.5709 29.8918C51.3019 29.6255 51.033 29.3592 50.764 29.0929C50.4951 28.8932 50.1589 28.6269 49.8227 28.4272C49.4193 28.1609 49.1504 27.9612 48.8814 27.828C48.6125 27.6949 48.2763 27.4951 47.8728 27.2954C46.5953 26.6963 45.1161 26.1637 43.5024 25.6976C41.8887 25.2982 39.5354 24.8322 36.6442 24.3662C35.0306 24.0999 33.753 23.8336 32.8117 23.6338C31.8704 23.4341 31.0636 23.1678 30.3912 22.9015C29.2482 22.5021 28.3741 21.9695 27.8362 21.3037C27.231 20.638 26.8949 19.7725 26.8949 18.7074C26.8949 18.4411 26.8949 18.1748 26.9621 17.9085C26.9621 17.6422 27.0293 17.3759 27.0966 17.1096C27.8362 14.3135 29.7861 11.3176 32.8117 8.32178C35.9046 5.32594 38.9303 3.26214 41.8887 2.3301C43.7041 1.73093 45.1161 1.73093 46.1247 2.39667C47.066 2.99584 47.6039 4.19417 47.7384 5.99168C47.7384 6.1914 47.7384 6.39112 47.7384 6.59085C47.7384 8.45492 47.3349 11.1179 46.5281 14.4466C46.3936 14.9792 46.2592 15.5784 46.0574 16.1775L45.3178 18.7739L45.1161 19.3731C45.0489 19.6394 45.0489 19.7725 45.0489 19.9057V20.172C45.0489 20.3051 45.0489 20.4383 45.0489 20.5049C45.0489 20.638 45.0489 20.7712 45.1834 20.9709L45.2506 21.0374C45.4523 21.3703 45.7885 21.5035 46.1247 21.5035C46.5953 21.5035 46.7971 21.2372 46.9315 21.0374C46.9988 20.9043 46.9988 20.7712 46.9988 20.638C46.9988 20.5049 46.9315 20.3051 46.8643 20.172L46.7971 20.1054C46.7971 20.0388 46.7971 19.9057 46.8643 19.4397C46.9315 19.0402 47.066 18.4411 47.2677 17.509C47.5367 16.4438 47.7384 15.5784 47.8728 15.0458C48.0073 14.4466 48.1418 13.9806 48.209 13.5811C48.2763 13.1817 48.4107 12.7157 48.478 12.2497C48.8142 10.5187 49.0159 8.98752 49.1504 7.72261C49.1504 7.32316 49.1504 6.85714 49.1504 6.25798C49.1504 5.65881 49.0831 5.19279 49.0831 4.92649C48.8814 3.32871 48.3435 2.13037 47.4694 1.33148C46.5953 0.466019 45.3178 0 43.8386 0C41.2164 0 38.0562 1.33148 34.4927 3.8613C31.5342 6.05825 29.1137 8.58807 27.231 11.3842C25.8191 13.5811 24.8777 15.7115 24.5416 17.7087C24.4743 17.9085 24.4743 18.2413 24.4743 18.5076V19.0402C24.4743 19.3731 24.4743 19.6394 24.5416 19.9057C24.945 22.4355 26.7604 24.233 29.9205 25.2316C30.5929 25.4313 31.3997 25.6311 32.4083 25.8308C33.4169 26.0305 34.7616 26.2302 36.4425 26.4965C37.8545 26.6963 38.9975 26.896 39.8716 27.0291C40.6785 27.1623 41.4181 27.2954 42.0905 27.4286C44.3765 27.9612 46.2592 28.6269 47.6711 29.4258C44.9817 31.1567 42.4939 33.5534 40.2078 36.4827C38.0562 39.4119 36.9132 42.0083 36.9132 44.2053C36.9132 44.6047 36.9132 44.9376 36.9804 45.337C37.3166 46.7351 38.2579 47.534 39.7372 47.8669C39.8044 47.8669 39.9389 47.8669 40.1406 47.9334C40.2751 47.9334 40.4095 47.9334 40.544 47.9334C43.099 47.8669 45.8557 46.5354 48.6797 43.939C50.1589 42.4743 51.3692 40.9431 52.176 39.3454C53.0501 37.7476 53.4535 36.1498 53.4535 34.6852C53.588 32.9542 52.9156 31.3565 51.5709 29.8918ZM38.7286 45.4702C38.6614 45.2705 38.5941 45.1373 38.5269 45.0042C38.5269 44.871 38.4596 44.6713 38.4596 44.3384V44.0055C38.4596 43.8058 38.4596 43.6061 38.4596 43.4064C38.4596 43.2067 38.5269 42.9404 38.5941 42.6075C38.9303 41.276 39.6027 39.8779 40.544 38.3467C42.4939 35.5506 44.7799 33.0874 47.4694 31.0902C47.6711 30.957 47.9401 30.7573 48.209 30.5576C48.4107 30.4244 48.6125 30.2913 48.7469 30.2247C49.621 30.8904 50.2262 31.6227 50.6968 32.4216C50.8985 32.7545 51.033 33.154 51.1002 33.4202C51.1675 33.7531 51.2347 34.086 51.2347 34.4854V34.7517C51.2347 35.4841 51.1002 36.2164 50.8985 36.9487C50.3606 38.7462 49.2848 40.4771 47.8728 42.1415C46.9315 43.2067 45.8557 44.1387 44.7799 44.871C43.368 45.8031 42.0905 46.3356 40.8802 46.4688C40.544 46.4688 40.3423 46.5354 39.8716 46.4022C39.401 46.3356 38.9975 46.0028 38.7286 45.4702Z" fill="white"/>
<path d="M53.857 48C54.4882 48 55 47.4933 55 46.8682C55 46.2432 54.4882 45.7365 53.857 45.7365C53.2257 45.7365 52.7139 46.2432 52.7139 46.8682C52.7139 47.4933 53.2257 48 53.857 48Z" fill="white"/>
<path d="M32.5428 48C33.1741 48 33.6858 47.4933 33.6858 46.8682C33.6858 46.2432 33.1741 45.7365 32.5428 45.7365C31.9115 45.7365 31.3997 46.2432 31.3997 46.8682C31.3997 47.4933 31.9115 48 32.5428 48Z" fill="white"/>
</g>
<defs>
<clipPath id="clip0_301_535">
<rect width="55" height="48" fill="white"/>
</clipPath>
</defs>
</svg>
