<svg width="55" height="48" viewBox="0 0 55 48" fill="none" xmlns="http://www.w3.org/2000/svg">
<g clip-path="url(#clip0_301_303)">
<path d="M29.9878 13.1148C28.0379 9.98577 25.3484 7.98854 21.9866 7.12308C21.7176 7.0565 21.4487 6.98993 21.1797 6.92335C20.9108 6.85678 20.6418 6.85678 20.2384 6.79021C19.835 6.79021 19.2971 6.72363 18.7592 6.72363C18.154 6.72363 17.6834 6.72363 17.2127 6.79021C14.187 7.18965 11.3631 8.38799 8.8753 10.4518C4.84107 13.9802 2.01711 18.707 0.605134 24.4324C0.537897 24.7652 0.47066 25.2313 0.336186 25.7639C0.201711 26.2964 0.201711 26.7625 0.134474 27.0953C0.0672372 27.5614 0 28.094 0 28.6265V30.1578C0.0672372 31.8221 0.336186 33.0204 0.739609 33.8859C0.874083 34.1522 0.94132 34.3519 1.07579 34.4851C1.21027 34.6182 1.27751 34.7514 1.41198 34.9511C1.68093 35.2174 2.01711 35.3505 2.28606 35.3505C2.28606 35.3505 2.3533 35.3505 2.48777 35.3505C2.75672 35.3505 3.02567 35.1508 3.16015 34.7514C3.22738 34.6182 3.22738 34.4851 3.22738 34.4185C3.22738 34.0856 3.02567 33.7528 2.55501 33.7528C2.42054 33.553 2.28606 33.2202 2.21883 32.8873C2.08435 32.4879 2.01711 32.0218 1.94988 31.5558C1.88264 31.0898 1.8154 30.6903 1.74817 30.3575C1.74817 30.0246 1.68093 29.5586 1.68093 28.8928C1.68093 28.4934 1.68093 28.2271 1.68093 28.0274C1.68093 27.8277 1.68093 27.6279 1.74817 27.4282C1.74817 27.2285 1.74817 27.0288 1.8154 26.829C1.94988 25.6973 2.15159 24.6987 2.3533 23.8332C2.82396 21.9026 3.49633 20.105 4.37042 18.4407C5.44621 16.3103 6.72372 14.5128 8.1357 12.9816C11.2286 9.71947 14.7922 8.05512 18.7592 8.05512H19.0954C20.709 8.05512 22.1883 8.38799 23.6002 9.05373C27.3655 10.7847 29.8533 14.1799 30.9291 19.1064C31.2653 20.8374 31.467 22.6349 31.467 24.5655C31.467 26.1633 31.3325 27.8942 31.0636 29.6917C30.1222 35.75 28.3741 40.4768 25.9535 43.6723C24.6088 45.3367 23.1968 46.3353 21.7176 46.6682C21.5831 46.6682 21.3814 46.6682 21.2469 46.6682H20.7763C20.5746 46.6682 20.3729 46.6682 20.2384 46.6016C17.9523 46.069 16.2042 44.0052 15.0611 40.5433C14.3215 38.1467 13.9853 35.6168 13.9853 32.9539C13.9853 31.9553 14.0526 30.9566 14.1198 29.8915C14.456 27.0288 15.0611 24.6321 15.9352 22.768C16.0697 22.5017 16.2042 22.302 16.2714 22.1023C16.5403 22.3686 16.8765 22.3686 17.1455 22.2354C17.2799 22.1688 17.3472 22.1023 17.4144 22.0357C17.4817 21.9691 17.4817 21.9026 17.5489 21.7694C17.5489 21.7028 17.6161 21.5697 17.6161 21.5031C17.6161 21.37 17.6161 21.3034 17.5489 21.1702C17.1455 20.105 16.4059 20.0385 16.0024 20.105C15.599 20.1716 15.2628 20.3713 14.9266 20.7708C14.3888 21.3034 13.9181 22.0357 13.5147 23.0343C12.7751 24.7652 12.3716 26.8956 12.1699 29.3589C12.1027 29.6917 12.1027 30.0912 12.1027 30.7569V32.5544C12.1027 33.1536 12.1027 33.6196 12.1699 33.9525C12.6406 39.5447 14.187 43.6723 16.6076 46.1356C17.6161 47.1342 18.8264 47.7999 20.1039 47.9996C20.3056 48.0662 20.6418 48.0662 21.0452 48.0662C21.5159 48.0662 21.9193 47.9996 22.2555 47.9331C22.5917 47.8665 22.9951 47.6668 23.4658 47.467C24.2726 47.0676 25.0122 46.535 25.7518 45.8027C27.5672 44.0052 29.1137 41.3422 30.324 37.8138C31.467 34.5516 32.1394 30.9566 32.4755 27.2285C32.5428 26.6293 32.5428 25.8304 32.5428 24.8318C32.5428 23.8332 32.5428 23.1009 32.4755 22.5683C32.4083 18.7736 31.5342 15.6446 29.9878 13.1148Z" fill="#9C7D69"/>
<path d="M51.5709 29.8918C51.3019 29.6255 51.033 29.3592 50.764 29.0929C50.4951 28.8932 50.1589 28.6269 49.8227 28.4272C49.4193 28.1609 49.1504 27.9612 48.8814 27.828C48.6125 27.6949 48.2763 27.4951 47.8728 27.2954C46.5953 26.6963 45.1161 26.1637 43.5024 25.6976C41.8887 25.2982 39.5354 24.8322 36.6442 24.3662C35.0306 24.0999 33.753 23.8336 32.8117 23.6338C31.8704 23.4341 31.0636 23.1678 30.3912 22.9015C29.2482 22.5021 28.3741 21.9695 27.8362 21.3037C27.231 20.638 26.8949 19.7725 26.8949 18.7074C26.8949 18.4411 26.8949 18.1748 26.9621 17.9085C26.9621 17.6422 27.0293 17.3759 27.0966 17.1096C27.8362 14.3135 29.7861 11.3176 32.8117 8.32178C35.9046 5.32594 38.9303 3.26214 41.8887 2.3301C43.7041 1.73093 45.1161 1.73093 46.1247 2.39667C47.066 2.99584 47.6039 4.19417 47.7384 5.99168C47.7384 6.1914 47.7384 6.39112 47.7384 6.59085C47.7384 8.45492 47.3349 11.1179 46.5281 14.4466C46.3936 14.9792 46.2592 15.5784 46.0574 16.1775L45.3178 18.7739L45.1161 19.3731C45.0489 19.6394 45.0489 19.7725 45.0489 19.9057V20.172C45.0489 20.3051 45.0489 20.4383 45.0489 20.5049C45.0489 20.638 45.0489 20.7712 45.1834 20.9709L45.2506 21.0374C45.4523 21.3703 45.7885 21.5035 46.1247 21.5035C46.5953 21.5035 46.7971 21.2372 46.9315 21.0374C46.9988 20.9043 46.9988 20.7712 46.9988 20.638C46.9988 20.5049 46.9315 20.3051 46.8643 20.172L46.7971 20.1054C46.7971 20.0388 46.7971 19.9057 46.8643 19.4397C46.9315 19.0402 47.066 18.4411 47.2677 17.509C47.5367 16.4438 47.7384 15.5784 47.8728 15.0458C48.0073 14.4466 48.1418 13.9806 48.209 13.5811C48.2763 13.1817 48.4107 12.7157 48.478 12.2497C48.8142 10.5187 49.0159 8.98752 49.1504 7.72261C49.1504 7.32316 49.1504 6.85714 49.1504 6.25798C49.1504 5.65881 49.0831 5.19279 49.0831 4.92649C48.8814 3.32871 48.3435 2.13037 47.4694 1.33148C46.5953 0.466019 45.3178 0 43.8386 0C41.2164 0 38.0562 1.33148 34.4927 3.8613C31.5342 6.05825 29.1137 8.58807 27.231 11.3842C25.8191 13.5811 24.8777 15.7115 24.5416 17.7087C24.4743 17.9085 24.4743 18.2413 24.4743 18.5076V19.0402C24.4743 19.3731 24.4743 19.6394 24.5416 19.9057C24.945 22.4355 26.7604 24.233 29.9205 25.2316C30.5929 25.4313 31.3997 25.6311 32.4083 25.8308C33.4169 26.0305 34.7616 26.2302 36.4425 26.4965C37.8545 26.6963 38.9975 26.896 39.8716 27.0291C40.6785 27.1623 41.4181 27.2954 42.0905 27.4286C44.3765 27.9612 46.2592 28.6269 47.6711 29.4258C44.9817 31.1567 42.4939 33.5534 40.2078 36.4827C38.0562 39.4119 36.9132 42.0083 36.9132 44.2053C36.9132 44.6047 36.9132 44.9376 36.9804 45.337C37.3166 46.7351 38.2579 47.534 39.7372 47.8669C39.8044 47.8669 39.9389 47.8669 40.1406 47.9334C40.2751 47.9334 40.4095 47.9334 40.544 47.9334C43.099 47.8669 45.8557 46.5354 48.6797 43.939C50.1589 42.4743 51.3692 40.9431 52.176 39.3454C53.0501 37.7476 53.4535 36.1498 53.4535 34.6852C53.588 32.9542 52.9156 31.3565 51.5709 29.8918ZM38.7286 45.4702C38.6614 45.2705 38.5941 45.1373 38.5269 45.0042C38.5269 44.871 38.4596 44.6713 38.4596 44.3384V44.0055C38.4596 43.8058 38.4596 43.6061 38.4596 43.4064C38.4596 43.2067 38.5269 42.9404 38.5941 42.6075C38.9303 41.276 39.6027 39.8779 40.544 38.3467C42.4939 35.5506 44.7799 33.0874 47.4694 31.0902C47.6711 30.957 47.9401 30.7573 48.209 30.5576C48.4107 30.4244 48.6125 30.2913 48.7469 30.2247C49.621 30.8904 50.2262 31.6227 50.6968 32.4216C50.8985 32.7545 51.033 33.154 51.1002 33.4202C51.1675 33.7531 51.2347 34.086 51.2347 34.4854V34.7517C51.2347 35.4841 51.1002 36.2164 50.8985 36.9487C50.3606 38.7462 49.2848 40.4771 47.8728 42.1415C46.9315 43.2067 45.8557 44.1387 44.7799 44.871C43.368 45.8031 42.0905 46.3356 40.8802 46.4688C40.544 46.4688 40.3423 46.5354 39.8716 46.4022C39.401 46.3356 38.9975 46.0028 38.7286 45.4702Z" fill="#9C7D69"/>
<path d="M53.857 47.9999C54.4882 47.9999 55 47.4931 55 46.8681C55 46.243 54.4882 45.7363 53.857 45.7363C53.2257 45.7363 52.7139 46.243 52.7139 46.8681C52.7139 47.4931 53.2257 47.9999 53.857 47.9999Z" fill="#9C7D69"/>
<path d="M32.5428 47.9999C33.1741 47.9999 33.6858 47.4931 33.6858 46.8681C33.6858 46.243 33.1741 45.7363 32.5428 45.7363C31.9115 45.7363 31.3997 46.243 31.3997 46.8681C31.3997 47.4931 31.9115 47.9999 32.5428 47.9999Z" fill="#9C7D69"/>
</g>
<defs>
<clipPath id="clip0_301_303">
<rect width="55" height="48" fill="white"/>
</clipPath>
</defs>
</svg>
