<svg width="16" height="12" viewBox="0 0 16 12" fill="none" xmlns="http://www.w3.org/2000/svg">
<path d="M1.91638 10.981C2.35197 10.9716 2.76957 10.8054 3.09251 10.513C3.41545 10.2205 3.62206 9.82135 3.67443 9.38882L7.6658 11.3979C8.00218 11.5688 8.38085 11.6387 8.7561 11.5992C9.13135 11.5597 9.48715 11.4125 9.78058 11.1752L15.0736 6.91731C15.2104 6.80651 15.3207 6.66655 15.3963 6.50764C15.472 6.34874 15.5112 6.17493 15.5111 5.99893C15.5109 5.82292 15.4714 5.64918 15.3954 5.49042C15.3194 5.33166 15.2089 5.19189 15.072 5.08134L9.78002 0.824516C9.48682 0.586835 9.13098 0.439298 8.75562 0.399787C8.38026 0.360275 8.0015 0.430485 7.66524 0.601907L3.68055 2.61651C3.63961 2.20832 3.45872 1.82686 3.16855 1.53686C2.83574 1.20611 2.38559 1.02047 1.91638 1.02047C1.44717 1.02046 0.997017 1.20611 0.664208 1.53686C0.333191 1.87004 0.147174 2.32049 0.146644 2.79015L0.146087 9.21184C0.146055 9.44433 0.191824 9.67454 0.280778 9.88934C0.369732 10.1041 0.50013 10.2993 0.664523 10.4637C0.828916 10.6281 1.02408 10.7585 1.23888 10.8474C1.45368 10.9364 1.68389 10.9822 1.91638 10.9821L1.91638 10.981ZM8.02141 1.30312C8.22349 1.20149 8.4505 1.16005 8.67545 1.18373C8.90039 1.20741 9.1138 1.29521 9.29028 1.43669L14.4604 5.60503L9.99706 5.60503C9.92031 5.44861 9.80138 5.31675 9.65369 5.22431C9.50599 5.13188 9.3354 5.08255 9.16117 5.0819C9.03891 5.07933 8.91736 5.10119 8.80366 5.14622C8.68996 5.19125 8.5864 5.25852 8.49905 5.34411C8.4117 5.42969 8.34232 5.53186 8.29498 5.64461C8.24764 5.75737 8.22329 5.87844 8.22336 6.00073C8.22344 6.12302 8.24793 6.24406 8.29541 6.35676C8.34289 6.46946 8.41239 6.57154 8.49985 6.65701C8.5873 6.74249 8.69094 6.80964 8.8047 6.85453C8.91845 6.89942 9.04002 6.92114 9.16228 6.91842C9.33516 6.91948 9.50467 6.8707 9.65055 6.77792C9.79642 6.68515 9.91248 6.5523 9.98482 6.39529L14.4592 6.39529L9.28917 10.5636C9.11377 10.7071 8.90025 10.7961 8.6749 10.8197C8.44954 10.8434 8.2222 10.8006 8.02086 10.6966L3.685 8.51007L3.685 3.49025L8.02141 1.30312ZM2.90198 9.21629C2.90113 9.41072 2.84268 9.60054 2.73403 9.76177C2.62538 9.92301 2.47138 10.0484 2.2915 10.1222C2.11161 10.196 1.9139 10.2148 1.72332 10.1763C1.53274 10.1378 1.35785 10.0437 1.22073 9.90582C1.12967 9.81456 1.05763 9.70612 1.00881 9.5868C0.959997 9.46748 0.935364 9.33965 0.936347 9.21073L0.936903 2.78792C0.942159 2.52847 1.04757 2.2811 1.23107 2.0976C1.41457 1.9141 1.66193 1.80869 1.92139 1.80344C2.18062 1.80519 2.42874 1.90894 2.61205 2.09225C2.79536 2.27556 2.89911 2.52368 2.90087 2.78291L2.90198 9.21629Z" fill="#604536" stroke="#604536" stroke-width="0.2"/>
</svg>
