<svg width="50" height="20" viewBox="0 0 50 20" fill="none" xmlns="http://www.w3.org/2000/svg">
<g clip-path="url(#clip0_142_1259)">
<path d="M1.83639 12.4138C3.50584 9.11874 6.34391 6.20686 9.0985 4.90417C10.5175 4.21452 11.1853 4.4444 11.8531 5.05743C12.4374 5.59383 13.0217 6.0536 13.5225 6.51337C13.773 6.74326 14.0234 6.89651 14.2738 7.1264C14.6912 7.43291 15.192 7.58617 15.6928 7.50954C16.1937 7.43291 16.6945 7.1264 16.8614 6.66663L16.9449 6.51337L17.1119 6.20686C17.1953 5.97697 17.2788 5.74709 17.2788 5.5172C17.2788 5.21069 17.1953 4.90417 17.0284 4.67429L15.5259 2.60532C16.611 2.37544 17.6127 2.06893 18.6978 1.60916C19.1987 1.37927 19.783 1.14938 20.7846 2.68195C21.202 3.29498 21.6194 3.90801 21.9533 4.59766C22.1202 4.90417 22.2871 5.21069 22.4541 5.44057C22.7045 5.90034 23.2888 6.20686 23.8731 6.20686C24.4574 6.20686 24.9583 5.97697 25.2922 5.5172L25.4591 5.28732C25.626 5.05743 25.7095 4.75092 25.7095 4.4444C25.7095 4.29115 25.7095 4.06126 25.626 3.90801L24.7078 1.53253C29.2154 1.68578 32.4708 2.37544 34.975 6.89651C35.3088 7.50954 35.9766 7.81605 36.7279 7.73942C36.9783 7.66279 37.2287 7.58617 37.4791 7.43291L38.8982 9.19536L40.1502 10.8812C39.9833 10.8046 39.8164 10.7279 39.6494 10.6513C33.0551 7.6628 26.1269 6.59 19.1152 7.50954C18.2805 7.58617 17.6962 8.27582 17.6962 9.04211L17.6962 9.11873C17.7796 9.96165 18.4474 10.5747 19.3656 10.5747C26.6277 10.5747 32.6377 11.8774 38.0634 14.636C37.813 14.7126 37.5626 14.7892 37.3957 14.9425C37.3957 14.9425 35.5593 16.3218 34.6411 16.8582C34.3072 17.0881 34.0568 17.2413 33.7229 17.4712C33.3055 17.8544 32.5543 18.3908 32.3038 18.4674C31.2187 18.544 30.1336 18.3908 28.9649 18.1609C29.1319 17.931 29.2988 17.7011 29.3823 17.3946C29.7162 16.8582 30.0501 16.1685 30.3005 15.5555C30.384 15.3256 30.5509 15.0191 30.6344 14.7892C30.7179 14.5593 30.8013 14.4061 30.8013 14.1762C30.8013 13.8697 30.7179 13.4866 30.4674 13.2567C30.1336 12.7969 29.4658 12.567 28.8815 12.6436C27.6294 12.7969 27.1285 13.7164 26.9616 14.0229C24.6244 18.0076 23.0384 17.6245 22.4541 17.4712C20.7012 17.0115 18.9482 16.9348 17.4457 16.8582C16.8614 16.8582 16.3606 16.8582 15.8598 16.8582L16.8614 14.4827C16.9449 14.3295 16.9449 14.0996 16.9449 13.9463C16.9449 13.4866 16.6945 12.9502 16.2771 12.7203C15.6928 12.3371 14.7746 12.3371 14.1903 12.7969C13.4391 13.4099 13.0217 14.0996 12.6043 14.7126C12.5209 14.8659 12.3539 15.0191 12.2705 15.249C11.3523 16.5517 10.7679 17.2413 10.4341 17.318C10.4341 17.318 10.4341 17.318 10.3506 17.318C9.01502 16.7049 7.92988 16.0153 6.76127 15.3256C6.01002 14.8659 5.34224 14.4827 4.50751 14.0229C3.83973 13.5632 2.75459 13.0268 1.83639 12.4138ZM-3.33793e-07 12.6436C-3.23379e-07 12.8735 0.0834721 13.1034 0.33389 13.3333C1.33556 14.0996 2.67112 14.7892 3.58932 15.3256C5.7596 16.5517 7.34558 17.6245 9.59933 18.6207C11.2688 19.3869 12.5209 17.7777 13.6895 16.0919C14.1903 15.4023 14.6077 14.5593 15.2755 14.0229L13.8564 17.3946C13.773 17.5479 13.773 17.6245 13.773 17.7777C13.773 18.2375 14.1068 18.6207 14.6077 18.6207C15.5259 18.544 16.4441 18.4674 17.3623 18.4674C18.9482 18.544 20.5342 18.6207 22.0367 19.0038C24.6244 19.6934 26.6277 17.931 28.4641 14.7892C28.6311 14.4827 28.798 14.2528 29.1319 14.1762C28.7145 15.0191 28.3806 15.9387 27.9633 16.7049C27.7129 17.1647 27.379 17.6245 27.0451 18.1609C26.9616 18.3141 26.8781 18.544 26.8781 18.6973C26.8781 19.0804 27.1285 19.4636 27.5459 19.5402C29.2154 19.7701 30.8013 20.0766 32.3873 20C33.389 19.9233 34.5576 18.9272 35.6427 18.2375C36.5609 17.6245 38.4808 16.1685 38.4808 16.1685L38.1469 18.3908L38.1469 18.4674C38.1469 18.6206 38.3139 18.6973 38.4808 18.6206L40.985 16.3218L40.6511 17.7777L40.6511 17.8544C40.6511 18.0076 40.818 18.1609 40.985 18.0843L44.2404 16.6283C36.5609 10.8812 28.2137 9.11873 19.5326 9.11873C26.3773 8.27582 32.8881 9.34862 39.1486 12.1072C42.6544 13.7931 45.9099 16.1685 48.9983 19.5402C49.4157 19.9233 50 19.7701 50 19.3103C50 19.0804 49.9165 18.7739 49.5826 18.4674C47.4124 16.0153 45.2421 13.0268 43.823 11.1111C43.4891 10.6513 42.7379 9.65513 42.404 9.19536C42.404 9.19536 42.404 9.11873 42.3205 9.11873L42.3205 9.19536C42.3205 9.19536 42.2371 10.2682 42.1536 10.8812C40.4841 8.73559 38.8982 6.66663 37.3122 4.59766C37.1452 4.36778 36.8114 4.52103 36.7279 4.75092L36.4775 6.20686C33.222 0.383101 28.5476 0.0765876 23.6227 -4.05706e-05C23.1219 -4.05494e-05 22.788 0.45973 22.788 0.9195C22.788 0.996129 22.788 1.14939 22.8715 1.22601L24.1235 4.44441C24.0401 4.52103 23.9566 4.59766 23.9566 4.67429C23.3723 3.75475 22.788 2.83521 22.2037 1.91567C21.1185 0.229845 19.783 -0.536438 18.03 0.229846C16.6945 0.766244 15.3589 1.07276 14.1068 1.37927C13.6895 1.4559 13.4391 1.83904 13.4391 2.29881C13.4391 2.45207 13.5225 2.68195 13.606 2.83521L15.6928 5.67046C15.6093 5.82371 15.5259 5.97697 15.4424 6.13023C14.6912 5.44057 13.8564 4.82755 13.1052 4.13789C11.6861 2.75858 10.1002 2.83521 8.34724 3.67812C5.25876 5.13406 2.00334 8.42908 0.0834721 12.3371C-3.47678e-07 12.3371 -3.40736e-07 12.4904 -3.33793e-07 12.6436Z" fill="#604536"/>
</g>
<defs>
<clipPath id="clip0_142_1259">
<rect width="20" height="50" fill="white" transform="translate(0 20) rotate(-90)"/>
</clipPath>
</defs>
</svg>
