<svg width="1600" height="970" viewBox="0 0 1600 970" fill="none" xmlns="http://www.w3.org/2000/svg">
<path fill-rule="evenodd" clip-rule="evenodd" d="M1600 0H0V970H1600V0ZM141.439 369.947C159.702 374.804 174.313 386.012 184.905 403.571C193.306 417.768 198.054 435.701 199.15 456.622C199.516 459.611 199.516 463.721 199.516 469.325C199.516 474.929 199.516 479.412 199.15 482.774C197.324 503.696 193.671 523.87 187.462 542.177C180.887 561.978 172.486 576.922 162.624 587.009C158.607 591.119 154.589 594.107 150.206 596.349C149.64 596.597 149.093 596.845 148.563 597.084L148.562 597.085C146.697 597.929 145.053 598.673 143.631 598.964C141.805 599.338 139.613 599.711 137.056 599.711C134.865 599.711 133.039 599.711 131.943 599.338C125.003 598.217 118.428 594.481 112.949 588.877C99.8 575.054 91.3991 551.89 88.8423 520.508C88.477 518.64 88.477 516.025 88.477 512.663V512.662V502.575V502.575C88.477 498.839 88.477 496.598 88.8423 494.73C89.938 480.906 92.1296 468.951 96.1474 459.238C98.339 453.633 100.896 449.524 103.818 446.535C105.644 444.293 107.47 443.173 109.662 442.799C111.854 442.052 115.871 442.799 117.698 449.15C118.063 449.897 118.063 450.271 118.063 451.018C118.063 451.205 117.972 451.485 117.88 451.765C117.789 452.046 117.698 452.326 117.698 452.513C117.558 452.798 117.472 453.029 117.398 453.226C117.279 453.545 117.193 453.776 116.967 454.007C116.602 454.381 116.237 454.754 115.506 455.128C114.045 455.875 112.219 455.875 110.758 454.381C110.522 455.104 110.134 455.828 109.692 456.653C109.449 457.105 109.19 457.587 108.931 458.117C104.183 468.578 100.896 482.027 99.0695 498.092L99.0049 499.147C98.6624 504.731 98.339 510.004 98.339 515.278C98.339 530.222 100.165 544.418 104.183 557.868C110.392 577.295 119.889 588.877 132.308 591.866C133.039 592.239 134.134 592.239 135.23 592.239H137.787H140.344C148.379 590.371 156.05 584.767 163.355 575.427C176.504 557.494 186.001 530.969 191.115 496.971C192.576 486.884 193.306 477.17 193.306 468.204C193.306 457.369 192.21 447.282 190.384 437.569C184.54 409.922 171.025 390.869 150.571 381.155C142.9 377.419 134.865 375.551 126.099 375.551H124.272C102.722 375.551 83.3634 384.891 66.5615 403.197C58.8911 411.79 51.9512 421.877 46.107 433.833C41.3587 443.173 37.7061 453.26 35.1493 464.094C34.0535 468.951 32.9577 474.555 32.2272 480.906C31.862 482.027 31.862 483.148 31.862 484.269C31.4967 485.39 31.4967 486.51 31.4967 487.631V492.488C31.4967 494.676 31.6221 496.48 31.7259 497.975C31.7993 499.031 31.862 499.933 31.862 500.707C32.2272 502.575 32.5925 504.817 32.9577 507.432C33.323 510.047 33.6883 512.662 34.4188 514.904C34.784 516.772 35.5146 518.64 36.2451 519.761C38.8019 519.761 39.8977 521.629 39.8977 523.497C39.8977 523.87 39.8977 524.618 39.5324 525.365C38.8019 527.606 37.3408 528.727 35.8798 528.727H34.784C32.9577 528.727 31.1315 527.606 29.6704 526.486C29.4747 526.185 29.3052 525.912 29.1478 525.658C28.7179 524.964 28.3789 524.417 27.8441 523.87C27.3094 523.323 26.9703 522.576 26.5405 521.629C26.3831 521.282 26.2136 520.908 26.0178 520.508C23.8263 515.651 22.3653 508.926 22 499.586V490.994C22 489.207 22.1031 487.526 22.1998 485.95C22.285 484.56 22.3653 483.253 22.3653 482.027C22.5077 481.299 22.5946 480.457 22.6909 479.523C22.8416 478.063 23.0154 476.378 23.461 474.555C23.9704 472.471 24.3021 470.569 24.5802 468.975C24.7009 468.283 24.8115 467.649 24.9221 467.083C32.5925 434.953 47.9333 408.428 69.8488 388.627C83.3634 377.045 98.7042 370.321 115.141 368.079H123.542H131.943C132.903 368.243 133.723 368.335 134.465 368.418L134.466 368.418C135.415 368.524 136.236 368.616 137.056 368.826L141.439 369.947ZM540.667 481.654C539.936 481.654 539.206 482.027 538.475 482.775C538.11 483.148 537.745 483.522 537.379 484.269L537.014 484.643C534.823 487.631 531.535 491.367 527.152 495.851C519.847 503.323 512.907 508.927 505.967 512.289C505.361 512.565 504.767 512.84 504.183 513.111L504.179 513.113C501.599 514.311 499.217 515.416 496.836 516.025C490.626 517.893 484.417 517.893 479.303 516.025C470.172 513.036 463.962 505.564 461.04 493.609C460.31 490.994 459.945 488.005 459.579 485.017L459.579 485.016C459.579 483.976 459.501 482.855 459.416 481.654C459.319 480.267 459.214 478.772 459.214 477.171V474.182V470.072V466.71C459.214 465.589 458.849 464.468 458.484 463.348L458.484 463.347C457.388 461.479 455.927 460.359 454.101 460.359C453.37 460.359 452.639 460.359 452.274 460.732C450.813 461.106 449.717 462.227 449.352 463.721C447.891 462.6 446.065 461.853 443.873 461.853H442.778C442.047 461.853 441.316 461.853 440.221 462.227C439.855 462.351 439.531 462.476 439.206 462.6C438.557 462.849 437.907 463.098 436.933 463.347C431.455 466.336 427.071 471.94 424.515 479.786C424.408 480.221 424.271 480.689 424.129 481.169C423.786 482.338 423.419 483.584 423.419 484.643C421.593 486.511 419.401 488.379 417.209 490.247C413.922 492.862 411 495.103 408.809 496.598C402.599 500.707 396.024 502.575 390.18 502.575H387.989C378.857 501.828 372.283 497.345 367.534 488.752C367.309 488.521 367.083 488.148 366.771 487.632L366.771 487.631L366.771 487.631C366.578 487.312 366.352 486.939 366.073 486.511C365.602 485.787 365.282 485.063 364.918 484.239C364.719 483.786 364.506 483.304 364.247 482.775C364.133 482.511 364.02 482.252 363.91 481.998L363.91 481.997L363.91 481.997L363.909 481.997C362.614 479.008 361.604 476.68 360.594 475.303L360.594 475.301C359.498 473.807 358.403 472.313 357.307 471.193C351.828 465.963 345.619 466.71 338.679 473.808L336.122 477.918C335.587 478.465 335.053 479.212 334.375 480.159L334.374 480.16C334.126 480.506 333.859 480.88 333.565 481.28C329.913 486.137 326.26 493.609 322.242 503.323V502.202C321.877 497.345 321.512 492.488 321.512 487.631V479.786C321.512 476.797 321.512 474.182 321.877 471.94V469.325L322.242 468.951V468.578C322.394 468.423 322.545 468.204 322.722 467.948C322.973 467.585 323.275 467.147 323.703 466.71C333.565 453.26 341.966 434.58 348.541 411.79C348.966 410.484 349.268 408.925 349.59 407.26C349.821 406.066 350.062 404.819 350.367 403.571C350.643 402.302 350.867 401.139 351.078 400.042C351.426 398.234 351.739 396.606 352.193 394.978C352.559 393.11 352.559 390.869 352.559 388.627V385.265V382.65C351.463 376.298 348.176 374.057 345.619 373.683C342.697 372.936 339.775 373.31 336.487 375.551C333.2 377.793 330.278 381.155 327.721 386.012C322.973 394.231 319.32 404.692 316.398 417.021C314.207 427.855 312.38 440.184 312.015 453.634V462.974V476.423C312.015 480.907 312.015 483.895 312.38 485.39C312.55 486.951 312.641 488.35 312.726 489.664V489.665L312.726 489.665L312.726 489.666L312.726 489.668V489.668V489.668C312.824 491.183 312.915 492.583 313.111 493.983C312.015 497.719 310.919 500.707 309.824 503.696C308.363 507.806 306.536 512.289 304.345 516.772C295.213 536.573 285.716 548.155 276.22 551.517C275.124 551.891 274.028 551.891 272.567 551.891H271.471H268.915C267.088 551.517 265.627 550.77 264.166 549.649C252.113 540.683 244.808 521.255 241.885 491.367C241.885 490.62 241.885 489.499 241.52 487.631C241.52 486.137 241.52 484.269 241.155 482.775V475.676L242.251 474.555C244.877 471.869 247.209 468.578 249.776 464.955L249.776 464.955C250.065 464.548 250.356 464.136 250.652 463.721C258.322 450.645 265.262 436.074 270.741 419.636C275.124 405.813 277.316 395.726 277.316 387.88C277.316 377.046 272.567 374.057 268.915 372.936C263.801 371.815 258.687 374.804 253.208 381.529C248.095 388.254 243.347 397.594 239.329 409.175C233.85 425.987 231.293 445.788 231.293 468.204C231.293 473.808 231.293 478.665 231.658 482.775C231.689 483.115 231.719 483.458 231.749 483.803V483.803L231.749 483.805C232.087 487.628 232.449 491.739 233.119 495.851C235.311 513.783 239.329 528.727 244.808 539.935C250.652 551.517 257.957 558.242 266.358 560.484H266.723H269.645H271.837C272.932 560.484 274.393 560.484 275.855 560.11C285.351 557.121 294.483 548.528 302.518 533.958C303.614 532.09 305.075 529.475 306.536 526.486C307.161 525.208 307.718 523.931 308.238 522.741C308.934 521.147 309.561 519.71 310.189 518.64C311.65 515.278 313.111 511.915 314.207 508.553V508.927C314.572 511.168 314.937 513.036 315.302 514.157C315.668 515.651 316.398 516.772 317.129 517.146L317.494 517.519L319.685 518.64H320.051L320.416 519.387L320.781 518.64C321.209 518.64 321.512 518.512 321.762 518.406C321.94 518.331 322.091 518.267 322.242 518.267C323.187 517.944 323.589 517.066 323.916 516.351L323.954 516.268C323.966 516.241 323.979 516.215 323.991 516.189C324.005 516.158 324.019 516.128 324.033 516.098C324.045 516.073 324.057 516.049 324.069 516.025C324.434 515.278 325.164 513.783 325.895 511.542C329.547 501.828 333.2 493.983 336.853 488.752C342.697 479.786 345.984 478.665 347.445 478.665C347.445 478.665 348.176 478.665 348.906 480.159C349.704 481.247 350.501 482.928 351.58 485.203C351.984 486.054 352.427 486.988 352.924 488.005C354.75 492.115 356.577 495.477 358.038 497.719C359.499 499.96 361.325 502.202 363.151 503.696C367.534 508.179 373.013 510.795 379.588 512.289C392.007 514.904 405.156 511.168 417.575 500.707C418.305 500.147 419.036 499.493 419.766 498.839C420.497 498.186 421.227 497.532 421.958 496.971V497.719V502.202C421.958 505.191 423.054 508.179 424.515 511.915C427.071 517.146 430.359 517.893 432.55 517.893C437.299 517.893 441.682 513.036 445.7 503.323C446.43 501.828 447.16 499.587 447.891 497.346L447.891 497.345C448.04 496.888 448.189 496.446 448.335 496.013L448.336 496.012C448.905 494.325 449.427 492.778 449.717 490.994C454.831 511.915 465.058 523.871 480.399 526.486H483.686H486.608C488.07 526.486 489.531 526.486 490.992 526.112C501.219 524.618 511.811 519.387 522.039 510.795C525.326 508.179 528.978 504.817 532.266 500.707C535.918 496.971 538.84 493.235 541.032 489.873C542.128 488.379 542.858 487.258 542.858 486.137C543.589 482.775 542.493 481.654 540.667 481.654ZM433.646 507.806C432.55 506.685 431.82 504.443 431.82 501.455V499.587C431.82 498.601 431.922 497.616 432.018 496.685V496.685V496.684L432.018 496.683C432.104 495.851 432.185 495.062 432.185 494.356L432.185 494.355C432.551 492.861 432.916 491.367 433.281 489.499C435.472 482.775 438.029 477.544 441.682 474.182C443.143 472.314 444.239 472.314 444.604 472.314C444.969 472.314 445.7 472.314 446.065 474.182C446.065 474.306 446.105 474.431 446.16 474.597C446.268 474.929 446.43 475.427 446.43 476.423V479.039C446.339 479.412 446.247 479.832 446.145 480.305C445.837 481.724 445.426 483.615 444.604 486.137C444.056 487.818 443.508 489.406 442.96 490.994C442.412 492.582 441.864 494.169 441.316 495.851C438.029 504.443 435.472 507.432 434.011 508.553C434.011 507.806 434.011 507.806 433.646 507.806ZM346.349 387.88V389.748C345.619 400.582 341.966 414.406 335.392 431.591C331.374 441.305 327.356 449.898 322.608 457.37L322.973 455.502C322.973 454.941 323.064 454.474 323.155 454.007C323.247 453.54 323.338 453.073 323.338 452.513L323.703 447.283C324.178 443.157 324.807 439.504 325.389 436.12L325.389 436.119L325.389 436.118L325.389 436.118C325.704 434.293 326.004 432.545 326.26 430.844C326.991 425.987 328.086 421.13 329.547 415.9C333.565 400.582 337.948 389.748 343.062 383.77C344.158 382.65 344.523 382.276 344.888 382.276C345.619 382.276 346.349 383.77 346.349 387.88ZM271.471 384.891V387.133V389.374C271.471 390.495 271.471 391.616 271.106 392.737C271.106 393.624 270.877 394.979 270.601 396.616C270.528 397.048 270.452 397.499 270.376 397.967C268.184 408.802 264.166 421.504 258.322 434.954C255.765 440.931 252.478 447.282 249.191 453.26C246.269 458.491 243.712 462.6 241.52 465.963C241.52 465.257 241.602 464.551 241.688 463.807C241.784 462.974 241.885 462.092 241.885 461.106C242.251 456.623 242.616 452.513 242.981 448.777C244.442 434.954 247.364 421.504 251.017 409.549C256.131 393.858 261.609 384.518 267.088 381.155C267.454 380.782 267.819 380.782 268.184 380.782C268.549 380.782 268.915 380.782 268.915 381.155C269.645 381.529 270.01 382.65 270.376 384.144C271.106 384.144 271.471 384.518 271.471 384.891ZM879.991 469.325C883.644 467.83 886.201 468.204 888.758 470.072L890.584 469.325C891.314 470.445 891.68 471.566 891.68 472.314C891.68 473.06 891.315 473.807 890.95 474.554L890.949 474.555L890.219 475.302C889.123 476.05 886.931 476.423 885.105 476.05H884.375C882.914 476.05 881.452 476.797 879.991 478.665C875.608 483.522 871.591 492.114 867.938 505.19C867.938 506.077 867.709 506.73 867.433 507.519L867.432 507.523C867.359 507.73 867.283 507.947 867.207 508.179C866.842 509.3 866.477 510.047 866.112 510.421C864.651 512.662 862.824 513.41 861.729 513.41C860.998 513.41 860.267 513.41 859.902 513.036L859.537 512.662C859.427 512.549 859.283 512.437 859.126 512.313L859.125 512.313L859.125 512.313C858.763 512.028 858.331 511.689 858.076 511.168C857.345 510.421 856.98 509.674 856.615 508.926C856.25 508.179 855.884 507.058 855.519 505.564C852.232 516.398 848.579 526.486 844.561 534.705C838.717 546.66 832.508 554.506 825.568 557.868C824.107 558.615 823.011 558.989 821.915 559.362C821.407 559.362 820.82 559.443 820.19 559.529C819.463 559.629 818.68 559.736 817.898 559.736H817.532H814.975C814.245 559.736 813.514 559.736 812.784 559.362C811.323 558.989 809.862 558.242 808.401 557.494C806.575 556.747 805.479 556 804.018 554.879C792.329 545.539 784.659 526.112 779.911 495.103C778.084 482.027 776.989 467.83 776.989 452.513V442.799V434.206V430.097H776.623C775.225 430.097 773.613 430.316 771.623 430.586C771.013 430.669 770.369 430.756 769.683 430.844L767.492 431.217C753.977 433.085 740.463 435.327 728.044 437.569C727.374 437.74 726.781 437.833 726.229 437.919C725.578 438.021 724.985 438.114 724.391 438.316C724.026 440.557 723.296 443.546 722.565 446.535C722.371 447.462 722.188 448.33 722.017 449.144C721.222 452.922 720.674 455.525 720.374 457.369C720.008 460.358 720.008 461.105 720.008 461.479L720.374 461.853C720.421 461.997 720.468 462.135 720.514 462.268C720.562 462.406 720.609 462.537 720.654 462.664L720.66 462.68C720.908 463.374 721.104 463.921 721.104 464.468C721.104 465.215 721.104 465.962 720.739 466.71C720.374 467.457 719.278 468.951 716.721 468.951C715.625 468.951 713.799 468.577 712.338 466.336L711.973 465.589C711.607 465.215 711.607 464.468 711.607 463.721V461.853V460.358C711.607 459.611 711.607 458.864 711.973 457.743L713.799 451.018L716.721 439.81H716.356C714.895 439.81 713.799 439.81 713.068 439.063C711.607 437.942 710.877 436.821 710.877 435.701V434.953C710.877 433.459 711.607 432.338 712.703 431.217C713.434 430.844 714.164 430.47 714.895 430.47L718.547 430.097H718.913C723.296 411.417 725.487 396.473 725.487 386.012V382.649C724.757 372.562 721.835 365.464 716.721 362.101C711.242 358.365 703.206 358.365 693.344 361.728C677.273 366.958 660.836 378.54 644.035 395.352C627.598 412.537 617.005 429.349 612.988 445.041C612.95 445.235 612.912 445.426 612.874 445.612C612.85 445.734 612.825 445.853 612.801 445.972L612.801 445.972L612.801 445.975C612.507 447.424 612.257 448.661 612.257 449.897C611.892 451.392 611.892 452.886 611.892 454.381C611.892 460.358 613.718 465.215 617.005 469.325C619.928 472.687 624.676 476.05 630.885 478.291C634.538 479.786 638.921 481.28 644.035 482.401C649.148 483.522 656.088 485.016 664.854 486.51C680.56 489.126 693.344 491.741 702.111 493.982C710.877 496.598 718.913 499.586 725.852 502.949C727.059 503.566 728.155 504.183 729.14 504.737C729.944 505.19 730.675 505.602 731.331 505.938C732.4 506.484 733.469 507.231 734.825 508.178L734.826 508.179L734.827 508.179C735.323 508.526 735.858 508.9 736.445 509.3C737.919 510.205 739.394 511.353 740.676 512.352L740.898 512.525L741.071 512.659C741.17 512.736 741.268 512.812 741.365 512.887C741.43 512.937 741.495 512.987 741.559 513.036C743.019 514.157 744.48 515.651 745.941 517.145L745.942 517.146C752.882 524.991 756.534 534.331 756.534 544.045C756.534 551.89 753.977 560.857 749.594 569.823C745.211 578.79 738.636 587.383 730.601 595.602C715.625 610.172 700.65 617.644 686.77 618.018H684.578C683.482 617.644 682.752 617.644 682.387 617.644C674.351 616.15 669.237 611.293 667.411 603.821C667.046 601.953 667.046 599.711 667.046 597.843C667.046 585.888 672.89 571.318 684.578 554.879C696.997 538.067 710.877 524.618 725.487 514.904C717.817 510.421 707.59 506.311 694.805 503.322C691.153 502.575 687.135 501.828 682.752 501.081C682.066 500.964 681.336 500.838 680.561 500.704L680.56 500.704C676.381 499.983 670.902 499.037 664.124 498.092C662.256 497.786 660.464 497.496 658.748 497.218L658.677 497.207L658.645 497.202C652.023 496.13 646.544 495.243 642.208 494.356C636.729 493.235 632.346 492.114 628.694 490.994C611.527 485.39 601.665 475.676 599.473 461.479C599.108 459.985 599.108 458.117 599.108 456.622V453.633C599.108 452.139 599.108 450.271 599.473 449.15C601.299 438.316 606.413 426.361 614.083 414.032C624.311 398.341 637.46 384.144 653.531 371.815C672.89 357.244 689.692 350.146 703.937 350.146C712.338 350.146 718.913 352.388 723.661 357.244C728.409 361.728 731.331 368.079 732.427 376.672C732.427 377.469 732.494 378.333 732.57 379.324L732.57 379.328V379.328V379.329C732.672 380.66 732.792 382.218 732.792 384.144V392.363C732.062 399.461 730.966 408.054 729.14 417.768C728.934 419.24 728.613 420.712 728.306 422.117C728.068 423.209 727.838 424.26 727.679 425.24C727.313 426.361 726.948 427.855 726.583 429.723H726.948C728.346 429.723 730.387 429.504 732.905 429.234L732.91 429.233C733.68 429.151 734.494 429.063 735.349 428.976C738.636 428.602 741.833 428.229 745.029 427.855C748.225 427.481 751.421 427.108 754.708 426.734C756.21 426.553 757.669 426.373 759.086 426.197L759.088 426.197L759.091 426.197C763.528 425.647 767.546 425.149 771.145 424.866C772.562 424.705 773.708 424.544 774.641 424.413C775.871 424.24 776.731 424.119 777.354 424.119V423.745L777.719 421.13C778.084 420.009 778.084 418.889 778.084 417.394C778.45 411.79 778.815 406.56 779.18 401.703C779.608 398.639 779.911 396.087 780.161 393.974L780.163 393.964C780.339 392.474 780.49 391.202 780.641 390.121C781.006 387.88 781.372 386.385 782.102 384.517C782.232 384.186 782.35 383.879 782.46 383.591C782.974 382.252 783.327 381.33 783.929 380.408C786.851 376.298 790.138 375.551 793.425 377.793C794.886 379.287 795.252 380.408 795.252 381.155V382.649C795.252 383.397 795.252 384.891 794.886 386.759C794.886 389.001 794.521 391.616 794.156 393.857C793.983 394.92 793.727 396.15 793.429 397.588L793.428 397.596C793.097 399.19 792.713 401.039 792.329 403.197C791.964 404.879 791.69 406.56 791.416 408.241C791.142 409.922 790.868 411.604 790.503 413.285C789.967 415.754 789.627 418.021 789.34 419.94C789.236 420.634 789.139 421.282 789.042 421.877V422.998H789.773C797.808 422.251 807.305 421.877 817.898 421.504C828.49 421.13 843.831 420.757 863.92 420.383C867.438 420.383 870.426 420.248 872.805 420.14C874.379 420.069 875.686 420.009 876.704 420.009C878.652 420.009 879.951 419.843 880.817 419.733C881.25 419.677 881.574 419.636 881.818 419.636C883.279 419.262 884.009 419.262 884.74 419.262H885.836C886.931 419.636 888.027 420.383 888.758 421.504C888.855 421.804 888.953 422.077 889.044 422.331C889.292 423.025 889.488 423.572 889.488 424.119C889.488 425.24 889.123 427.108 886.566 428.229C885.836 428.602 885.105 428.602 884.74 428.602H882.914C881.452 428.229 879.626 427.855 877.8 427.855C875.974 427.481 873.052 427.481 869.034 427.481H851.867C845.765 427.481 840.229 427.597 835.323 427.7L835.321 427.7C831.417 427.782 827.912 427.855 824.837 427.855C817.903 428.228 810.604 428.602 803.305 428.975L803.287 428.976C801.096 428.976 798.539 428.976 795.982 429.349C794.35 429.349 792.946 429.466 791.706 429.569C790.726 429.65 789.848 429.723 789.042 429.723H787.581C787.581 430.844 787.581 431.591 787.216 433.085C785.755 445.788 785.024 457.743 785.024 468.951C785.024 474.929 785.39 480.906 785.755 486.51C788.677 519.014 795.617 540.682 806.94 550.77C811.323 554.132 815.706 555.626 820.089 554.132C822.281 553.385 824.837 551.89 827.029 549.275C833.238 542.924 839.448 532.09 844.927 516.772C846.753 512.289 848.214 508.179 849.31 504.07C849.752 502.26 850.328 500.176 850.957 497.901C851.367 496.419 851.8 494.856 852.232 493.235C852.042 492.068 851.95 490.9 851.855 489.68C851.768 488.557 851.676 487.39 851.501 486.137C851.136 484.642 851.136 483.148 851.136 481.28V477.17V474.182C851.501 472.314 851.501 471.193 851.501 470.446C851.867 468.204 852.597 466.71 853.693 465.589C855.519 463.347 858.441 462.6 860.998 464.094C863.555 465.215 863.92 468.577 863.92 469.698C864.285 470.446 864.285 471.566 864.285 472.314C864.285 473.061 864.285 474.182 863.92 475.676C863.92 476.914 863.67 478.664 863.376 480.714L863.376 480.715C863.315 481.14 863.252 481.578 863.19 482.027L863.189 482.03V482.031V482.032C862.824 487.261 862.459 492.489 862.459 496.598V497.718C865.381 488.752 869.034 481.654 872.686 476.797C873.417 475.676 874.877 474.182 876.338 472.688L876.339 472.687L876.339 472.687L876.34 472.686L876.34 472.685C877.801 471.192 878.896 470.072 879.991 469.325ZM674.351 601.953C674.351 602.7 674.716 603.447 675.447 604.568C676.908 607.557 679.099 609.051 682.387 609.799C684.249 610.343 685.143 610.292 686.338 610.225C686.783 610.2 687.271 610.172 687.866 610.172C694.44 609.425 701.38 606.436 709.051 601.206C714.895 596.723 720.739 591.492 725.852 585.515C733.523 576.175 739.367 566.461 742.289 556.374C743.385 552.264 744.115 548.154 744.115 544.045V542.55C744.115 540.309 743.75 538.441 743.385 536.573C743.02 535.078 742.289 532.837 741.193 530.969C739.002 526.112 735.349 522.002 730.601 518.266C729.986 518.476 729.486 518.804 728.907 519.183L728.906 519.183L728.906 519.183C728.454 519.479 727.954 519.807 727.314 520.134C726.763 520.556 726.213 520.925 725.683 521.281C724.804 521.871 723.979 522.424 723.296 523.123C708.685 534.705 696.267 548.528 685.674 564.219C680.56 572.812 676.908 580.658 675.082 588.13C674.351 589.998 673.986 591.492 673.986 592.613V595.975V597.843C673.986 598.988 674.123 599.992 674.229 600.77C674.296 601.262 674.351 601.663 674.351 601.953ZM915.056 441.678C915.311 442.199 915.743 442.539 916.105 442.823C916.263 442.946 916.407 443.06 916.517 443.173C916.883 443.359 917.156 443.546 917.43 443.733C917.704 443.92 917.978 444.107 918.344 444.293H918.709C918.892 444.293 919.165 444.387 919.439 444.48C919.713 444.574 919.987 444.667 920.17 444.667C921.631 444.667 923.092 444.293 924.188 443.173C925.284 442.425 926.379 440.931 926.379 438.316C926.379 437.569 926.379 436.448 926.014 435.701C925.649 434.953 925.284 434.206 924.553 433.459C923.457 432.338 921.996 431.965 920.535 431.965H918.709C917.613 431.965 916.152 433.085 915.422 434.58C915.239 434.767 915.056 435.047 914.874 435.327C914.691 435.607 914.508 435.887 914.326 436.074C914.326 436.229 914.263 436.448 914.19 436.704C914.086 437.067 913.961 437.505 913.961 437.942C913.961 438.689 913.961 439.437 914.326 439.81C914.326 440.357 914.522 440.704 914.77 441.144C914.861 441.305 914.958 441.478 915.056 441.678ZM1576.54 482.027H1578V484.269C1578 484.456 1577.91 484.736 1577.82 485.016C1577.73 485.296 1577.63 485.577 1577.63 485.763C1577.41 485.994 1577.32 486.368 1577.2 486.884C1577.13 487.203 1577.04 487.577 1576.9 488.005C1576.9 488.634 1576.67 489.382 1576.41 490.247C1576.2 490.922 1575.97 491.669 1575.81 492.488C1575.44 492.862 1575.44 493.235 1575.44 493.609C1570.33 510.421 1565.58 523.871 1560.83 533.958C1552.8 549.649 1543.3 558.242 1532.71 558.989H1532.34H1530.52H1529.42H1529.06C1523.21 557.868 1518.1 554.879 1513.71 549.649C1509.33 544.045 1505.31 536.573 1502.39 527.233C1499.83 519.387 1498.01 510.421 1496.91 499.96C1494.36 508.179 1491.8 513.41 1488.88 516.025C1487.05 517.893 1485.22 518.64 1482.67 518.64C1479.75 518.64 1477.19 517.146 1475 514.531C1472.44 510.795 1470.98 507.059 1470.61 503.323C1470.53 502.534 1470.44 501.787 1470.36 501.081C1470.1 498.775 1469.88 496.907 1469.88 495.477V493.983C1469.34 494.356 1468.88 494.636 1468.42 494.916C1467.97 495.197 1467.51 495.477 1466.96 495.851C1451.99 505.191 1437.74 510.047 1425.32 510.047H1422.03C1409.98 508.927 1400.12 502.949 1393.18 492.862C1392.97 492.442 1392.65 492.023 1392.28 491.537C1391.99 491.158 1391.67 490.738 1391.35 490.247L1389.16 486.884C1386.97 483.148 1385.87 481.654 1385.51 481.28C1384.78 480.533 1384.05 480.533 1384.05 480.533C1382.95 480.533 1381.49 480.907 1379.3 483.148C1374.92 487.258 1370.17 495.103 1365.42 505.938C1364.32 508.927 1363.23 511.168 1362.5 512.663C1361.4 514.531 1360.67 515.651 1359.94 516.399C1358.85 517.146 1357.75 517.519 1356.65 517.519C1355.92 517.519 1355.19 517.519 1354.83 517.146C1354.64 516.959 1354.37 516.772 1354.1 516.585C1353.82 516.399 1353.55 516.212 1353.37 516.025C1351.91 514.157 1349.71 510.421 1348.62 496.971C1348.25 497.718 1347.89 498.092 1347.16 498.839L1347.16 498.839C1343.87 502.949 1340.22 506.311 1336.93 508.927C1326.7 517.519 1316.11 522.75 1305.88 524.244C1304.42 524.618 1302.96 524.618 1301.5 524.618H1298.58H1295.29C1279.95 522.003 1269.72 510.047 1264.61 489.126C1264.32 490.91 1263.8 492.457 1263.23 494.144C1263.08 494.577 1262.93 495.019 1262.78 495.477L1262.78 495.48C1262.05 497.721 1261.32 499.961 1260.59 501.455C1256.57 511.168 1252.19 516.025 1247.44 516.025C1245.25 516.025 1241.96 515.278 1239.41 510.047C1239.41 509.861 1239.31 509.674 1239.22 509.487C1239.13 509.3 1239.04 509.113 1239.04 508.927L1239.04 508.93C1237.94 511.917 1236.85 514.905 1235.39 517.893C1234.88 518.933 1234.37 520.054 1233.83 521.256C1233.2 522.643 1232.52 524.137 1231.74 525.739C1230.97 527.147 1230.33 528.359 1229.77 529.429C1228.99 530.914 1228.35 532.125 1227.72 533.211C1219.68 547.781 1210.55 556.374 1201.05 559.363C1199.59 559.736 1198.13 559.736 1197.04 559.736H1194.84H1191.92H1191.56C1183.16 557.495 1175.85 550.77 1170.01 539.188C1164.53 527.98 1160.51 513.036 1158.32 495.103V494.356C1155.03 497.345 1151.38 499.96 1147.73 502.575C1138.96 507.806 1129.46 510.421 1119.24 510.421H1118.14C1111.57 510.421 1105.72 508.553 1100.61 504.817C1098.78 504.07 1097.32 502.949 1096.22 501.455C1095.13 500.334 1093.67 498.839 1092.57 496.971C1090.75 501.828 1089.28 507.059 1088.19 512.289C1087.09 517.146 1086.36 521.629 1086.36 525.365C1086.36 525.982 1086.25 526.486 1086.15 526.939C1086.07 527.308 1086 527.644 1086 527.98C1086 528.727 1085.63 529.475 1084.9 530.222C1084.54 530.595 1083.81 531.343 1082.71 531.343H1082.34C1081.25 531.343 1080.15 530.969 1079.42 530.222L1078.33 529.101C1078.1 529.101 1078.02 528.958 1077.9 528.761C1077.82 528.639 1077.74 528.497 1077.6 528.354L1077.23 527.98C1076.66 526.508 1076.08 524.109 1075.33 520.965C1075.12 520.118 1074.91 519.218 1074.67 518.267C1073.58 513.783 1072.85 508.927 1072.48 504.443C1072.12 501.828 1071.75 498.839 1071.75 496.224L1071.75 496.225C1069.56 498.466 1067 501.081 1064.45 503.323C1059.33 508.179 1053.85 512.289 1048.74 515.278C1037.78 522.003 1027.56 525.365 1018.42 525.365H1015.5C1001.99 523.871 992.857 516.399 988.473 503.696C987.743 500.707 987.012 497.719 986.647 494.73C981.168 499.96 975.689 504.443 970.941 507.806C962.54 513.41 953.774 516.772 945.008 518.267C944.277 518.64 943.181 518.64 942.086 518.64H937.702C936.241 518.64 935.146 518.64 934.415 518.267C923.823 516.772 916.518 510.421 911.769 499.587C909.943 494.73 908.847 489.873 908.117 484.643V480.533V478.291C908.256 477.15 908.342 476.172 908.416 475.336C908.535 473.985 908.621 473.006 908.847 472.314C909.578 468.951 911.039 466.336 913.23 465.215C915.056 464.468 916.518 464.468 917.979 465.215C919.44 465.589 920.535 466.71 920.901 468.204C921.266 468.578 921.266 469.325 921.266 469.699C921.266 469.885 921.175 470.165 921.083 470.446C920.992 470.726 920.901 471.006 920.901 471.193C920.901 471.529 920.827 471.865 920.746 472.234C920.646 472.687 920.535 473.191 920.535 473.808C919.805 476.423 919.44 478.291 919.44 479.786C919.44 480.491 919.358 481.197 919.272 481.942C919.176 482.775 919.074 483.656 919.074 484.643V486.511C919.074 495.103 921.631 501.828 926.014 506.311C929.302 509.674 933.319 511.542 938.798 511.915H940.99C949.756 511.915 958.887 508.553 969.115 501.828C974.959 497.719 981.168 492.488 987.378 486.511C987.743 481.654 988.839 476.797 991.03 471.94C993.952 465.962 997.605 461.853 1001.99 459.611C1002.35 459.424 1002.81 459.238 1003.27 459.051C1003.72 458.864 1004.18 458.677 1004.54 458.49C1005.64 458.117 1006.37 458.117 1007.47 458.117C1011.48 458.117 1016.23 460.358 1017.33 469.699V471.566C1017.33 473.435 1017.33 475.676 1016.6 478.291C1016.23 480.159 1015.87 481.28 1015.14 482.027C1014.77 482.401 1014.04 483.148 1012.95 483.148C1012.22 483.148 1011.48 482.775 1010.75 482.401C1010.02 482.027 1009.66 481.28 1009.66 480.159V477.544C1009.66 476.797 1009.66 476.05 1010.02 474.929C1010.08 474.656 1010.13 474.391 1010.18 474.132C1010.49 472.617 1010.75 471.294 1010.75 469.699V468.951C1010.75 466.71 1010.75 465.589 1010.39 465.215C1010.39 464.842 1010.02 464.842 1010.02 464.842C1010.02 464.842 1008.56 464.842 1006.37 468.578C1003.81 473.061 1001.99 477.544 1001.26 481.654C1000.53 486.137 1000.16 489.499 1000.16 492.115C1000.16 494.73 1000.53 497.345 1000.89 499.587C1002.35 506.685 1005.64 511.168 1011.48 514.157C1014.41 515.651 1017.69 516.399 1021.35 516.399H1022.81C1027.92 516.399 1033.77 514.904 1039.97 512.289C1051.3 506.685 1062.62 498.092 1072.85 486.511V475.676V466.71C1074.31 435.701 1079.06 411.417 1087.46 393.858C1090.38 387.88 1093.67 383.023 1096.95 379.661C1100.24 376.298 1103.53 374.43 1106.82 374.43C1109.01 374.43 1113.39 375.178 1114.85 381.529C1115.22 382.649 1115.22 384.143 1115.22 386.383V386.386V391.99C1113.03 406.934 1106.45 425.987 1095.86 448.403C1091.11 458.864 1087.09 465.962 1083.44 470.072V470.819C1083.08 471.193 1083.08 472.314 1083.08 474.929L1082.71 486.137C1082.71 494.356 1083.08 501.828 1083.44 508.179C1084.54 504.07 1085.63 499.96 1087.09 495.851C1090.02 486.884 1093.67 478.291 1097.69 471.193C1102.07 463.721 1106.09 458.49 1109.74 455.128C1112.3 453.26 1114.12 452.513 1115.95 452.513C1117.04 452.513 1119.6 453.26 1121.06 456.249C1121.06 456.436 1121.15 456.622 1121.24 456.809C1121.34 456.996 1121.43 457.183 1121.43 457.37C1121.79 457.743 1121.79 458.49 1121.79 458.864V460.732C1121.43 465.215 1119.6 470.446 1115.95 476.05C1113.76 479.412 1111.2 482.775 1107.91 485.763C1104.99 488.379 1102.07 490.62 1099.15 492.488L1099.51 492.862L1100.97 494.73L1102.07 495.851C1105.36 499.213 1109.74 501.455 1114.85 502.575C1117.77 503.323 1121.79 503.323 1125.81 502.949C1129.83 502.575 1133.85 501.455 1137.5 500.334C1141.88 498.466 1146.63 495.851 1151.38 492.115C1152.29 491.367 1153.11 490.62 1153.94 489.873C1154.76 489.126 1155.58 488.379 1156.49 487.631L1157.95 486.137C1157.95 485.39 1157.86 484.549 1157.77 483.709C1157.68 482.868 1157.59 482.027 1157.59 481.28C1157.22 476.797 1157.22 471.94 1157.22 466.71C1157.22 444.294 1159.78 424.493 1165.26 407.681C1169.28 396.099 1174.02 386.759 1179.14 380.034C1184.62 373.31 1189.73 370.321 1194.84 371.441C1198.5 372.562 1203.25 375.551 1203.25 386.386C1203.25 393.858 1201.05 404.692 1196.67 418.142C1191.19 434.58 1184.25 449.15 1176.58 462.226C1176.29 462.641 1176 463.052 1175.71 463.459C1173.14 467.082 1170.81 470.374 1168.18 473.061L1167.08 474.182V481.28C1167.45 483.148 1167.45 485.016 1167.45 486.511C1167.82 488.379 1167.82 489.499 1167.82 490.247C1170.74 520.135 1178.04 539.935 1189.37 548.528C1190.83 549.649 1192.29 550.396 1194.11 550.77H1196.67H1197.77C1199.23 550.77 1200.32 550.77 1201.42 550.396C1210.92 547.034 1220.41 535.452 1229.54 515.651C1231.74 511.168 1233.56 506.685 1235.02 502.575C1235.75 500.707 1236.48 498.466 1237.21 495.851V494.73C1237.21 489.873 1237.94 485.016 1239.41 480.159C1241.96 472.314 1246.35 466.71 1251.82 463.721C1252.8 463.472 1253.45 463.223 1254.1 462.974C1254.42 462.849 1254.75 462.725 1255.11 462.6C1256.21 462.226 1256.94 462.226 1257.67 462.226H1258.76C1260.96 462.226 1262.78 462.974 1264.24 464.094C1264.61 462.6 1265.7 461.479 1267.17 461.106C1267.53 460.732 1268.26 460.732 1268.99 460.732C1270.82 460.732 1272.28 461.853 1273.37 463.721C1273.74 464.842 1274.11 465.962 1274.11 467.083V470.446V474.555V477.544C1274.11 479.146 1274.21 480.64 1274.31 482.027C1274.39 483.229 1274.47 484.349 1274.47 485.39L1274.47 485.392C1274.84 488.38 1275.2 491.368 1275.93 493.983C1278.85 505.938 1285.06 513.41 1294.19 516.399C1299.31 518.267 1305.52 518.267 1311.73 516.399C1314.11 515.79 1316.49 514.684 1319.07 513.487C1319.66 513.215 1320.25 512.939 1320.86 512.663C1327.8 509.3 1334.74 503.696 1342.04 496.224C1344.97 493.609 1347.16 490.994 1348.98 488.752V481.28C1348.98 479.039 1348.98 477.171 1349.35 475.676C1350.81 468.578 1354.1 467.083 1357.02 467.083H1357.75C1359.58 467.457 1361.04 468.578 1362.13 470.072C1362.27 470.358 1362.41 470.589 1362.53 470.786C1362.72 471.105 1362.86 471.336 1362.86 471.566V472.687V473.808C1362.86 474.555 1362.86 475.303 1362.5 476.423C1362.13 477.544 1361.77 479.039 1361.4 480.907C1361.04 481.28 1361.04 481.654 1361.04 482.027C1359.94 489.126 1359.21 495.103 1359.21 500.707C1359.21 501.641 1359.3 502.575 1359.39 503.509C1359.48 504.443 1359.58 505.377 1359.58 506.311C1360.04 505.597 1360.51 504.579 1361.07 503.353C1361.39 502.657 1361.74 501.893 1362.13 501.081C1367.25 489.873 1371.63 482.401 1376.01 478.291C1381.49 472.314 1387.34 471.193 1392.45 475.303C1393.18 475.676 1393.91 476.423 1394.64 477.171C1395.18 477.718 1395.71 478.465 1396.39 479.413C1396.64 479.76 1396.9 480.133 1397.2 480.533C1397.71 481.23 1398.22 482.089 1398.8 483.074C1399.47 484.2 1400.24 485.489 1401.22 486.884C1406.69 495.851 1413.63 501.081 1422.77 502.575C1424.23 502.949 1426.05 502.949 1428.61 502.949C1431.17 502.949 1433.36 502.949 1434.82 502.575C1442.12 501.455 1449.79 498.839 1457.83 494.73C1462.94 492.115 1467.69 489.126 1471.34 486.137C1471.34 485.763 1471.44 485.39 1471.53 485.016C1471.62 484.643 1471.71 484.269 1471.71 483.895C1473.54 476.797 1476.82 471.193 1481.57 467.457C1484.49 465.215 1487.42 464.094 1490.34 464.094C1491.07 464.094 1492.16 464.094 1492.9 464.468C1493.99 464.842 1495.09 465.215 1496.18 465.962V464.842V464.468C1498.01 437.569 1503.49 414.406 1512.25 396.099C1515.54 389.748 1518.83 384.518 1522.12 381.155C1526.13 377.046 1530.15 374.804 1534.17 374.804H1535.26C1537.46 374.804 1539.28 375.925 1541.11 377.419C1543.67 380.408 1545.13 384.891 1545.13 391.242C1545.13 395.352 1544.76 399.835 1543.67 405.066C1539.28 425.614 1530.88 445.041 1519.56 462.226C1514.45 469.325 1510.43 473.808 1506.77 475.676V477.544V481.654V482.027V482.775V486.137C1506.77 506.685 1510.06 523.497 1516.27 536.573C1518.1 540.309 1520.29 543.298 1522.12 545.539C1523.21 547.034 1524.67 548.155 1525.77 548.902C1526.21 549.053 1526.66 549.266 1527.12 549.49C1527.81 549.82 1528.55 550.174 1529.42 550.396C1530.15 550.77 1530.52 550.77 1530.88 550.77H1532.71H1533.44H1535.63C1535.63 550.77 1536 550.77 1536.73 550.396C1540.01 549.275 1542.94 547.407 1545.49 544.419C1550.24 539.562 1554.99 532.09 1559.01 522.003C1560.83 517.519 1563.02 511.915 1565.22 505.938C1566.99 501.101 1568.52 496.021 1570.01 491.091C1570.36 489.927 1570.71 488.773 1571.06 487.631C1571.43 486.511 1571.79 485.39 1572.16 484.643C1572.37 484.428 1572.45 484.337 1572.49 484.228C1572.52 484.146 1572.52 484.055 1572.52 483.895V483.522L1573.25 482.775C1573.98 481.654 1575.44 481.654 1576.54 482.027ZM1539.02 388.097C1538.96 387.699 1538.92 387.393 1538.92 387.133C1537.82 384.144 1537.09 383.397 1536.73 383.397H1536C1535.81 383.397 1535.63 383.49 1535.45 383.584C1535.26 383.677 1535.08 383.77 1534.9 383.77C1533.44 384.518 1530.88 387.133 1526.86 394.605C1523.58 400.956 1520.65 408.428 1517.73 416.647C1512.62 431.965 1509.33 448.777 1507.51 466.71C1509.33 464.842 1511.16 462.6 1513.35 459.611C1516.64 455.128 1519.56 450.645 1522.48 445.414C1531.25 428.976 1536.73 412.538 1538.92 397.22C1539.28 396.099 1539.28 394.605 1539.28 393.11V391.616C1539.28 389.912 1539.13 388.842 1539.02 388.097ZM1483.76 509.3H1484.13C1485.95 508.553 1489.97 504.07 1494.36 485.763L1495.45 481.654V478.291C1495.45 475.303 1495.09 473.808 1494.72 473.061C1494.36 472.314 1493.99 471.94 1493.63 471.94H1492.9C1491.8 471.94 1490.34 473.061 1488.51 475.676C1485.59 480.533 1483.4 486.511 1481.94 493.235C1481.94 493.983 1481.85 494.73 1481.75 495.477C1481.66 496.224 1481.57 496.971 1481.57 497.719V500.707V503.696C1481.94 505.564 1482.3 507.059 1483.03 508.179C1483.4 509.3 1483.76 509.3 1483.76 509.3ZM1247.44 501.455C1247.44 504.443 1248.17 506.685 1249.27 507.806C1249.41 507.806 1249.49 507.806 1249.55 507.848C1249.63 507.915 1249.63 508.092 1249.63 508.553C1251.09 507.432 1253.65 504.443 1256.94 495.851C1257.49 494.169 1258.03 492.582 1258.58 490.994C1259.13 489.406 1259.68 487.818 1260.23 486.137C1261.05 483.615 1261.46 481.724 1261.77 480.305C1261.87 479.832 1261.96 479.412 1262.05 479.039V476.423C1262.05 475.427 1261.89 474.929 1261.78 474.597C1261.73 474.431 1261.69 474.306 1261.69 474.182C1261.32 472.314 1260.59 472.314 1260.23 472.314C1259.86 472.314 1258.76 472.314 1257.3 474.182C1253.65 477.544 1251.09 482.775 1248.9 489.499C1248.54 491.367 1248.17 492.862 1247.81 494.356C1247.81 495.062 1247.73 495.851 1247.64 496.683C1247.54 497.614 1247.44 498.601 1247.44 499.587V501.455ZM1197.4 387.133V384.891C1197.3 384.791 1197.23 384.691 1197.16 384.598C1196.98 384.344 1196.84 384.144 1196.31 384.144C1195.94 382.65 1195.57 381.529 1194.84 381.155C1194.84 380.782 1194.48 380.782 1194.11 380.782C1193.75 380.782 1193.38 380.782 1193.02 381.155C1187.54 384.518 1182.06 393.858 1176.95 409.549C1173.29 421.504 1170.37 434.954 1168.91 448.777C1168.55 452.513 1168.18 456.622 1167.82 461.106C1167.82 462.092 1167.71 462.974 1167.62 463.806C1167.53 464.551 1167.45 465.257 1167.45 465.962C1169.64 462.6 1172.2 458.49 1175.12 453.26C1178.41 447.282 1181.69 440.931 1184.25 434.954C1190.1 421.504 1194.11 408.802 1196.31 397.967C1196.38 397.499 1196.46 397.047 1196.53 396.614C1196.81 394.977 1197.04 393.623 1197.04 392.737C1197.4 391.616 1197.4 390.496 1197.4 389.375V389.374V387.133ZM1106.09 475.303C1107.91 473.061 1109.37 470.446 1110.83 467.457C1111.57 465.215 1112.3 463.721 1113.03 462.6C1110.83 464.468 1107.55 468.204 1103.53 475.303C1102.66 476.189 1102.02 477.544 1101.25 479.182C1101.05 479.613 1100.84 480.065 1100.61 480.533C1100.61 480.72 1100.52 480.813 1100.43 480.907C1100.33 481 1100.24 481.093 1100.24 481.28L1102.07 479.412L1106.09 475.303ZM1109.37 386.759C1109.37 386.012 1109.01 385.265 1108.64 384.891C1108.64 384.518 1108.28 384.144 1108.28 384.518C1108.28 384.518 1107.55 384.518 1106.09 386.012C1104.63 387.506 1102.8 389.374 1101.34 392.363C1099.88 395.352 1098.42 398.341 1096.95 401.703C1091.11 417.021 1087.09 435.701 1084.54 457.743C1091.48 445.414 1096.96 433.086 1101.7 420.383C1106.45 407.681 1109.01 397.594 1109.37 390.495V389.001V386.759Z" fill="#604536"/>
</svg>
