<svg xmlns="http://www.w3.org/2000/svg" viewBox="0 0 48 48" class="ellipseEl-ellipse">
          <path d="M56.75 17c0 4.571-3.108 8.753-8.225 11.806-5.113 3.05-12.192 4.944-20.025 4.944-7.833 0-14.912-1.894-20.024-4.944C3.358 25.753.25 21.571.25 17c0-4.571 3.108-8.753 8.226-11.806C13.588 2.144 20.667.25 28.5.25s14.912 1.894 20.025 4.944C53.642 8.247 56.75 12.429 56.75 17z" class="ellipseEl-ellipseLite"></path> 
          <path d="M56.75 17c0 4.571-3.108 8.753-8.225 11.806-5.113 3.05-12.192 4.944-20.025 4.944-7.833 0-14.912-1.894-20.024-4.944C3.358 25.753.25 21.571.25 17c0-4.571 3.108-8.753 8.226-11.806C13.588 2.144 20.667.25 28.5.25s14.912 1.894 20.025 4.944C53.642 8.247 56.75 12.429 56.75 17z" class="ellipseEl-ellipseHover" ></path>
        </svg>